<?xml version="1.0" encoding="UTF-8" standalone="no"?>
<!DOCTYPE svg PUBLIC "-//W3C//DTD SVG 1.1//EN"
 "http://www.w3.org/Graphics/SVG/1.1/DTD/svg11.dtd">
<!-- Generated by graphviz version 2.40.1 (20161225.0304)
 -->
<!-- Title: hello.c.019t.fixup_cfg1 Pages: 1 -->
<svg width="686pt" height="429pt"
 viewBox="0.00 0.00 686.00 429.00" xmlns="http://www.w3.org/2000/svg" xmlns:xlink="http://www.w3.org/1999/xlink">
<g id="graph0" class="graph" transform="scale(1 1) rotate(0) translate(4 425)">
<title>hello.c.019t.fixup_cfg1</title>
<polygon fill="#ffffff" stroke="transparent" points="-4,4 -4,-425 682,-425 682,4 -4,4"/>
<g id="clust1" class="cluster">
<title>cluster_printf</title>
<polygon fill="none" stroke="#000000" stroke-dasharray="5,2" points="8,-8 8,-413 482,-413 482,-8 8,-8"/>
<text text-anchor="middle" x="245" y="-397.8" font-family="Times,serif" font-size="14.00" fill="#000000">printf ()</text>
</g>
<g id="clust2" class="cluster">
<title>cluster_main</title>
<polygon fill="none" stroke="#000000" stroke-dasharray="5,2" points="490,-8 490,-413 670,-413 670,-8 490,-8"/>
<text text-anchor="middle" x="580" y="-397.8" font-family="Times,serif" font-size="14.00" fill="#000000">main ()</text>
</g>
<!-- fn_15_basic_block_0 -->
<g id="node1" class="node">
<title>fn_15_basic_block_0</title>
<polygon fill="#ffffff" stroke="#000000" points="255,-382 191.6562,-364 255,-346 318.3438,-364 255,-382"/>
<polyline fill="none" stroke="#000000" points="203.1992,-367.2801 203.1992,-360.7199 "/>
<polyline fill="none" stroke="#000000" points="243.457,-349.2801 266.543,-349.2801 "/>
<polyline fill="none" stroke="#000000" points="306.8008,-360.7199 306.8008,-367.2801 "/>
<polyline fill="none" stroke="#000000" points="266.543,-378.7199 243.457,-378.7199 "/>
<text text-anchor="middle" x="255" y="-360.3" font-family="Times,serif" font-size="14.00" fill="#000000">ENTRY</text>
</g>
<!-- fn_15_basic_block_1 -->
<g id="node2" class="node">
<title>fn_15_basic_block_1</title>
<polygon fill="#ffffff" stroke="#000000" points="255,-52 206.0684,-34 255,-16 303.9316,-34 255,-52"/>
<polyline fill="none" stroke="#000000" points="217.3305,-38.1429 217.3305,-29.8571 "/>
<polyline fill="none" stroke="#000000" points="243.7378,-20.1429 266.2622,-20.1429 "/>
<polyline fill="none" stroke="#000000" points="292.6695,-29.8571 292.6695,-38.1429 "/>
<polyline fill="none" stroke="#000000" points="266.2622,-47.8571 243.7378,-47.8571 "/>
<text text-anchor="middle" x="255" y="-30.3" font-family="Times,serif" font-size="14.00" fill="#000000">EXIT</text>
</g>
<!-- fn_15_basic_block_0&#45;&gt;fn_15_basic_block_1 -->
<!-- fn_15_basic_block_2 -->
<g id="node3" class="node">
<title>fn_15_basic_block_2</title>
<polygon fill="#d3d3d3" stroke="#000000" points="36,-153 36,-245 474,-245 474,-153 36,-153"/>
<text text-anchor="middle" x="255" y="-229.8" font-family="Times,serif" font-size="14.00" fill="#000000">FREQ:0</text>
<polyline fill="none" stroke="#000000" points="36,-222 474,-222 "/>
<text text-anchor="start" x="44" y="-206.8" font-family="Times,serif" font-size="14.00" fill="#000000">&lt;bb 2&gt;:</text>
<polyline fill="none" stroke="#000000" points="36,-199 474,-199 "/>
<text text-anchor="start" x="44" y="-183.8" font-family="Times,serif" font-size="14.00" fill="#000000">D.2449 = __printf_chk (1, __fmt, __builtin_va_arg_pack ());</text>
<polyline fill="none" stroke="#000000" points="36,-176 474,-176 "/>
<text text-anchor="start" x="44" y="-160.8" font-family="Times,serif" font-size="14.00" fill="#000000">return D.2449;</text>
</g>
<!-- fn_15_basic_block_0&#45;&gt;fn_15_basic_block_2 -->
<g id="edge1" class="edge">
<title>fn_15_basic_block_0:s&#45;&gt;fn_15_basic_block_2:n</title>
<path fill="none" stroke="#0000ff" stroke-width="2" d="M255,-346C255,-304.7934 255,-291.9566 255,-255.4044"/>
<polygon fill="#0000ff" stroke="#0000ff" stroke-width="2" points="258.5001,-255 255,-245 251.5001,-255 258.5001,-255"/>
<text text-anchor="middle" x="272" y="-297.8" font-family="Times,serif" font-size="14.00" fill="#000000">[0%]</text>
</g>
<!-- fn_15_basic_block_2&#45;&gt;fn_15_basic_block_1 -->
<g id="edge2" class="edge">
<title>fn_15_basic_block_2:s&#45;&gt;fn_15_basic_block_1:n</title>
<path fill="none" stroke="#000000" stroke-width="2" d="M255,-153C255,-111.7934 255,-98.9566 255,-62.4044"/>
<polygon fill="#000000" stroke="#000000" stroke-width="2" points="258.5001,-62 255,-52 251.5001,-62 258.5001,-62"/>
<text text-anchor="middle" x="272" y="-92.8" font-family="Times,serif" font-size="14.00" fill="#000000">[0%]</text>
</g>
<!-- fn_23_basic_block_0 -->
<g id="node4" class="node">
<title>fn_23_basic_block_0</title>
<polygon fill="#ffffff" stroke="#000000" points="590,-382 526.6562,-364 590,-346 653.3438,-364 590,-382"/>
<polyline fill="none" stroke="#000000" points="538.1992,-367.2801 538.1992,-360.7199 "/>
<polyline fill="none" stroke="#000000" points="578.457,-349.2801 601.543,-349.2801 "/>
<polyline fill="none" stroke="#000000" points="641.8008,-360.7199 641.8008,-367.2801 "/>
<polyline fill="none" stroke="#000000" points="601.543,-378.7199 578.457,-378.7199 "/>
<text text-anchor="middle" x="590" y="-360.3" font-family="Times,serif" font-size="14.00" fill="#000000">ENTRY</text>
</g>
<!-- fn_23_basic_block_1 -->
<g id="node5" class="node">
<title>fn_23_basic_block_1</title>
<polygon fill="#ffffff" stroke="#000000" points="590,-52 541.0684,-34 590,-16 638.9316,-34 590,-52"/>
<polyline fill="none" stroke="#000000" points="552.3305,-38.1429 552.3305,-29.8571 "/>
<polyline fill="none" stroke="#000000" points="578.7378,-20.1429 601.2622,-20.1429 "/>
<polyline fill="none" stroke="#000000" points="627.6695,-29.8571 627.6695,-38.1429 "/>
<polyline fill="none" stroke="#000000" points="601.2622,-47.8571 578.7378,-47.8571 "/>
<text text-anchor="middle" x="590" y="-30.3" font-family="Times,serif" font-size="14.00" fill="#000000">EXIT</text>
</g>
<!-- fn_23_basic_block_0&#45;&gt;fn_23_basic_block_1 -->
<!-- fn_23_basic_block_2 -->
<g id="node6" class="node">
<title>fn_23_basic_block_2</title>
<polygon fill="#d3d3d3" stroke="#000000" points="518.5,-141.5 518.5,-256.5 661.5,-256.5 661.5,-141.5 518.5,-141.5"/>
<text text-anchor="middle" x="590" y="-241.3" font-family="Times,serif" font-size="14.00" fill="#000000">FREQ:0</text>
<polyline fill="none" stroke="#000000" points="518.5,-233.5 661.5,-233.5 "/>
<text text-anchor="start" x="526.5" y="-218.3" font-family="Times,serif" font-size="14.00" fill="#000000">&lt;bb 2&gt;:</text>
<polyline fill="none" stroke="#000000" points="518.5,-210.5 661.5,-210.5 "/>
<text text-anchor="start" x="526.5" y="-195.3" font-family="Times,serif" font-size="14.00" fill="#000000">printf (&quot;hello.\n&quot;);</text>
<polyline fill="none" stroke="#000000" points="518.5,-187.5 661.5,-187.5 "/>
<text text-anchor="start" x="526.5" y="-172.3" font-family="Times,serif" font-size="14.00" fill="#000000">D.2447 = 0;</text>
<polyline fill="none" stroke="#000000" points="518.5,-164.5 661.5,-164.5 "/>
<text text-anchor="start" x="526.5" y="-149.3" font-family="Times,serif" font-size="14.00" fill="#000000">return D.2447;</text>
</g>
<!-- fn_23_basic_block_0&#45;&gt;fn_23_basic_block_2 -->
<g id="edge4" class="edge">
<title>fn_23_basic_block_0:s&#45;&gt;fn_23_basic_block_2:n</title>
<path fill="none" stroke="#0000ff" stroke-width="2" d="M590,-346C590,-310.1528 590,-298.6705 590,-267.3917"/>
<polygon fill="#0000ff" stroke="#0000ff" stroke-width="2" points="593.5001,-267 590,-257 586.5001,-267 593.5001,-267"/>
<text text-anchor="middle" x="607" y="-297.8" font-family="Times,serif" font-size="14.00" fill="#000000">[0%]</text>
</g>
<!-- fn_23_basic_block_2&#45;&gt;fn_23_basic_block_1 -->
<g id="edge5" class="edge">
<title>fn_23_basic_block_2:s&#45;&gt;fn_23_basic_block_1:n</title>
<path fill="none" stroke="#000000" stroke-width="2" d="M590,-141C590,-105.1528 590,-93.6705 590,-62.3917"/>
<polygon fill="#000000" stroke="#000000" stroke-width="2" points="593.5001,-62 590,-52 586.5001,-62 593.5001,-62"/>
<text text-anchor="middle" x="607" y="-92.8" font-family="Times,serif" font-size="14.00" fill="#000000">[0%]</text>
</g>
</g>
</svg>
