<?xml version="1.0" encoding="UTF-8" standalone="no"?>
<!DOCTYPE svg PUBLIC "-//W3C//DTD SVG 1.1//EN"
 "http://www.w3.org/Graphics/SVG/1.1/DTD/svg11.dtd">
<!-- Generated by graphviz version 2.40.1 (20161225.0304)
 -->
<!-- Title: hello.c.032t.ccp1 Pages: 1 -->
<svg width="794pt" height="406pt"
 viewBox="0.00 0.00 794.00 406.00" xmlns="http://www.w3.org/2000/svg" xmlns:xlink="http://www.w3.org/1999/xlink">
<g id="graph0" class="graph" transform="scale(1 1) rotate(0) translate(4 402)">
<title>hello.c.032t.ccp1</title>
<polygon fill="#ffffff" stroke="transparent" points="-4,4 -4,-402 790,-402 790,4 -4,4"/>
<g id="clust1" class="cluster">
<title>cluster_printf</title>
<polygon fill="none" stroke="#000000" stroke-dasharray="5,2" points="8,-8 8,-390 486,-390 486,-8 8,-8"/>
<text text-anchor="middle" x="247" y="-374.8" font-family="Times,serif" font-size="14.00" fill="#000000">printf ()</text>
</g>
<g id="clust2" class="cluster">
<title>cluster_main</title>
<polygon fill="none" stroke="#000000" stroke-dasharray="5,2" points="494,-8 494,-390 778,-390 778,-8 494,-8"/>
<text text-anchor="middle" x="636" y="-374.8" font-family="Times,serif" font-size="14.00" fill="#000000">main ()</text>
</g>
<!-- fn_15_basic_block_0 -->
<g id="node1" class="node">
<title>fn_15_basic_block_0</title>
<polygon fill="#ffffff" stroke="#000000" points="257,-359 193.6562,-341 257,-323 320.3438,-341 257,-359"/>
<polyline fill="none" stroke="#000000" points="205.1992,-344.2801 205.1992,-337.7199 "/>
<polyline fill="none" stroke="#000000" points="245.457,-326.2801 268.543,-326.2801 "/>
<polyline fill="none" stroke="#000000" points="308.8008,-337.7199 308.8008,-344.2801 "/>
<polyline fill="none" stroke="#000000" points="268.543,-355.7199 245.457,-355.7199 "/>
<text text-anchor="middle" x="257" y="-337.3" font-family="Times,serif" font-size="14.00" fill="#000000">ENTRY</text>
</g>
<!-- fn_15_basic_block_1 -->
<g id="node2" class="node">
<title>fn_15_basic_block_1</title>
<polygon fill="#ffffff" stroke="#000000" points="257,-52 208.0684,-34 257,-16 305.9316,-34 257,-52"/>
<polyline fill="none" stroke="#000000" points="219.3305,-38.1429 219.3305,-29.8571 "/>
<polyline fill="none" stroke="#000000" points="245.7378,-20.1429 268.2622,-20.1429 "/>
<polyline fill="none" stroke="#000000" points="294.6695,-29.8571 294.6695,-38.1429 "/>
<polyline fill="none" stroke="#000000" points="268.2622,-47.8571 245.7378,-47.8571 "/>
<text text-anchor="middle" x="257" y="-30.3" font-family="Times,serif" font-size="14.00" fill="#000000">EXIT</text>
</g>
<!-- fn_15_basic_block_0&#45;&gt;fn_15_basic_block_1 -->
<!-- fn_15_basic_block_2 -->
<g id="node3" class="node">
<title>fn_15_basic_block_2</title>
<polygon fill="#d3d3d3" stroke="#000000" points="36,-141.5 36,-233.5 478,-233.5 478,-141.5 36,-141.5"/>
<text text-anchor="middle" x="257" y="-218.3" font-family="Times,serif" font-size="14.00" fill="#000000">FREQ:0</text>
<polyline fill="none" stroke="#000000" points="36,-210.5 478,-210.5 "/>
<text text-anchor="start" x="44" y="-195.3" font-family="Times,serif" font-size="14.00" fill="#000000">&lt;bb 2&gt;:</text>
<polyline fill="none" stroke="#000000" points="36,-187.5 478,-187.5 "/>
<text text-anchor="start" x="44" y="-172.3" font-family="Times,serif" font-size="14.00" fill="#000000">_4 = __printf_chk (1, __fmt_2(D), __builtin_va_arg_pack ());</text>
<polyline fill="none" stroke="#000000" points="36,-164.5 478,-164.5 "/>
<text text-anchor="start" x="44" y="-149.3" font-family="Times,serif" font-size="14.00" fill="#000000">return _4;</text>
</g>
<!-- fn_15_basic_block_0&#45;&gt;fn_15_basic_block_2 -->
<g id="edge1" class="edge">
<title>fn_15_basic_block_0:s&#45;&gt;fn_15_basic_block_2:n</title>
<path fill="none" stroke="#0000ff" stroke-width="2" d="M257,-323C257,-286.796 257,-275.3055 257,-243.5422"/>
<polygon fill="#0000ff" stroke="#0000ff" stroke-width="2" points="260.5001,-243.5 257,-233.5 253.5001,-243.5 260.5001,-243.5"/>
<text text-anchor="middle" x="274" y="-274.8" font-family="Times,serif" font-size="14.00" fill="#000000">[0%]</text>
</g>
<!-- fn_15_basic_block_2&#45;&gt;fn_15_basic_block_1 -->
<g id="edge2" class="edge">
<title>fn_15_basic_block_2:s&#45;&gt;fn_15_basic_block_1:n</title>
<path fill="none" stroke="#000000" stroke-width="2" d="M257,-141.5C257,-105.296 257,-93.8055 257,-62.0422"/>
<polygon fill="#000000" stroke="#000000" stroke-width="2" points="260.5001,-62 257,-52 253.5001,-62 260.5001,-62"/>
<text text-anchor="middle" x="274" y="-92.8" font-family="Times,serif" font-size="14.00" fill="#000000">[0%]</text>
</g>
<!-- fn_23_basic_block_0 -->
<g id="node4" class="node">
<title>fn_23_basic_block_0</title>
<polygon fill="#ffffff" stroke="#000000" points="646,-359 582.6562,-341 646,-323 709.3438,-341 646,-359"/>
<polyline fill="none" stroke="#000000" points="594.1992,-344.2801 594.1992,-337.7199 "/>
<polyline fill="none" stroke="#000000" points="634.457,-326.2801 657.543,-326.2801 "/>
<polyline fill="none" stroke="#000000" points="697.8008,-337.7199 697.8008,-344.2801 "/>
<polyline fill="none" stroke="#000000" points="657.543,-355.7199 634.457,-355.7199 "/>
<text text-anchor="middle" x="646" y="-337.3" font-family="Times,serif" font-size="14.00" fill="#000000">ENTRY</text>
</g>
<!-- fn_23_basic_block_1 -->
<g id="node5" class="node">
<title>fn_23_basic_block_1</title>
<polygon fill="#ffffff" stroke="#000000" points="646,-52 597.0684,-34 646,-16 694.9316,-34 646,-52"/>
<polyline fill="none" stroke="#000000" points="608.3305,-38.1429 608.3305,-29.8571 "/>
<polyline fill="none" stroke="#000000" points="634.7378,-20.1429 657.2622,-20.1429 "/>
<polyline fill="none" stroke="#000000" points="683.6695,-29.8571 683.6695,-38.1429 "/>
<polyline fill="none" stroke="#000000" points="657.2622,-47.8571 634.7378,-47.8571 "/>
<text text-anchor="middle" x="646" y="-30.3" font-family="Times,serif" font-size="14.00" fill="#000000">EXIT</text>
</g>
<!-- fn_23_basic_block_0&#45;&gt;fn_23_basic_block_1 -->
<!-- fn_23_basic_block_2 -->
<g id="node6" class="node">
<title>fn_23_basic_block_2</title>
<polygon fill="#d3d3d3" stroke="#000000" points="522.5,-141.5 522.5,-233.5 769.5,-233.5 769.5,-141.5 522.5,-141.5"/>
<text text-anchor="middle" x="646" y="-218.3" font-family="Times,serif" font-size="14.00" fill="#000000">FREQ:10000</text>
<polyline fill="none" stroke="#000000" points="522.5,-210.5 769.5,-210.5 "/>
<text text-anchor="start" x="530.5" y="-195.3" font-family="Times,serif" font-size="14.00" fill="#000000">&lt;bb 2&gt;:</text>
<polyline fill="none" stroke="#000000" points="522.5,-187.5 769.5,-187.5 "/>
<text text-anchor="start" x="530.5" y="-172.3" font-family="Times,serif" font-size="14.00" fill="#000000">_4 = __printf_chk (1, &quot;hello.\n&quot;);</text>
<polyline fill="none" stroke="#000000" points="522.5,-164.5 769.5,-164.5 "/>
<text text-anchor="start" x="530.5" y="-149.3" font-family="Times,serif" font-size="14.00" fill="#000000">return 0;</text>
</g>
<!-- fn_23_basic_block_0&#45;&gt;fn_23_basic_block_2 -->
<g id="edge4" class="edge">
<title>fn_23_basic_block_0:s&#45;&gt;fn_23_basic_block_2:n</title>
<path fill="none" stroke="#0000ff" stroke-width="2" d="M646,-323C646,-286.796 646,-275.3055 646,-243.5422"/>
<polygon fill="#0000ff" stroke="#0000ff" stroke-width="2" points="649.5001,-243.5 646,-233.5 642.5001,-243.5 649.5001,-243.5"/>
<text text-anchor="middle" x="663" y="-274.8" font-family="Times,serif" font-size="14.00" fill="#000000">[0%]</text>
</g>
<!-- fn_23_basic_block_2&#45;&gt;fn_23_basic_block_1 -->
<g id="edge5" class="edge">
<title>fn_23_basic_block_2:s&#45;&gt;fn_23_basic_block_1:n</title>
<path fill="none" stroke="#000000" stroke-width="2" d="M646,-141.5C646,-105.296 646,-93.8055 646,-62.0422"/>
<polygon fill="#000000" stroke="#000000" stroke-width="2" points="649.5001,-62 646,-52 642.5001,-62 649.5001,-62"/>
<text text-anchor="middle" x="663" y="-92.8" font-family="Times,serif" font-size="14.00" fill="#000000">[0%]</text>
</g>
</g>
</svg>
