<?xml version="1.0" encoding="UTF-8" standalone="no"?>
<!DOCTYPE svg PUBLIC "-//W3C//DTD SVG 1.1//EN"
 "http://www.w3.org/Graphics/SVG/1.1/DTD/svg11.dtd">
<!-- Generated by graphviz version 2.40.1 (20161225.0304)
 -->
<!-- Title: hello.c.095t.phiprop Pages: 1 -->
<svg width="270pt" height="406pt"
 viewBox="0.00 0.00 270.00 406.00" xmlns="http://www.w3.org/2000/svg" xmlns:xlink="http://www.w3.org/1999/xlink">
<g id="graph0" class="graph" transform="scale(1 1) rotate(0) translate(4 402)">
<title>hello.c.095t.phiprop</title>
<polygon fill="#ffffff" stroke="transparent" points="-4,4 -4,-402 266,-402 266,4 -4,4"/>
<g id="clust1" class="cluster">
<title>cluster_main</title>
<polygon fill="none" stroke="#000000" stroke-dasharray="5,2" points="8,-8 8,-390 254,-390 254,-8 8,-8"/>
<text text-anchor="middle" x="131" y="-374.8" font-family="Times,serif" font-size="14.00" fill="#000000">main ()</text>
</g>
<!-- fn_23_basic_block_0 -->
<g id="node1" class="node">
<title>fn_23_basic_block_0</title>
<polygon fill="#ffffff" stroke="#000000" points="141,-359 77.6562,-341 141,-323 204.3438,-341 141,-359"/>
<polyline fill="none" stroke="#000000" points="89.1992,-344.2801 89.1992,-337.7199 "/>
<polyline fill="none" stroke="#000000" points="129.457,-326.2801 152.543,-326.2801 "/>
<polyline fill="none" stroke="#000000" points="192.8008,-337.7199 192.8008,-344.2801 "/>
<polyline fill="none" stroke="#000000" points="152.543,-355.7199 129.457,-355.7199 "/>
<text text-anchor="middle" x="141" y="-337.3" font-family="Times,serif" font-size="14.00" fill="#000000">ENTRY</text>
</g>
<!-- fn_23_basic_block_1 -->
<g id="node2" class="node">
<title>fn_23_basic_block_1</title>
<polygon fill="#ffffff" stroke="#000000" points="141,-52 92.0684,-34 141,-16 189.9316,-34 141,-52"/>
<polyline fill="none" stroke="#000000" points="103.3305,-38.1429 103.3305,-29.8571 "/>
<polyline fill="none" stroke="#000000" points="129.7378,-20.1429 152.2622,-20.1429 "/>
<polyline fill="none" stroke="#000000" points="178.6695,-29.8571 178.6695,-38.1429 "/>
<polyline fill="none" stroke="#000000" points="152.2622,-47.8571 129.7378,-47.8571 "/>
<text text-anchor="middle" x="141" y="-30.3" font-family="Times,serif" font-size="14.00" fill="#000000">EXIT</text>
</g>
<!-- fn_23_basic_block_0&#45;&gt;fn_23_basic_block_1 -->
<!-- fn_23_basic_block_2 -->
<g id="node3" class="node">
<title>fn_23_basic_block_2</title>
<polygon fill="#d3d3d3" stroke="#000000" points="36.5,-141.5 36.5,-233.5 245.5,-233.5 245.5,-141.5 36.5,-141.5"/>
<text text-anchor="middle" x="141" y="-218.3" font-family="Times,serif" font-size="14.00" fill="#000000">FREQ:10000</text>
<polyline fill="none" stroke="#000000" points="36.5,-210.5 245.5,-210.5 "/>
<text text-anchor="start" x="44.5" y="-195.3" font-family="Times,serif" font-size="14.00" fill="#000000">&lt;bb 2&gt;:</text>
<polyline fill="none" stroke="#000000" points="36.5,-187.5 245.5,-187.5 "/>
<text text-anchor="start" x="44.5" y="-172.3" font-family="Times,serif" font-size="14.00" fill="#000000">__printf_chk (1, &quot;hello.\n&quot;);</text>
<polyline fill="none" stroke="#000000" points="36.5,-164.5 245.5,-164.5 "/>
<text text-anchor="start" x="44.5" y="-149.3" font-family="Times,serif" font-size="14.00" fill="#000000">return 0;</text>
</g>
<!-- fn_23_basic_block_0&#45;&gt;fn_23_basic_block_2 -->
<g id="edge1" class="edge">
<title>fn_23_basic_block_0:s&#45;&gt;fn_23_basic_block_2:n</title>
<path fill="none" stroke="#0000ff" stroke-width="2" d="M141,-323C141,-286.796 141,-275.3055 141,-243.5422"/>
<polygon fill="#0000ff" stroke="#0000ff" stroke-width="2" points="144.5001,-243.5 141,-233.5 137.5001,-243.5 144.5001,-243.5"/>
<text text-anchor="middle" x="167" y="-274.8" font-family="Times,serif" font-size="14.00" fill="#000000">[100%]</text>
</g>
<!-- fn_23_basic_block_2&#45;&gt;fn_23_basic_block_1 -->
<g id="edge2" class="edge">
<title>fn_23_basic_block_2:s&#45;&gt;fn_23_basic_block_1:n</title>
<path fill="none" stroke="#000000" stroke-width="2" d="M141,-141.5C141,-105.296 141,-93.8055 141,-62.0422"/>
<polygon fill="#000000" stroke="#000000" stroke-width="2" points="144.5001,-62 141,-52 137.5001,-62 144.5001,-62"/>
<text text-anchor="middle" x="167" y="-92.8" font-family="Times,serif" font-size="14.00" fill="#000000">[100%]</text>
</g>
</g>
</svg>
