<?xml version="1.0" encoding="UTF-8" standalone="no"?>
<!DOCTYPE svg PUBLIC "-//W3C//DTD SVG 1.1//EN"
 "http://www.w3.org/Graphics/SVG/1.1/DTD/svg11.dtd">
<!-- Generated by graphviz version 2.40.1 (20161225.0304)
 -->
<!-- Title: hello.c.174t.slsr Pages: 1 -->
<svg width="281pt" height="406pt"
 viewBox="0.00 0.00 281.00 406.00" xmlns="http://www.w3.org/2000/svg" xmlns:xlink="http://www.w3.org/1999/xlink">
<g id="graph0" class="graph" transform="scale(1 1) rotate(0) translate(4 402)">
<title>hello.c.174t.slsr</title>
<polygon fill="#ffffff" stroke="transparent" points="-4,4 -4,-402 277,-402 277,4 -4,4"/>
<g id="clust1" class="cluster">
<title>cluster_main</title>
<polygon fill="none" stroke="#000000" stroke-dasharray="5,2" points="8,-8 8,-390 265,-390 265,-8 8,-8"/>
<text text-anchor="middle" x="136.5" y="-374.8" font-family="Times,serif" font-size="14.00" fill="#000000">main ()</text>
</g>
<!-- fn_23_basic_block_0 -->
<g id="node1" class="node">
<title>fn_23_basic_block_0</title>
<polygon fill="#ffffff" stroke="#000000" points="147,-359 83.6562,-341 147,-323 210.3438,-341 147,-359"/>
<polyline fill="none" stroke="#000000" points="95.1992,-344.2801 95.1992,-337.7199 "/>
<polyline fill="none" stroke="#000000" points="135.457,-326.2801 158.543,-326.2801 "/>
<polyline fill="none" stroke="#000000" points="198.8008,-337.7199 198.8008,-344.2801 "/>
<polyline fill="none" stroke="#000000" points="158.543,-355.7199 135.457,-355.7199 "/>
<text text-anchor="middle" x="147" y="-337.3" font-family="Times,serif" font-size="14.00" fill="#000000">ENTRY</text>
</g>
<!-- fn_23_basic_block_1 -->
<g id="node2" class="node">
<title>fn_23_basic_block_1</title>
<polygon fill="#ffffff" stroke="#000000" points="147,-52 98.0684,-34 147,-16 195.9316,-34 147,-52"/>
<polyline fill="none" stroke="#000000" points="109.3305,-38.1429 109.3305,-29.8571 "/>
<polyline fill="none" stroke="#000000" points="135.7378,-20.1429 158.2622,-20.1429 "/>
<polyline fill="none" stroke="#000000" points="184.6695,-29.8571 184.6695,-38.1429 "/>
<polyline fill="none" stroke="#000000" points="158.2622,-47.8571 135.7378,-47.8571 "/>
<text text-anchor="middle" x="147" y="-30.3" font-family="Times,serif" font-size="14.00" fill="#000000">EXIT</text>
</g>
<!-- fn_23_basic_block_0&#45;&gt;fn_23_basic_block_1 -->
<!-- fn_23_basic_block_2 -->
<g id="node3" class="node">
<title>fn_23_basic_block_2</title>
<polygon fill="#d3d3d3" stroke="#000000" points="36.5,-141.5 36.5,-233.5 257.5,-233.5 257.5,-141.5 36.5,-141.5"/>
<text text-anchor="middle" x="147" y="-218.3" font-family="Times,serif" font-size="14.00" fill="#000000">FREQ:10000</text>
<polyline fill="none" stroke="#000000" points="36.5,-210.5 257.5,-210.5 "/>
<text text-anchor="start" x="44.5" y="-195.3" font-family="Times,serif" font-size="14.00" fill="#000000">&lt;bb 2&gt;:</text>
<polyline fill="none" stroke="#000000" points="36.5,-187.5 257.5,-187.5 "/>
<text text-anchor="start" x="44.5" y="-172.3" font-family="Times,serif" font-size="14.00" fill="#000000">__builtin_puts (&amp;&quot;hello.&quot;[0]);</text>
<polyline fill="none" stroke="#000000" points="36.5,-164.5 257.5,-164.5 "/>
<text text-anchor="start" x="44.5" y="-149.3" font-family="Times,serif" font-size="14.00" fill="#000000">return 0;</text>
</g>
<!-- fn_23_basic_block_0&#45;&gt;fn_23_basic_block_2 -->
<g id="edge1" class="edge">
<title>fn_23_basic_block_0:s&#45;&gt;fn_23_basic_block_2:n</title>
<path fill="none" stroke="#0000ff" stroke-width="2" d="M147,-323C147,-286.796 147,-275.3055 147,-243.5422"/>
<polygon fill="#0000ff" stroke="#0000ff" stroke-width="2" points="150.5001,-243.5 147,-233.5 143.5001,-243.5 150.5001,-243.5"/>
<text text-anchor="middle" x="173" y="-274.8" font-family="Times,serif" font-size="14.00" fill="#000000">[100%]</text>
</g>
<!-- fn_23_basic_block_2&#45;&gt;fn_23_basic_block_1 -->
<g id="edge2" class="edge">
<title>fn_23_basic_block_2:s&#45;&gt;fn_23_basic_block_1:n</title>
<path fill="none" stroke="#000000" stroke-width="2" d="M147,-141.5C147,-105.296 147,-93.8055 147,-62.0422"/>
<polygon fill="#000000" stroke="#000000" stroke-width="2" points="150.5001,-62 147,-52 143.5001,-62 150.5001,-62"/>
<text text-anchor="middle" x="173" y="-92.8" font-family="Times,serif" font-size="14.00" fill="#000000">[100%]</text>
</g>
</g>
</svg>
