<?xml version="1.0" encoding="UTF-8" standalone="no"?>
<!DOCTYPE svg PUBLIC "-//W3C//DTD SVG 1.1//EN"
 "http://www.w3.org/Graphics/SVG/1.1/DTD/svg11.dtd">
<!-- Generated by graphviz version 2.40.1 (20161225.0304)
 -->
<!-- Title: hello.c.012t.ompexp Pages: 1 -->
<svg width="686pt" height="429pt"
 viewBox="0.00 0.00 686.00 429.00" xmlns="http://www.w3.org/2000/svg" xmlns:xlink="http://www.w3.org/1999/xlink">
<g id="graph0" class="graph" transform="scale(1 1) rotate(0) translate(4 425)">
<title>hello.c.012t.ompexp</title>
<polygon fill="#ffffff" stroke="transparent" points="-4,4 -4,-425 682,-425 682,4 -4,4"/>
<g id="clust1" class="cluster">
<title>cluster_main</title>
<polygon fill="none" stroke="#000000" stroke-dasharray="5,2" points="8,-8 8,-413 188,-413 188,-8 8,-8"/>
<text text-anchor="middle" x="98" y="-397.8" font-family="Times,serif" font-size="14.00" fill="#000000">main ()</text>
</g>
<g id="clust2" class="cluster">
<title>cluster_printf</title>
<polygon fill="none" stroke="#000000" stroke-dasharray="5,2" points="196,-8 196,-413 670,-413 670,-8 196,-8"/>
<text text-anchor="middle" x="433" y="-397.8" font-family="Times,serif" font-size="14.00" fill="#000000">printf ()</text>
</g>
<!-- fn_23_basic_block_0 -->
<g id="node1" class="node">
<title>fn_23_basic_block_0</title>
<polygon fill="#ffffff" stroke="#000000" points="108,-382 44.6562,-364 108,-346 171.3438,-364 108,-382"/>
<polyline fill="none" stroke="#000000" points="56.1992,-367.2801 56.1992,-360.7199 "/>
<polyline fill="none" stroke="#000000" points="96.457,-349.2801 119.543,-349.2801 "/>
<polyline fill="none" stroke="#000000" points="159.8008,-360.7199 159.8008,-367.2801 "/>
<polyline fill="none" stroke="#000000" points="119.543,-378.7199 96.457,-378.7199 "/>
<text text-anchor="middle" x="108" y="-360.3" font-family="Times,serif" font-size="14.00" fill="#000000">ENTRY</text>
</g>
<!-- fn_23_basic_block_1 -->
<g id="node2" class="node">
<title>fn_23_basic_block_1</title>
<polygon fill="#ffffff" stroke="#000000" points="108,-52 59.0684,-34 108,-16 156.9316,-34 108,-52"/>
<polyline fill="none" stroke="#000000" points="70.3305,-38.1429 70.3305,-29.8571 "/>
<polyline fill="none" stroke="#000000" points="96.7378,-20.1429 119.2622,-20.1429 "/>
<polyline fill="none" stroke="#000000" points="145.6695,-29.8571 145.6695,-38.1429 "/>
<polyline fill="none" stroke="#000000" points="119.2622,-47.8571 96.7378,-47.8571 "/>
<text text-anchor="middle" x="108" y="-30.3" font-family="Times,serif" font-size="14.00" fill="#000000">EXIT</text>
</g>
<!-- fn_23_basic_block_0&#45;&gt;fn_23_basic_block_1 -->
<!-- fn_23_basic_block_2 -->
<g id="node3" class="node">
<title>fn_23_basic_block_2</title>
<polygon fill="#d3d3d3" stroke="#000000" points="36.5,-141.5 36.5,-256.5 179.5,-256.5 179.5,-141.5 36.5,-141.5"/>
<text text-anchor="middle" x="108" y="-241.3" font-family="Times,serif" font-size="14.00" fill="#000000">FREQ:0</text>
<polyline fill="none" stroke="#000000" points="36.5,-233.5 179.5,-233.5 "/>
<text text-anchor="start" x="44.5" y="-218.3" font-family="Times,serif" font-size="14.00" fill="#000000">&lt;bb 2&gt;:</text>
<polyline fill="none" stroke="#000000" points="36.5,-210.5 179.5,-210.5 "/>
<text text-anchor="start" x="44.5" y="-195.3" font-family="Times,serif" font-size="14.00" fill="#000000">printf (&quot;hello.\n&quot;);</text>
<polyline fill="none" stroke="#000000" points="36.5,-187.5 179.5,-187.5 "/>
<text text-anchor="start" x="44.5" y="-172.3" font-family="Times,serif" font-size="14.00" fill="#000000">D.2447 = 0;</text>
<polyline fill="none" stroke="#000000" points="36.5,-164.5 179.5,-164.5 "/>
<text text-anchor="start" x="44.5" y="-149.3" font-family="Times,serif" font-size="14.00" fill="#000000">return D.2447;</text>
</g>
<!-- fn_23_basic_block_0&#45;&gt;fn_23_basic_block_2 -->
<g id="edge1" class="edge">
<title>fn_23_basic_block_0:s&#45;&gt;fn_23_basic_block_2:n</title>
<path fill="none" stroke="#0000ff" stroke-width="2" d="M108,-346C108,-310.1528 108,-298.6705 108,-267.3917"/>
<polygon fill="#0000ff" stroke="#0000ff" stroke-width="2" points="111.5001,-267 108,-257 104.5001,-267 111.5001,-267"/>
<text text-anchor="middle" x="125" y="-297.8" font-family="Times,serif" font-size="14.00" fill="#000000">[0%]</text>
</g>
<!-- fn_23_basic_block_2&#45;&gt;fn_23_basic_block_1 -->
<g id="edge2" class="edge">
<title>fn_23_basic_block_2:s&#45;&gt;fn_23_basic_block_1:n</title>
<path fill="none" stroke="#000000" stroke-width="2" d="M108,-141C108,-105.1528 108,-93.6705 108,-62.3917"/>
<polygon fill="#000000" stroke="#000000" stroke-width="2" points="111.5001,-62 108,-52 104.5001,-62 111.5001,-62"/>
<text text-anchor="middle" x="125" y="-92.8" font-family="Times,serif" font-size="14.00" fill="#000000">[0%]</text>
</g>
<!-- fn_15_basic_block_0 -->
<g id="node4" class="node">
<title>fn_15_basic_block_0</title>
<polygon fill="#ffffff" stroke="#000000" points="443,-382 379.6562,-364 443,-346 506.3438,-364 443,-382"/>
<polyline fill="none" stroke="#000000" points="391.1992,-367.2801 391.1992,-360.7199 "/>
<polyline fill="none" stroke="#000000" points="431.457,-349.2801 454.543,-349.2801 "/>
<polyline fill="none" stroke="#000000" points="494.8008,-360.7199 494.8008,-367.2801 "/>
<polyline fill="none" stroke="#000000" points="454.543,-378.7199 431.457,-378.7199 "/>
<text text-anchor="middle" x="443" y="-360.3" font-family="Times,serif" font-size="14.00" fill="#000000">ENTRY</text>
</g>
<!-- fn_15_basic_block_1 -->
<g id="node5" class="node">
<title>fn_15_basic_block_1</title>
<polygon fill="#ffffff" stroke="#000000" points="443,-52 394.0684,-34 443,-16 491.9316,-34 443,-52"/>
<polyline fill="none" stroke="#000000" points="405.3305,-38.1429 405.3305,-29.8571 "/>
<polyline fill="none" stroke="#000000" points="431.7378,-20.1429 454.2622,-20.1429 "/>
<polyline fill="none" stroke="#000000" points="480.6695,-29.8571 480.6695,-38.1429 "/>
<polyline fill="none" stroke="#000000" points="454.2622,-47.8571 431.7378,-47.8571 "/>
<text text-anchor="middle" x="443" y="-30.3" font-family="Times,serif" font-size="14.00" fill="#000000">EXIT</text>
</g>
<!-- fn_15_basic_block_0&#45;&gt;fn_15_basic_block_1 -->
<!-- fn_15_basic_block_2 -->
<g id="node6" class="node">
<title>fn_15_basic_block_2</title>
<polygon fill="#d3d3d3" stroke="#000000" points="224,-153 224,-245 662,-245 662,-153 224,-153"/>
<text text-anchor="middle" x="443" y="-229.8" font-family="Times,serif" font-size="14.00" fill="#000000">FREQ:0</text>
<polyline fill="none" stroke="#000000" points="224,-222 662,-222 "/>
<text text-anchor="start" x="232" y="-206.8" font-family="Times,serif" font-size="14.00" fill="#000000">&lt;bb 2&gt;:</text>
<polyline fill="none" stroke="#000000" points="224,-199 662,-199 "/>
<text text-anchor="start" x="232" y="-183.8" font-family="Times,serif" font-size="14.00" fill="#000000">D.2449 = __printf_chk (1, __fmt, __builtin_va_arg_pack ());</text>
<polyline fill="none" stroke="#000000" points="224,-176 662,-176 "/>
<text text-anchor="start" x="232" y="-160.8" font-family="Times,serif" font-size="14.00" fill="#000000">return D.2449;</text>
</g>
<!-- fn_15_basic_block_0&#45;&gt;fn_15_basic_block_2 -->
<g id="edge4" class="edge">
<title>fn_15_basic_block_0:s&#45;&gt;fn_15_basic_block_2:n</title>
<path fill="none" stroke="#0000ff" stroke-width="2" d="M443,-346C443,-304.7934 443,-291.9566 443,-255.4044"/>
<polygon fill="#0000ff" stroke="#0000ff" stroke-width="2" points="446.5001,-255 443,-245 439.5001,-255 446.5001,-255"/>
<text text-anchor="middle" x="460" y="-297.8" font-family="Times,serif" font-size="14.00" fill="#000000">[0%]</text>
</g>
<!-- fn_15_basic_block_2&#45;&gt;fn_15_basic_block_1 -->
<g id="edge5" class="edge">
<title>fn_15_basic_block_2:s&#45;&gt;fn_15_basic_block_1:n</title>
<path fill="none" stroke="#000000" stroke-width="2" d="M443,-153C443,-111.7934 443,-98.9566 443,-62.4044"/>
<polygon fill="#000000" stroke="#000000" stroke-width="2" points="446.5001,-62 443,-52 439.5001,-62 446.5001,-62"/>
<text text-anchor="middle" x="460" y="-92.8" font-family="Times,serif" font-size="14.00" fill="#000000">[0%]</text>
</g>
</g>
</svg>
