<?xml version="1.0" encoding="UTF-8" standalone="no"?>
<!DOCTYPE svg PUBLIC "-//W3C//DTD SVG 1.1//EN"
 "http://www.w3.org/Graphics/SVG/1.1/DTD/svg11.dtd">
<!-- Generated by graphviz version 2.40.1 (20161225.0304)
 -->
<!-- Title: hello.c.022t.nothrow Pages: 1 -->
<svg width="690pt" height="429pt"
 viewBox="0.00 0.00 690.00 429.00" xmlns="http://www.w3.org/2000/svg" xmlns:xlink="http://www.w3.org/1999/xlink">
<g id="graph0" class="graph" transform="scale(1 1) rotate(0) translate(4 425)">
<title>hello.c.022t.nothrow</title>
<polygon fill="#ffffff" stroke="transparent" points="-4,4 -4,-425 686,-425 686,4 -4,4"/>
<g id="clust1" class="cluster">
<title>cluster_printf</title>
<polygon fill="none" stroke="#000000" stroke-dasharray="5,2" points="8,-8 8,-413 486,-413 486,-8 8,-8"/>
<text text-anchor="middle" x="247" y="-397.8" font-family="Times,serif" font-size="14.00" fill="#000000">printf ()</text>
</g>
<g id="clust2" class="cluster">
<title>cluster_main</title>
<polygon fill="none" stroke="#000000" stroke-dasharray="5,2" points="494,-8 494,-413 674,-413 674,-8 494,-8"/>
<text text-anchor="middle" x="584" y="-397.8" font-family="Times,serif" font-size="14.00" fill="#000000">main ()</text>
</g>
<!-- fn_15_basic_block_0 -->
<g id="node1" class="node">
<title>fn_15_basic_block_0</title>
<polygon fill="#ffffff" stroke="#000000" points="257,-382 193.6562,-364 257,-346 320.3438,-364 257,-382"/>
<polyline fill="none" stroke="#000000" points="205.1992,-367.2801 205.1992,-360.7199 "/>
<polyline fill="none" stroke="#000000" points="245.457,-349.2801 268.543,-349.2801 "/>
<polyline fill="none" stroke="#000000" points="308.8008,-360.7199 308.8008,-367.2801 "/>
<polyline fill="none" stroke="#000000" points="268.543,-378.7199 245.457,-378.7199 "/>
<text text-anchor="middle" x="257" y="-360.3" font-family="Times,serif" font-size="14.00" fill="#000000">ENTRY</text>
</g>
<!-- fn_15_basic_block_1 -->
<g id="node2" class="node">
<title>fn_15_basic_block_1</title>
<polygon fill="#ffffff" stroke="#000000" points="257,-52 208.0684,-34 257,-16 305.9316,-34 257,-52"/>
<polyline fill="none" stroke="#000000" points="219.3305,-38.1429 219.3305,-29.8571 "/>
<polyline fill="none" stroke="#000000" points="245.7378,-20.1429 268.2622,-20.1429 "/>
<polyline fill="none" stroke="#000000" points="294.6695,-29.8571 294.6695,-38.1429 "/>
<polyline fill="none" stroke="#000000" points="268.2622,-47.8571 245.7378,-47.8571 "/>
<text text-anchor="middle" x="257" y="-30.3" font-family="Times,serif" font-size="14.00" fill="#000000">EXIT</text>
</g>
<!-- fn_15_basic_block_0&#45;&gt;fn_15_basic_block_1 -->
<!-- fn_15_basic_block_2 -->
<g id="node3" class="node">
<title>fn_15_basic_block_2</title>
<polygon fill="#d3d3d3" stroke="#000000" points="36,-153 36,-245 478,-245 478,-153 36,-153"/>
<text text-anchor="middle" x="257" y="-229.8" font-family="Times,serif" font-size="14.00" fill="#000000">FREQ:0</text>
<polyline fill="none" stroke="#000000" points="36,-222 478,-222 "/>
<text text-anchor="start" x="44" y="-206.8" font-family="Times,serif" font-size="14.00" fill="#000000">&lt;bb 2&gt;:</text>
<polyline fill="none" stroke="#000000" points="36,-199 478,-199 "/>
<text text-anchor="start" x="44" y="-183.8" font-family="Times,serif" font-size="14.00" fill="#000000">_4 = __printf_chk (1, __fmt_2(D), __builtin_va_arg_pack ());</text>
<polyline fill="none" stroke="#000000" points="36,-176 478,-176 "/>
<text text-anchor="start" x="44" y="-160.8" font-family="Times,serif" font-size="14.00" fill="#000000">return _4;</text>
</g>
<!-- fn_15_basic_block_0&#45;&gt;fn_15_basic_block_2 -->
<g id="edge1" class="edge">
<title>fn_15_basic_block_0:s&#45;&gt;fn_15_basic_block_2:n</title>
<path fill="none" stroke="#0000ff" stroke-width="2" d="M257,-346C257,-304.7934 257,-291.9566 257,-255.4044"/>
<polygon fill="#0000ff" stroke="#0000ff" stroke-width="2" points="260.5001,-255 257,-245 253.5001,-255 260.5001,-255"/>
<text text-anchor="middle" x="274" y="-297.8" font-family="Times,serif" font-size="14.00" fill="#000000">[0%]</text>
</g>
<!-- fn_15_basic_block_2&#45;&gt;fn_15_basic_block_1 -->
<g id="edge2" class="edge">
<title>fn_15_basic_block_2:s&#45;&gt;fn_15_basic_block_1:n</title>
<path fill="none" stroke="#000000" stroke-width="2" d="M257,-153C257,-111.7934 257,-98.9566 257,-62.4044"/>
<polygon fill="#000000" stroke="#000000" stroke-width="2" points="260.5001,-62 257,-52 253.5001,-62 260.5001,-62"/>
<text text-anchor="middle" x="274" y="-92.8" font-family="Times,serif" font-size="14.00" fill="#000000">[0%]</text>
</g>
<!-- fn_23_basic_block_0 -->
<g id="node4" class="node">
<title>fn_23_basic_block_0</title>
<polygon fill="#ffffff" stroke="#000000" points="594,-382 530.6562,-364 594,-346 657.3438,-364 594,-382"/>
<polyline fill="none" stroke="#000000" points="542.1992,-367.2801 542.1992,-360.7199 "/>
<polyline fill="none" stroke="#000000" points="582.457,-349.2801 605.543,-349.2801 "/>
<polyline fill="none" stroke="#000000" points="645.8008,-360.7199 645.8008,-367.2801 "/>
<polyline fill="none" stroke="#000000" points="605.543,-378.7199 582.457,-378.7199 "/>
<text text-anchor="middle" x="594" y="-360.3" font-family="Times,serif" font-size="14.00" fill="#000000">ENTRY</text>
</g>
<!-- fn_23_basic_block_1 -->
<g id="node5" class="node">
<title>fn_23_basic_block_1</title>
<polygon fill="#ffffff" stroke="#000000" points="594,-52 545.0684,-34 594,-16 642.9316,-34 594,-52"/>
<polyline fill="none" stroke="#000000" points="556.3305,-38.1429 556.3305,-29.8571 "/>
<polyline fill="none" stroke="#000000" points="582.7378,-20.1429 605.2622,-20.1429 "/>
<polyline fill="none" stroke="#000000" points="631.6695,-29.8571 631.6695,-38.1429 "/>
<polyline fill="none" stroke="#000000" points="605.2622,-47.8571 582.7378,-47.8571 "/>
<text text-anchor="middle" x="594" y="-30.3" font-family="Times,serif" font-size="14.00" fill="#000000">EXIT</text>
</g>
<!-- fn_23_basic_block_0&#45;&gt;fn_23_basic_block_1 -->
<!-- fn_23_basic_block_2 -->
<g id="node6" class="node">
<title>fn_23_basic_block_2</title>
<polygon fill="#d3d3d3" stroke="#000000" points="522.5,-141.5 522.5,-256.5 665.5,-256.5 665.5,-141.5 522.5,-141.5"/>
<text text-anchor="middle" x="594" y="-241.3" font-family="Times,serif" font-size="14.00" fill="#000000">FREQ:0</text>
<polyline fill="none" stroke="#000000" points="522.5,-233.5 665.5,-233.5 "/>
<text text-anchor="start" x="530.5" y="-218.3" font-family="Times,serif" font-size="14.00" fill="#000000">&lt;bb 2&gt;:</text>
<polyline fill="none" stroke="#000000" points="522.5,-210.5 665.5,-210.5 "/>
<text text-anchor="start" x="530.5" y="-195.3" font-family="Times,serif" font-size="14.00" fill="#000000">printf (&quot;hello.\n&quot;);</text>
<polyline fill="none" stroke="#000000" points="522.5,-187.5 665.5,-187.5 "/>
<text text-anchor="start" x="530.5" y="-172.3" font-family="Times,serif" font-size="14.00" fill="#000000">_3 = 0;</text>
<polyline fill="none" stroke="#000000" points="522.5,-164.5 665.5,-164.5 "/>
<text text-anchor="start" x="530.5" y="-149.3" font-family="Times,serif" font-size="14.00" fill="#000000">return _3;</text>
</g>
<!-- fn_23_basic_block_0&#45;&gt;fn_23_basic_block_2 -->
<g id="edge4" class="edge">
<title>fn_23_basic_block_0:s&#45;&gt;fn_23_basic_block_2:n</title>
<path fill="none" stroke="#0000ff" stroke-width="2" d="M594,-346C594,-310.1528 594,-298.6705 594,-267.3917"/>
<polygon fill="#0000ff" stroke="#0000ff" stroke-width="2" points="597.5001,-267 594,-257 590.5001,-267 597.5001,-267"/>
<text text-anchor="middle" x="611" y="-297.8" font-family="Times,serif" font-size="14.00" fill="#000000">[0%]</text>
</g>
<!-- fn_23_basic_block_2&#45;&gt;fn_23_basic_block_1 -->
<g id="edge5" class="edge">
<title>fn_23_basic_block_2:s&#45;&gt;fn_23_basic_block_1:n</title>
<path fill="none" stroke="#000000" stroke-width="2" d="M594,-141C594,-105.1528 594,-93.6705 594,-62.3917"/>
<polygon fill="#000000" stroke="#000000" stroke-width="2" points="597.5001,-62 594,-52 590.5001,-62 597.5001,-62"/>
<text text-anchor="middle" x="611" y="-92.8" font-family="Times,serif" font-size="14.00" fill="#000000">[0%]</text>
</g>
</g>
</svg>
