<?xml version="1.0" encoding="UTF-8" standalone="no"?>
<!DOCTYPE svg PUBLIC "-//W3C//DTD SVG 1.1//EN"
 "http://www.w3.org/Graphics/SVG/1.1/DTD/svg11.dtd">
<!-- Generated by graphviz version 2.40.1 (20161225.0304)
 -->
<!-- Title: misc.c.019t.fixup_cfg1 Pages: 1 -->
<svg width="726pt" height="1045pt"
 viewBox="0.00 0.00 726.00 1045.00" xmlns="http://www.w3.org/2000/svg" xmlns:xlink="http://www.w3.org/1999/xlink">
<g id="graph0" class="graph" transform="scale(1 1) rotate(0) translate(4 1041)">
<title>misc.c.019t.fixup_cfg1</title>
<polygon fill="#ffffff" stroke="transparent" points="-4,4 -4,-1041 722,-1041 722,4 -4,4"/>
<g id="clust1" class="cluster">
<title>cluster_randnum</title>
<polygon fill="none" stroke="#000000" stroke-dasharray="5,2" points="8,-8 8,-1029 248,-1029 248,-8 8,-8"/>
<text text-anchor="middle" x="128" y="-1013.8" font-family="Times,serif" font-size="14.00" fill="#000000">randnum ()</text>
</g>
<g id="clust2" class="cluster">
<title>cluster_randwc</title>
<polygon fill="none" stroke="#000000" stroke-dasharray="5,2" points="256,-550.5 256,-1029 456,-1029 456,-550.5 256,-550.5"/>
<text text-anchor="middle" x="356" y="-1013.8" font-family="Times,serif" font-size="14.00" fill="#000000">randwc ()</text>
</g>
<g id="clust3" class="cluster">
<title>cluster_abs_randwc</title>
<polygon fill="none" stroke="#000000" stroke-dasharray="5,2" points="464,-8 464,-1029 710,-1029 710,-8 464,-8"/>
<text text-anchor="middle" x="587" y="-1013.8" font-family="Times,serif" font-size="14.00" fill="#000000">abs_randwc ()</text>
</g>
<!-- fn_25_basic_block_0 -->
<g id="node1" class="node">
<title>fn_25_basic_block_0</title>
<polygon fill="#ffffff" stroke="#000000" points="127,-998 63.6562,-980 127,-962 190.3438,-980 127,-998"/>
<polyline fill="none" stroke="#000000" points="75.1992,-983.2801 75.1992,-976.7199 "/>
<polyline fill="none" stroke="#000000" points="115.457,-965.2801 138.543,-965.2801 "/>
<polyline fill="none" stroke="#000000" points="178.8008,-976.7199 178.8008,-983.2801 "/>
<polyline fill="none" stroke="#000000" points="138.543,-994.7199 115.457,-994.7199 "/>
<text text-anchor="middle" x="127" y="-976.3" font-family="Times,serif" font-size="14.00" fill="#000000">ENTRY</text>
</g>
<!-- fn_25_basic_block_1 -->
<g id="node2" class="node">
<title>fn_25_basic_block_1</title>
<polygon fill="#ffffff" stroke="#000000" points="128,-52 79.0684,-34 128,-16 176.9316,-34 128,-52"/>
<polyline fill="none" stroke="#000000" points="90.3305,-38.1429 90.3305,-29.8571 "/>
<polyline fill="none" stroke="#000000" points="116.7378,-20.1429 139.2622,-20.1429 "/>
<polyline fill="none" stroke="#000000" points="165.6695,-29.8571 165.6695,-38.1429 "/>
<polyline fill="none" stroke="#000000" points="139.2622,-47.8571 116.7378,-47.8571 "/>
<text text-anchor="middle" x="128" y="-30.3" font-family="Times,serif" font-size="14.00" fill="#000000">EXIT</text>
</g>
<!-- fn_25_basic_block_0&#45;&gt;fn_25_basic_block_1 -->
<!-- fn_25_basic_block_2 -->
<g id="node3" class="node">
<title>fn_25_basic_block_2</title>
<polygon fill="#d3d3d3" stroke="#000000" points="36,-735.5 36,-849.5 218,-849.5 218,-735.5 36,-735.5"/>
<text text-anchor="middle" x="127" y="-834.3" font-family="Times,serif" font-size="14.00" fill="#000000">FREQ:0</text>
<polyline fill="none" stroke="#000000" points="36,-826.5 218,-826.5 "/>
<text text-anchor="start" x="44" y="-811.3" font-family="Times,serif" font-size="14.00" fill="#000000">&lt;bb 2&gt;:</text>
<polyline fill="none" stroke="#000000" points="36,-803.5 218,-803.5 "/>
<text text-anchor="start" x="44" y="-788.3" font-family="Times,serif" font-size="14.00" fill="#000000">if (lngval != 0)</text>
<text text-anchor="start" x="44" y="-773.3" font-family="Times,serif" font-size="14.00" fill="#000000"> &#160;goto &lt;bb 3&gt;; [0.00%]</text>
<text text-anchor="start" x="44" y="-758.3" font-family="Times,serif" font-size="14.00" fill="#000000">else</text>
<text text-anchor="start" x="44" y="-743.3" font-family="Times,serif" font-size="14.00" fill="#000000"> &#160;goto &lt;bb 4&gt;; [0.00%]</text>
</g>
<!-- fn_25_basic_block_0&#45;&gt;fn_25_basic_block_2 -->
<g id="edge1" class="edge">
<title>fn_25_basic_block_0:s&#45;&gt;fn_25_basic_block_2:n</title>
<path fill="none" stroke="#0000ff" stroke-width="2" d="M127,-962C127,-915.5156 127,-901.4432 127,-859.5168"/>
<polygon fill="#0000ff" stroke="#0000ff" stroke-width="2" points="130.5001,-859.5 127,-849.5 123.5001,-859.5 130.5001,-859.5"/>
<text text-anchor="middle" x="144" y="-913.8" font-family="Times,serif" font-size="14.00" fill="#000000">[0%]</text>
</g>
<!-- fn_25_basic_block_3 -->
<g id="node4" class="node">
<title>fn_25_basic_block_3</title>
<polygon fill="#d3d3d3" stroke="#000000" points="36,-530.5 36,-622.5 170,-622.5 170,-530.5 36,-530.5"/>
<text text-anchor="middle" x="103" y="-607.3" font-family="Times,serif" font-size="14.00" fill="#000000">FREQ:0</text>
<polyline fill="none" stroke="#000000" points="36,-599.5 170,-599.5 "/>
<text text-anchor="start" x="44" y="-584.3" font-family="Times,serif" font-size="14.00" fill="#000000">&lt;bb 3&gt;:</text>
<polyline fill="none" stroke="#000000" points="36,-576.5 170,-576.5 "/>
<text text-anchor="start" x="44" y="-561.3" font-family="Times,serif" font-size="14.00" fill="#000000">randw[0] = 13;</text>
<polyline fill="none" stroke="#000000" points="36,-553.5 170,-553.5 "/>
<text text-anchor="start" x="44" y="-538.3" font-family="Times,serif" font-size="14.00" fill="#000000">randw[1] = 117;</text>
</g>
<!-- fn_25_basic_block_2&#45;&gt;fn_25_basic_block_3 -->
<g id="edge2" class="edge">
<title>fn_25_basic_block_2:s&#45;&gt;fn_25_basic_block_3:n</title>
<path fill="none" stroke="#000000" stroke-width="2" d="M127,-735.5C127,-687.7675 106.2563,-675.4959 103.3393,-632.7501"/>
<polygon fill="#000000" stroke="#000000" stroke-width="2" points="106.829,-632.3787 103,-622.5 99.8328,-632.6103 106.829,-632.3787"/>
<text text-anchor="middle" x="130" y="-663.8" font-family="Times,serif" font-size="14.00" fill="#000000">[0%]</text>
</g>
<!-- fn_25_basic_block_4 -->
<g id="node5" class="node">
<title>fn_25_basic_block_4</title>
<polygon fill="#d3d3d3" stroke="#000000" points="36.5,-141.5 36.5,-440.5 219.5,-440.5 219.5,-141.5 36.5,-141.5"/>
<text text-anchor="middle" x="128" y="-425.3" font-family="Times,serif" font-size="14.00" fill="#000000">FREQ:0</text>
<polyline fill="none" stroke="#000000" points="36.5,-417.5 219.5,-417.5 "/>
<text text-anchor="start" x="44.5" y="-402.3" font-family="Times,serif" font-size="14.00" fill="#000000">&lt;bb 4&gt;:</text>
<polyline fill="none" stroke="#000000" points="36.5,-394.5 219.5,-394.5 "/>
<text text-anchor="start" x="44.5" y="-379.3" font-family="Times,serif" font-size="14.00" fill="#000000">_1 = randw[0];</text>
<polyline fill="none" stroke="#000000" points="36.5,-371.5 219.5,-371.5 "/>
<text text-anchor="start" x="44.5" y="-356.3" font-family="Times,serif" font-size="14.00" fill="#000000">_2 = _1 * 254754;</text>
<polyline fill="none" stroke="#000000" points="36.5,-348.5 219.5,-348.5 "/>
<text text-anchor="start" x="44.5" y="-333.3" font-family="Times,serif" font-size="14.00" fill="#000000">_3 = randw[1];</text>
<polyline fill="none" stroke="#000000" points="36.5,-325.5 219.5,-325.5 "/>
<text text-anchor="start" x="44.5" y="-310.3" font-family="Times,serif" font-size="14.00" fill="#000000">_4 = _3 * 529562;</text>
<polyline fill="none" stroke="#000000" points="36.5,-302.5 219.5,-302.5 "/>
<text text-anchor="start" x="44.5" y="-287.3" font-family="Times,serif" font-size="14.00" fill="#000000">_5 = _2 + _4;</text>
<polyline fill="none" stroke="#000000" points="36.5,-279.5 219.5,-279.5 "/>
<text text-anchor="start" x="44.5" y="-264.3" font-family="Times,serif" font-size="14.00" fill="#000000">interm = _5 % 999563;</text>
<polyline fill="none" stroke="#000000" points="36.5,-256.5 219.5,-256.5 "/>
<text text-anchor="start" x="44.5" y="-241.3" font-family="Times,serif" font-size="14.00" fill="#000000">_6 = randw[0];</text>
<polyline fill="none" stroke="#000000" points="36.5,-233.5 219.5,-233.5 "/>
<text text-anchor="start" x="44.5" y="-218.3" font-family="Times,serif" font-size="14.00" fill="#000000">randw[1] = _6;</text>
<polyline fill="none" stroke="#000000" points="36.5,-210.5 219.5,-210.5 "/>
<text text-anchor="start" x="44.5" y="-195.3" font-family="Times,serif" font-size="14.00" fill="#000000">randw[0] = interm;</text>
<polyline fill="none" stroke="#000000" points="36.5,-187.5 219.5,-187.5 "/>
<text text-anchor="start" x="44.5" y="-172.3" font-family="Times,serif" font-size="14.00" fill="#000000">D.2540 = interm;</text>
<polyline fill="none" stroke="#000000" points="36.5,-164.5 219.5,-164.5 "/>
<text text-anchor="start" x="44.5" y="-149.3" font-family="Times,serif" font-size="14.00" fill="#000000">return D.2540;</text>
</g>
<!-- fn_25_basic_block_2&#45;&gt;fn_25_basic_block_4 -->
<g id="edge3" class="edge">
<title>fn_25_basic_block_2:s&#45;&gt;fn_25_basic_block_4:n</title>
<path fill="none" stroke="#000000" stroke-width="2" d="M127,-735.5C127,-689.1732 206,-713.8268 206,-667.5 206,-667.5 206,-667.5 206,-485.5 206,-449.6419 143.0392,-474.5126 130.2503,-450.9901"/>
<polygon fill="#000000" stroke="#000000" stroke-width="2" points="133.612,-449.9864 128,-441 126.7831,-451.5247 133.612,-449.9864"/>
<text text-anchor="middle" x="223" y="-572.8" font-family="Times,serif" font-size="14.00" fill="#000000">[0%]</text>
</g>
<!-- fn_25_basic_block_3&#45;&gt;fn_25_basic_block_4 -->
<g id="edge4" class="edge">
<title>fn_25_basic_block_3:s&#45;&gt;fn_25_basic_block_4:n</title>
<path fill="none" stroke="#0000ff" stroke-width="2" d="M103,-530.5C103,-492.9101 123.7096,-483.8178 127.4309,-451.3486"/>
<polygon fill="#0000ff" stroke="#0000ff" stroke-width="2" points="130.9455,-451.1771 128,-441 123.9561,-450.7927 130.9455,-451.1771"/>
<text text-anchor="middle" x="136" y="-481.8" font-family="Times,serif" font-size="14.00" fill="#000000">[0%]</text>
</g>
<!-- fn_25_basic_block_4&#45;&gt;fn_25_basic_block_1 -->
<g id="edge5" class="edge">
<title>fn_25_basic_block_4:s&#45;&gt;fn_25_basic_block_1:n</title>
<path fill="none" stroke="#000000" stroke-width="2" d="M128,-141C128,-105.1528 128,-93.6705 128,-62.3917"/>
<polygon fill="#000000" stroke="#000000" stroke-width="2" points="131.5001,-62 128,-52 124.5001,-62 131.5001,-62"/>
<text text-anchor="middle" x="145" y="-92.8" font-family="Times,serif" font-size="14.00" fill="#000000">[0%]</text>
</g>
<!-- fn_23_basic_block_0 -->
<g id="node6" class="node">
<title>fn_23_basic_block_0</title>
<polygon fill="#ffffff" stroke="#000000" points="366,-998 302.6562,-980 366,-962 429.3438,-980 366,-998"/>
<polyline fill="none" stroke="#000000" points="314.1992,-983.2801 314.1992,-976.7199 "/>
<polyline fill="none" stroke="#000000" points="354.457,-965.2801 377.543,-965.2801 "/>
<polyline fill="none" stroke="#000000" points="417.8008,-976.7199 417.8008,-983.2801 "/>
<polyline fill="none" stroke="#000000" points="377.543,-994.7199 354.457,-994.7199 "/>
<text text-anchor="middle" x="366" y="-976.3" font-family="Times,serif" font-size="14.00" fill="#000000">ENTRY</text>
</g>
<!-- fn_23_basic_block_1 -->
<g id="node7" class="node">
<title>fn_23_basic_block_1</title>
<polygon fill="#ffffff" stroke="#000000" points="366,-594.5 317.0684,-576.5 366,-558.5 414.9316,-576.5 366,-594.5"/>
<polyline fill="none" stroke="#000000" points="328.3305,-580.6429 328.3305,-572.3571 "/>
<polyline fill="none" stroke="#000000" points="354.7378,-562.6429 377.2622,-562.6429 "/>
<polyline fill="none" stroke="#000000" points="403.6695,-572.3571 403.6695,-580.6429 "/>
<polyline fill="none" stroke="#000000" points="377.2622,-590.3571 354.7378,-590.3571 "/>
<text text-anchor="middle" x="366" y="-572.8" font-family="Times,serif" font-size="14.00" fill="#000000">EXIT</text>
</g>
<!-- fn_23_basic_block_0&#45;&gt;fn_23_basic_block_1 -->
<!-- fn_23_basic_block_2 -->
<g id="node8" class="node">
<title>fn_23_basic_block_2</title>
<polygon fill="#d3d3d3" stroke="#000000" points="284,-735 284,-850 448,-850 448,-735 284,-735"/>
<text text-anchor="middle" x="366" y="-834.8" font-family="Times,serif" font-size="14.00" fill="#000000">FREQ:0</text>
<polyline fill="none" stroke="#000000" points="284,-827 448,-827 "/>
<text text-anchor="start" x="292" y="-811.8" font-family="Times,serif" font-size="14.00" fill="#000000">&lt;bb 2&gt;:</text>
<polyline fill="none" stroke="#000000" points="284,-804 448,-804 "/>
<text text-anchor="start" x="292" y="-788.8" font-family="Times,serif" font-size="14.00" fill="#000000">_1 = randnum (0);</text>
<polyline fill="none" stroke="#000000" points="284,-781 448,-781 "/>
<text text-anchor="start" x="292" y="-765.8" font-family="Times,serif" font-size="14.00" fill="#000000">D.2532 = _1 % num;</text>
<polyline fill="none" stroke="#000000" points="284,-758 448,-758 "/>
<text text-anchor="start" x="292" y="-742.8" font-family="Times,serif" font-size="14.00" fill="#000000">return D.2532;</text>
</g>
<!-- fn_23_basic_block_0&#45;&gt;fn_23_basic_block_2 -->
<g id="edge7" class="edge">
<title>fn_23_basic_block_0:s&#45;&gt;fn_23_basic_block_2:n</title>
<path fill="none" stroke="#0000ff" stroke-width="2" d="M366,-962C366,-916.0256 366,-902.0402 366,-860.6893"/>
<polygon fill="#0000ff" stroke="#0000ff" stroke-width="2" points="369.5001,-860.5 366,-850.5 362.5001,-860.5 369.5001,-860.5"/>
<text text-anchor="middle" x="383" y="-913.8" font-family="Times,serif" font-size="14.00" fill="#000000">[0%]</text>
</g>
<!-- fn_23_basic_block_2&#45;&gt;fn_23_basic_block_1 -->
<g id="edge8" class="edge">
<title>fn_23_basic_block_2:s&#45;&gt;fn_23_basic_block_1:n</title>
<path fill="none" stroke="#000000" stroke-width="2" d="M366,-734.5C366,-675.8021 366,-658.6341 366,-604.6407"/>
<polygon fill="#000000" stroke="#000000" stroke-width="2" points="369.5001,-604.5 366,-594.5 362.5001,-604.5 369.5001,-604.5"/>
<text text-anchor="middle" x="383" y="-663.8" font-family="Times,serif" font-size="14.00" fill="#000000">[0%]</text>
</g>
<!-- fn_24_basic_block_0 -->
<g id="node9" class="node">
<title>fn_24_basic_block_0</title>
<polygon fill="#ffffff" stroke="#000000" points="597,-998 533.6562,-980 597,-962 660.3438,-980 597,-998"/>
<polyline fill="none" stroke="#000000" points="545.1992,-983.2801 545.1992,-976.7199 "/>
<polyline fill="none" stroke="#000000" points="585.457,-965.2801 608.543,-965.2801 "/>
<polyline fill="none" stroke="#000000" points="648.8008,-976.7199 648.8008,-983.2801 "/>
<polyline fill="none" stroke="#000000" points="608.543,-994.7199 585.457,-994.7199 "/>
<text text-anchor="middle" x="597" y="-976.3" font-family="Times,serif" font-size="14.00" fill="#000000">ENTRY</text>
</g>
<!-- fn_24_basic_block_1 -->
<g id="node10" class="node">
<title>fn_24_basic_block_1</title>
<polygon fill="#ffffff" stroke="#000000" points="578,-52 529.0684,-34 578,-16 626.9316,-34 578,-52"/>
<polyline fill="none" stroke="#000000" points="540.3305,-38.1429 540.3305,-29.8571 "/>
<polyline fill="none" stroke="#000000" points="566.7378,-20.1429 589.2622,-20.1429 "/>
<polyline fill="none" stroke="#000000" points="615.6695,-29.8571 615.6695,-38.1429 "/>
<polyline fill="none" stroke="#000000" points="589.2622,-47.8571 566.7378,-47.8571 "/>
<text text-anchor="middle" x="578" y="-30.3" font-family="Times,serif" font-size="14.00" fill="#000000">EXIT</text>
</g>
<!-- fn_24_basic_block_0&#45;&gt;fn_24_basic_block_1 -->
<!-- fn_24_basic_block_2 -->
<g id="node11" class="node">
<title>fn_24_basic_block_2</title>
<polygon fill="#d3d3d3" stroke="#000000" points="492.5,-712.5 492.5,-872.5 701.5,-872.5 701.5,-712.5 492.5,-712.5"/>
<text text-anchor="middle" x="597" y="-857.3" font-family="Times,serif" font-size="14.00" fill="#000000">FREQ:0</text>
<polyline fill="none" stroke="#000000" points="492.5,-849.5 701.5,-849.5 "/>
<text text-anchor="start" x="500.5" y="-834.3" font-family="Times,serif" font-size="14.00" fill="#000000">&lt;bb 2&gt;:</text>
<polyline fill="none" stroke="#000000" points="492.5,-826.5 701.5,-826.5 "/>
<text text-anchor="start" x="500.5" y="-811.3" font-family="Times,serif" font-size="14.00" fill="#000000">num.0_1 = (int) num;</text>
<polyline fill="none" stroke="#000000" points="492.5,-803.5 701.5,-803.5 "/>
<text text-anchor="start" x="500.5" y="-788.3" font-family="Times,serif" font-size="14.00" fill="#000000">temp = randwc (num.0_1);</text>
<polyline fill="none" stroke="#000000" points="492.5,-780.5 701.5,-780.5 "/>
<text text-anchor="start" x="500.5" y="-765.3" font-family="Times,serif" font-size="14.00" fill="#000000">if (temp &lt; 0)</text>
<text text-anchor="start" x="500.5" y="-750.3" font-family="Times,serif" font-size="14.00" fill="#000000"> &#160;goto &lt;bb 3&gt;; [0.00%]</text>
<text text-anchor="start" x="500.5" y="-735.3" font-family="Times,serif" font-size="14.00" fill="#000000">else</text>
<text text-anchor="start" x="500.5" y="-720.3" font-family="Times,serif" font-size="14.00" fill="#000000"> &#160;goto &lt;bb 4&gt;; [0.00%]</text>
</g>
<!-- fn_24_basic_block_0&#45;&gt;fn_24_basic_block_2 -->
<g id="edge10" class="edge">
<title>fn_24_basic_block_0:s&#45;&gt;fn_24_basic_block_2:n</title>
<path fill="none" stroke="#0000ff" stroke-width="2" d="M597,-962C597,-925.796 597,-914.3055 597,-882.5422"/>
<polygon fill="#0000ff" stroke="#0000ff" stroke-width="2" points="600.5001,-882.5 597,-872.5 593.5001,-882.5 600.5001,-882.5"/>
<text text-anchor="middle" x="614" y="-913.8" font-family="Times,serif" font-size="14.00" fill="#000000">[0%]</text>
</g>
<!-- fn_24_basic_block_3 -->
<g id="node12" class="node">
<title>fn_24_basic_block_3</title>
<polygon fill="#d3d3d3" stroke="#000000" points="512,-542 512,-611 632,-611 632,-542 512,-542"/>
<text text-anchor="middle" x="572" y="-595.8" font-family="Times,serif" font-size="14.00" fill="#000000">FREQ:0</text>
<polyline fill="none" stroke="#000000" points="512,-588 632,-588 "/>
<text text-anchor="start" x="520" y="-572.8" font-family="Times,serif" font-size="14.00" fill="#000000">&lt;bb 3&gt;:</text>
<polyline fill="none" stroke="#000000" points="512,-565 632,-565 "/>
<text text-anchor="start" x="520" y="-549.8" font-family="Times,serif" font-size="14.00" fill="#000000">temp = &#45;temp;</text>
</g>
<!-- fn_24_basic_block_2&#45;&gt;fn_24_basic_block_3 -->
<g id="edge11" class="edge">
<title>fn_24_basic_block_2:s&#45;&gt;fn_24_basic_block_3:n</title>
<path fill="none" stroke="#000000" stroke-width="2" d="M597,-712.5C597,-669.8692 575.7537,-659.304 572.4339,-621.6835"/>
<polygon fill="#000000" stroke="#000000" stroke-width="2" points="575.9226,-621.3419 572,-611.5 568.929,-621.64 575.9226,-621.3419"/>
<text text-anchor="middle" x="606" y="-663.8" font-family="Times,serif" font-size="14.00" fill="#000000">[0%]</text>
</g>
<!-- fn_24_basic_block_4 -->
<g id="node13" class="node">
<title>fn_24_basic_block_4</title>
<polygon fill="#d3d3d3" stroke="#000000" points="492,-245 492,-337 664,-337 664,-245 492,-245"/>
<text text-anchor="middle" x="578" y="-321.8" font-family="Times,serif" font-size="14.00" fill="#000000">FREQ:0</text>
<polyline fill="none" stroke="#000000" points="492,-314 664,-314 "/>
<text text-anchor="start" x="500" y="-298.8" font-family="Times,serif" font-size="14.00" fill="#000000">&lt;bb 4&gt;:</text>
<polyline fill="none" stroke="#000000" points="492,-291 664,-291 "/>
<text text-anchor="start" x="500" y="-275.8" font-family="Times,serif" font-size="14.00" fill="#000000">D.2536 = (u32) temp;</text>
<polyline fill="none" stroke="#000000" points="492,-268 664,-268 "/>
<text text-anchor="start" x="500" y="-252.8" font-family="Times,serif" font-size="14.00" fill="#000000">return D.2536;</text>
</g>
<!-- fn_24_basic_block_2&#45;&gt;fn_24_basic_block_4 -->
<g id="edge12" class="edge">
<title>fn_24_basic_block_2:s&#45;&gt;fn_24_basic_block_4:n</title>
<path fill="none" stroke="#000000" stroke-width="2" d="M597,-712.5C597,-675.1402 668,-704.8598 668,-667.5 668,-667.5 668,-667.5 668,-485.5 668,-411.9425 586.2397,-413.8091 578.5747,-347.3226"/>
<polygon fill="#000000" stroke="#000000" stroke-width="2" points="582.0506,-346.7899 578,-337 575.0614,-347.1791 582.0506,-346.7899"/>
<text text-anchor="middle" x="685" y="-572.8" font-family="Times,serif" font-size="14.00" fill="#000000">[0%]</text>
</g>
<!-- fn_24_basic_block_3&#45;&gt;fn_24_basic_block_4 -->
<g id="edge13" class="edge">
<title>fn_24_basic_block_3:s&#45;&gt;fn_24_basic_block_4:n</title>
<path fill="none" stroke="#0000ff" stroke-width="2" d="M572,-541.5C572,-454.0351 577.5517,-429.7519 577.9746,-347.0996"/>
<polygon fill="#0000ff" stroke="#0000ff" stroke-width="2" points="581.4747,-347.0088 578,-337 574.4747,-346.9911 581.4747,-347.0088"/>
<text text-anchor="middle" x="590" y="-481.8" font-family="Times,serif" font-size="14.00" fill="#000000">[0%]</text>
</g>
<!-- fn_24_basic_block_4&#45;&gt;fn_24_basic_block_1 -->
<g id="edge14" class="edge">
<title>fn_24_basic_block_4:s&#45;&gt;fn_24_basic_block_1:n</title>
<path fill="none" stroke="#000000" stroke-width="2" d="M578,-245C578,-162.7405 578,-139.6451 578,-62.2389"/>
<polygon fill="#000000" stroke="#000000" stroke-width="2" points="581.5001,-62 578,-52 574.5001,-62 581.5001,-62"/>
<text text-anchor="middle" x="595" y="-92.8" font-family="Times,serif" font-size="14.00" fill="#000000">[0%]</text>
</g>
</g>
</svg>
