<?xml version="1.0" encoding="UTF-8" standalone="no"?>
<!DOCTYPE svg PUBLIC "-//W3C//DTD SVG 1.1//EN"
 "http://www.w3.org/Graphics/SVG/1.1/DTD/svg11.dtd">
<!-- Generated by graphviz version 2.40.1 (20161225.0304)
 -->
<!-- Title: misc.c.028t.inline_param1 Pages: 1 -->
<svg width="844pt" height="1045pt"
 viewBox="0.00 0.00 844.00 1045.00" xmlns="http://www.w3.org/2000/svg" xmlns:xlink="http://www.w3.org/1999/xlink">
<g id="graph0" class="graph" transform="scale(1 1) rotate(0) translate(4 1041)">
<title>misc.c.028t.inline_param1</title>
<polygon fill="#ffffff" stroke="transparent" points="-4,4 -4,-1041 840,-1041 840,4 -4,4"/>
<g id="clust1" class="cluster">
<title>cluster_randnum</title>
<polygon fill="none" stroke="#000000" stroke-dasharray="5,2" points="8,-8 8,-1029 254,-1029 254,-8 8,-8"/>
<text text-anchor="middle" x="131" y="-1013.8" font-family="Times,serif" font-size="14.00" fill="#000000">randnum ()</text>
</g>
<g id="clust2" class="cluster">
<title>cluster_randwc</title>
<polygon fill="none" stroke="#000000" stroke-dasharray="5,2" points="262,-550.5 262,-1029 464,-1029 464,-550.5 262,-550.5"/>
<text text-anchor="middle" x="363" y="-1013.8" font-family="Times,serif" font-size="14.00" fill="#000000">randwc ()</text>
</g>
<g id="clust3" class="cluster">
<title>cluster_abs_randwc</title>
<polygon fill="none" stroke="#000000" stroke-dasharray="5,2" points="472,-8 472,-1029 828,-1029 828,-8 472,-8"/>
<text text-anchor="middle" x="650" y="-1013.8" font-family="Times,serif" font-size="14.00" fill="#000000">abs_randwc ()</text>
</g>
<!-- fn_25_basic_block_0 -->
<g id="node1" class="node">
<title>fn_25_basic_block_0</title>
<polygon fill="#ffffff" stroke="#000000" points="127,-998 63.6562,-980 127,-962 190.3438,-980 127,-998"/>
<polyline fill="none" stroke="#000000" points="75.1992,-983.2801 75.1992,-976.7199 "/>
<polyline fill="none" stroke="#000000" points="115.457,-965.2801 138.543,-965.2801 "/>
<polyline fill="none" stroke="#000000" points="178.8008,-976.7199 178.8008,-983.2801 "/>
<polyline fill="none" stroke="#000000" points="138.543,-994.7199 115.457,-994.7199 "/>
<text text-anchor="middle" x="127" y="-976.3" font-family="Times,serif" font-size="14.00" fill="#000000">ENTRY</text>
</g>
<!-- fn_25_basic_block_1 -->
<g id="node2" class="node">
<title>fn_25_basic_block_1</title>
<polygon fill="#ffffff" stroke="#000000" points="141,-52 92.0684,-34 141,-16 189.9316,-34 141,-52"/>
<polyline fill="none" stroke="#000000" points="103.3305,-38.1429 103.3305,-29.8571 "/>
<polyline fill="none" stroke="#000000" points="129.7378,-20.1429 152.2622,-20.1429 "/>
<polyline fill="none" stroke="#000000" points="178.6695,-29.8571 178.6695,-38.1429 "/>
<polyline fill="none" stroke="#000000" points="152.2622,-47.8571 129.7378,-47.8571 "/>
<text text-anchor="middle" x="141" y="-30.3" font-family="Times,serif" font-size="14.00" fill="#000000">EXIT</text>
</g>
<!-- fn_25_basic_block_0&#45;&gt;fn_25_basic_block_1 -->
<!-- fn_25_basic_block_2 -->
<g id="node3" class="node">
<title>fn_25_basic_block_2</title>
<polygon fill="#d3d3d3" stroke="#000000" points="36,-735.5 36,-849.5 218,-849.5 218,-735.5 36,-735.5"/>
<text text-anchor="middle" x="127" y="-834.3" font-family="Times,serif" font-size="14.00" fill="#000000">FREQ:0</text>
<polyline fill="none" stroke="#000000" points="36,-826.5 218,-826.5 "/>
<text text-anchor="start" x="44" y="-811.3" font-family="Times,serif" font-size="14.00" fill="#000000">&lt;bb 2&gt;:</text>
<polyline fill="none" stroke="#000000" points="36,-803.5 218,-803.5 "/>
<text text-anchor="start" x="44" y="-788.3" font-family="Times,serif" font-size="14.00" fill="#000000">if (lngval_8(D) != 0)</text>
<text text-anchor="start" x="44" y="-773.3" font-family="Times,serif" font-size="14.00" fill="#000000"> &#160;goto &lt;bb 3&gt;; [0.00%]</text>
<text text-anchor="start" x="44" y="-758.3" font-family="Times,serif" font-size="14.00" fill="#000000">else</text>
<text text-anchor="start" x="44" y="-743.3" font-family="Times,serif" font-size="14.00" fill="#000000"> &#160;goto &lt;bb 4&gt;; [0.00%]</text>
</g>
<!-- fn_25_basic_block_0&#45;&gt;fn_25_basic_block_2 -->
<g id="edge1" class="edge">
<title>fn_25_basic_block_0:s&#45;&gt;fn_25_basic_block_2:n</title>
<path fill="none" stroke="#0000ff" stroke-width="2" d="M127,-962C127,-915.5156 127,-901.4432 127,-859.5168"/>
<polygon fill="#0000ff" stroke="#0000ff" stroke-width="2" points="130.5001,-859.5 127,-849.5 123.5001,-859.5 130.5001,-859.5"/>
<text text-anchor="middle" x="144" y="-913.8" font-family="Times,serif" font-size="14.00" fill="#000000">[0%]</text>
</g>
<!-- fn_25_basic_block_3 -->
<g id="node4" class="node">
<title>fn_25_basic_block_3</title>
<polygon fill="#d3d3d3" stroke="#000000" points="42,-530.5 42,-622.5 176,-622.5 176,-530.5 42,-530.5"/>
<text text-anchor="middle" x="109" y="-607.3" font-family="Times,serif" font-size="14.00" fill="#000000">FREQ:0</text>
<polyline fill="none" stroke="#000000" points="42,-599.5 176,-599.5 "/>
<text text-anchor="start" x="50" y="-584.3" font-family="Times,serif" font-size="14.00" fill="#000000">&lt;bb 3&gt;:</text>
<polyline fill="none" stroke="#000000" points="42,-576.5 176,-576.5 "/>
<text text-anchor="start" x="50" y="-561.3" font-family="Times,serif" font-size="14.00" fill="#000000">randw[0] = 13;</text>
<polyline fill="none" stroke="#000000" points="42,-553.5 176,-553.5 "/>
<text text-anchor="start" x="50" y="-538.3" font-family="Times,serif" font-size="14.00" fill="#000000">randw[1] = 117;</text>
</g>
<!-- fn_25_basic_block_2&#45;&gt;fn_25_basic_block_3 -->
<g id="edge2" class="edge">
<title>fn_25_basic_block_2:s&#45;&gt;fn_25_basic_block_3:n</title>
<path fill="none" stroke="#000000" stroke-width="2" d="M127,-735.5C127,-688.2204 111.4423,-675.1386 109.2545,-632.668"/>
<polygon fill="#000000" stroke="#000000" stroke-width="2" points="112.7492,-632.4093 109,-622.5 105.7514,-632.5845 112.7492,-632.4093"/>
<text text-anchor="middle" x="133" y="-663.8" font-family="Times,serif" font-size="14.00" fill="#000000">[0%]</text>
</g>
<!-- fn_25_basic_block_4 -->
<g id="node5" class="node">
<title>fn_25_basic_block_4</title>
<polygon fill="#d3d3d3" stroke="#000000" points="36.5,-141.5 36.5,-440.5 245.5,-440.5 245.5,-141.5 36.5,-141.5"/>
<text text-anchor="middle" x="141" y="-425.3" font-family="Times,serif" font-size="14.00" fill="#000000">FREQ:0</text>
<polyline fill="none" stroke="#000000" points="36.5,-417.5 245.5,-417.5 "/>
<text text-anchor="start" x="44.5" y="-402.3" font-family="Times,serif" font-size="14.00" fill="#000000">&lt;bb 4&gt;:</text>
<polyline fill="none" stroke="#000000" points="36.5,-394.5 245.5,-394.5 "/>
<text text-anchor="start" x="44.5" y="-379.3" font-family="Times,serif" font-size="14.00" fill="#000000">_1 = randw[0];</text>
<polyline fill="none" stroke="#000000" points="36.5,-371.5 245.5,-371.5 "/>
<text text-anchor="start" x="44.5" y="-356.3" font-family="Times,serif" font-size="14.00" fill="#000000">_2 = _1 * 254754;</text>
<polyline fill="none" stroke="#000000" points="36.5,-348.5 245.5,-348.5 "/>
<text text-anchor="start" x="44.5" y="-333.3" font-family="Times,serif" font-size="14.00" fill="#000000">_3 = randw[1];</text>
<polyline fill="none" stroke="#000000" points="36.5,-325.5 245.5,-325.5 "/>
<text text-anchor="start" x="44.5" y="-310.3" font-family="Times,serif" font-size="14.00" fill="#000000">_4 = _3 * 529562;</text>
<polyline fill="none" stroke="#000000" points="36.5,-302.5 245.5,-302.5 "/>
<text text-anchor="start" x="44.5" y="-287.3" font-family="Times,serif" font-size="14.00" fill="#000000">_5 = _2 + _4;</text>
<polyline fill="none" stroke="#000000" points="36.5,-279.5 245.5,-279.5 "/>
<text text-anchor="start" x="44.5" y="-264.3" font-family="Times,serif" font-size="14.00" fill="#000000">interm_12 = _5 % 999563;</text>
<polyline fill="none" stroke="#000000" points="36.5,-256.5 245.5,-256.5 "/>
<text text-anchor="start" x="44.5" y="-241.3" font-family="Times,serif" font-size="14.00" fill="#000000">_6 = randw[0];</text>
<polyline fill="none" stroke="#000000" points="36.5,-233.5 245.5,-233.5 "/>
<text text-anchor="start" x="44.5" y="-218.3" font-family="Times,serif" font-size="14.00" fill="#000000">randw[1] = _6;</text>
<polyline fill="none" stroke="#000000" points="36.5,-210.5 245.5,-210.5 "/>
<text text-anchor="start" x="44.5" y="-195.3" font-family="Times,serif" font-size="14.00" fill="#000000">randw[0] = interm_12;</text>
<polyline fill="none" stroke="#000000" points="36.5,-187.5 245.5,-187.5 "/>
<text text-anchor="start" x="44.5" y="-172.3" font-family="Times,serif" font-size="14.00" fill="#000000">_15 = interm_12;</text>
<polyline fill="none" stroke="#000000" points="36.5,-164.5 245.5,-164.5 "/>
<text text-anchor="start" x="44.5" y="-149.3" font-family="Times,serif" font-size="14.00" fill="#000000">return _15;</text>
</g>
<!-- fn_25_basic_block_2&#45;&gt;fn_25_basic_block_4 -->
<g id="edge3" class="edge">
<title>fn_25_basic_block_2:s&#45;&gt;fn_25_basic_block_4:n</title>
<path fill="none" stroke="#000000" stroke-width="2" d="M127,-735.5C127,-687.1208 212,-715.8792 212,-667.5 212,-667.5 212,-667.5 212,-485.5 212,-452.332 155.6819,-472.4868 143.3623,-450.9831"/>
<polygon fill="#000000" stroke="#000000" stroke-width="2" points="146.7087,-449.9253 141,-441 139.8968,-451.5372 146.7087,-449.9253"/>
<text text-anchor="middle" x="229" y="-572.8" font-family="Times,serif" font-size="14.00" fill="#000000">[0%]</text>
</g>
<!-- fn_25_basic_block_3&#45;&gt;fn_25_basic_block_4 -->
<g id="edge4" class="edge">
<title>fn_25_basic_block_3:s&#45;&gt;fn_25_basic_block_4:n</title>
<path fill="none" stroke="#0000ff" stroke-width="2" d="M109,-530.5C109,-491.8865 135.7363,-484.3803 140.3316,-451.1134"/>
<polygon fill="#0000ff" stroke="#0000ff" stroke-width="2" points="143.8329,-451.2091 141,-441 136.8481,-450.7474 143.8329,-451.2091"/>
<text text-anchor="middle" x="146" y="-481.8" font-family="Times,serif" font-size="14.00" fill="#000000">[0%]</text>
</g>
<!-- fn_25_basic_block_4&#45;&gt;fn_25_basic_block_1 -->
<g id="edge5" class="edge">
<title>fn_25_basic_block_4:s&#45;&gt;fn_25_basic_block_1:n</title>
<path fill="none" stroke="#000000" stroke-width="2" d="M141,-141C141,-105.1528 141,-93.6705 141,-62.3917"/>
<polygon fill="#000000" stroke="#000000" stroke-width="2" points="144.5001,-62 141,-52 137.5001,-62 144.5001,-62"/>
<text text-anchor="middle" x="158" y="-92.8" font-family="Times,serif" font-size="14.00" fill="#000000">[0%]</text>
</g>
<!-- fn_23_basic_block_0 -->
<g id="node6" class="node">
<title>fn_23_basic_block_0</title>
<polygon fill="#ffffff" stroke="#000000" points="373,-998 309.6562,-980 373,-962 436.3438,-980 373,-998"/>
<polyline fill="none" stroke="#000000" points="321.1992,-983.2801 321.1992,-976.7199 "/>
<polyline fill="none" stroke="#000000" points="361.457,-965.2801 384.543,-965.2801 "/>
<polyline fill="none" stroke="#000000" points="424.8008,-976.7199 424.8008,-983.2801 "/>
<polyline fill="none" stroke="#000000" points="384.543,-994.7199 361.457,-994.7199 "/>
<text text-anchor="middle" x="373" y="-976.3" font-family="Times,serif" font-size="14.00" fill="#000000">ENTRY</text>
</g>
<!-- fn_23_basic_block_1 -->
<g id="node7" class="node">
<title>fn_23_basic_block_1</title>
<polygon fill="#ffffff" stroke="#000000" points="373,-594.5 324.0684,-576.5 373,-558.5 421.9316,-576.5 373,-594.5"/>
<polyline fill="none" stroke="#000000" points="335.3305,-580.6429 335.3305,-572.3571 "/>
<polyline fill="none" stroke="#000000" points="361.7378,-562.6429 384.2622,-562.6429 "/>
<polyline fill="none" stroke="#000000" points="410.6695,-572.3571 410.6695,-580.6429 "/>
<polyline fill="none" stroke="#000000" points="384.2622,-590.3571 361.7378,-590.3571 "/>
<text text-anchor="middle" x="373" y="-572.8" font-family="Times,serif" font-size="14.00" fill="#000000">EXIT</text>
</g>
<!-- fn_23_basic_block_0&#45;&gt;fn_23_basic_block_1 -->
<!-- fn_23_basic_block_2 -->
<g id="node8" class="node">
<title>fn_23_basic_block_2</title>
<polygon fill="#d3d3d3" stroke="#000000" points="289.5,-735 289.5,-850 456.5,-850 456.5,-735 289.5,-735"/>
<text text-anchor="middle" x="373" y="-834.8" font-family="Times,serif" font-size="14.00" fill="#000000">FREQ:0</text>
<polyline fill="none" stroke="#000000" points="289.5,-827 456.5,-827 "/>
<text text-anchor="start" x="297.5" y="-811.8" font-family="Times,serif" font-size="14.00" fill="#000000">&lt;bb 2&gt;:</text>
<polyline fill="none" stroke="#000000" points="289.5,-804 456.5,-804 "/>
<text text-anchor="start" x="297.5" y="-788.8" font-family="Times,serif" font-size="14.00" fill="#000000">_1 = randnum (0);</text>
<polyline fill="none" stroke="#000000" points="289.5,-781 456.5,-781 "/>
<text text-anchor="start" x="297.5" y="-765.8" font-family="Times,serif" font-size="14.00" fill="#000000">_5 = _1 % num_4(D);</text>
<polyline fill="none" stroke="#000000" points="289.5,-758 456.5,-758 "/>
<text text-anchor="start" x="297.5" y="-742.8" font-family="Times,serif" font-size="14.00" fill="#000000">return _5;</text>
</g>
<!-- fn_23_basic_block_0&#45;&gt;fn_23_basic_block_2 -->
<g id="edge7" class="edge">
<title>fn_23_basic_block_0:s&#45;&gt;fn_23_basic_block_2:n</title>
<path fill="none" stroke="#0000ff" stroke-width="2" d="M373,-962C373,-916.0256 373,-902.0402 373,-860.6893"/>
<polygon fill="#0000ff" stroke="#0000ff" stroke-width="2" points="376.5001,-860.5 373,-850.5 369.5001,-860.5 376.5001,-860.5"/>
<text text-anchor="middle" x="390" y="-913.8" font-family="Times,serif" font-size="14.00" fill="#000000">[0%]</text>
</g>
<!-- fn_23_basic_block_2&#45;&gt;fn_23_basic_block_1 -->
<g id="edge8" class="edge">
<title>fn_23_basic_block_2:s&#45;&gt;fn_23_basic_block_1:n</title>
<path fill="none" stroke="#000000" stroke-width="2" d="M373,-734.5C373,-675.8021 373,-658.6341 373,-604.6407"/>
<polygon fill="#000000" stroke="#000000" stroke-width="2" points="376.5001,-604.5 373,-594.5 369.5001,-604.5 376.5001,-604.5"/>
<text text-anchor="middle" x="390" y="-663.8" font-family="Times,serif" font-size="14.00" fill="#000000">[0%]</text>
</g>
<!-- fn_24_basic_block_0 -->
<g id="node9" class="node">
<title>fn_24_basic_block_0</title>
<polygon fill="#ffffff" stroke="#000000" points="660,-998 596.6562,-980 660,-962 723.3438,-980 660,-998"/>
<polyline fill="none" stroke="#000000" points="608.1992,-983.2801 608.1992,-976.7199 "/>
<polyline fill="none" stroke="#000000" points="648.457,-965.2801 671.543,-965.2801 "/>
<polyline fill="none" stroke="#000000" points="711.8008,-976.7199 711.8008,-983.2801 "/>
<polyline fill="none" stroke="#000000" points="671.543,-994.7199 648.457,-994.7199 "/>
<text text-anchor="middle" x="660" y="-976.3" font-family="Times,serif" font-size="14.00" fill="#000000">ENTRY</text>
</g>
<!-- fn_24_basic_block_1 -->
<g id="node10" class="node">
<title>fn_24_basic_block_1</title>
<polygon fill="#ffffff" stroke="#000000" points="660,-52 611.0684,-34 660,-16 708.9316,-34 660,-52"/>
<polyline fill="none" stroke="#000000" points="622.3305,-38.1429 622.3305,-29.8571 "/>
<polyline fill="none" stroke="#000000" points="648.7378,-20.1429 671.2622,-20.1429 "/>
<polyline fill="none" stroke="#000000" points="697.6695,-29.8571 697.6695,-38.1429 "/>
<polyline fill="none" stroke="#000000" points="671.2622,-47.8571 648.7378,-47.8571 "/>
<text text-anchor="middle" x="660" y="-30.3" font-family="Times,serif" font-size="14.00" fill="#000000">EXIT</text>
</g>
<!-- fn_24_basic_block_0&#45;&gt;fn_24_basic_block_1 -->
<!-- fn_24_basic_block_2 -->
<g id="node11" class="node">
<title>fn_24_basic_block_2</title>
<polygon fill="#d3d3d3" stroke="#000000" points="547.5,-712.5 547.5,-872.5 772.5,-872.5 772.5,-712.5 547.5,-712.5"/>
<text text-anchor="middle" x="660" y="-857.3" font-family="Times,serif" font-size="14.00" fill="#000000">FREQ:0</text>
<polyline fill="none" stroke="#000000" points="547.5,-849.5 772.5,-849.5 "/>
<text text-anchor="start" x="555.5" y="-834.3" font-family="Times,serif" font-size="14.00" fill="#000000">&lt;bb 2&gt;:</text>
<polyline fill="none" stroke="#000000" points="547.5,-826.5 772.5,-826.5 "/>
<text text-anchor="start" x="555.5" y="-811.3" font-family="Times,serif" font-size="14.00" fill="#000000">num.0_1 = (int) num_3(D);</text>
<polyline fill="none" stroke="#000000" points="547.5,-803.5 772.5,-803.5 "/>
<text text-anchor="start" x="555.5" y="-788.3" font-family="Times,serif" font-size="14.00" fill="#000000">temp_6 = randwc (num.0_1);</text>
<polyline fill="none" stroke="#000000" points="547.5,-780.5 772.5,-780.5 "/>
<text text-anchor="start" x="555.5" y="-765.3" font-family="Times,serif" font-size="14.00" fill="#000000">if (temp_6 &lt; 0)</text>
<text text-anchor="start" x="555.5" y="-750.3" font-family="Times,serif" font-size="14.00" fill="#000000"> &#160;goto &lt;bb 3&gt;; [0.00%]</text>
<text text-anchor="start" x="555.5" y="-735.3" font-family="Times,serif" font-size="14.00" fill="#000000">else</text>
<text text-anchor="start" x="555.5" y="-720.3" font-family="Times,serif" font-size="14.00" fill="#000000"> &#160;goto &lt;bb 4&gt;; [0.00%]</text>
</g>
<!-- fn_24_basic_block_0&#45;&gt;fn_24_basic_block_2 -->
<g id="edge10" class="edge">
<title>fn_24_basic_block_0:s&#45;&gt;fn_24_basic_block_2:n</title>
<path fill="none" stroke="#0000ff" stroke-width="2" d="M660,-962C660,-925.796 660,-914.3055 660,-882.5422"/>
<polygon fill="#0000ff" stroke="#0000ff" stroke-width="2" points="663.5001,-882.5 660,-872.5 656.5001,-882.5 663.5001,-882.5"/>
<text text-anchor="middle" x="677" y="-913.8" font-family="Times,serif" font-size="14.00" fill="#000000">[0%]</text>
</g>
<!-- fn_24_basic_block_3 -->
<g id="node12" class="node">
<title>fn_24_basic_block_3</title>
<polygon fill="#d3d3d3" stroke="#000000" points="583.5,-542 583.5,-611 736.5,-611 736.5,-542 583.5,-542"/>
<text text-anchor="middle" x="660" y="-595.8" font-family="Times,serif" font-size="14.00" fill="#000000">FREQ:0</text>
<polyline fill="none" stroke="#000000" points="583.5,-588 736.5,-588 "/>
<text text-anchor="start" x="591.5" y="-572.8" font-family="Times,serif" font-size="14.00" fill="#000000">&lt;bb 3&gt;:</text>
<polyline fill="none" stroke="#000000" points="583.5,-565 736.5,-565 "/>
<text text-anchor="start" x="591.5" y="-549.8" font-family="Times,serif" font-size="14.00" fill="#000000">temp_7 = &#45;temp_6;</text>
</g>
<!-- fn_24_basic_block_2&#45;&gt;fn_24_basic_block_3 -->
<g id="edge11" class="edge">
<title>fn_24_basic_block_2:s&#45;&gt;fn_24_basic_block_3:n</title>
<path fill="none" stroke="#000000" stroke-width="2" d="M660,-712.5C660,-671.2934 660,-658.4566 660,-621.9044"/>
<polygon fill="#000000" stroke="#000000" stroke-width="2" points="663.5001,-621.5 660,-611.5 656.5001,-621.5 663.5001,-621.5"/>
<text text-anchor="middle" x="677" y="-663.8" font-family="Times,serif" font-size="14.00" fill="#000000">[0%]</text>
</g>
<!-- fn_24_basic_block_4 -->
<g id="node13" class="node">
<title>fn_24_basic_block_4</title>
<polygon fill="#d3d3d3" stroke="#000000" points="500.5,-233.5 500.5,-348.5 819.5,-348.5 819.5,-233.5 500.5,-233.5"/>
<text text-anchor="middle" x="660" y="-333.3" font-family="Times,serif" font-size="14.00" fill="#000000">FREQ:0</text>
<polyline fill="none" stroke="#000000" points="500.5,-325.5 819.5,-325.5 "/>
<text text-anchor="start" x="508.5" y="-310.3" font-family="Times,serif" font-size="14.00" fill="#000000">&lt;bb 4&gt;:</text>
<polyline fill="none" stroke="#000000" points="500.5,-302.5 819.5,-302.5 "/>
<text text-anchor="start" x="508.5" y="-287.3" font-family="Times,serif" font-size="14.00" fill="#000000"># temp_2 = PHI &lt;temp_6(2), temp_7(3)&gt;</text>
<polyline fill="none" stroke="#000000" points="500.5,-279.5 819.5,-279.5 "/>
<text text-anchor="start" x="508.5" y="-264.3" font-family="Times,serif" font-size="14.00" fill="#000000">_8 = (u32) temp_2;</text>
<polyline fill="none" stroke="#000000" points="500.5,-256.5 819.5,-256.5 "/>
<text text-anchor="start" x="508.5" y="-241.3" font-family="Times,serif" font-size="14.00" fill="#000000">return _8;</text>
</g>
<!-- fn_24_basic_block_2&#45;&gt;fn_24_basic_block_4 -->
<g id="edge12" class="edge">
<title>fn_24_basic_block_2:s&#45;&gt;fn_24_basic_block_4:n</title>
<path fill="none" stroke="#000000" stroke-width="2" d="M660,-712.5C660,-658.442 773,-721.558 773,-667.5 773,-667.5 773,-667.5 773,-485.5 773,-410.2806 669.9243,-426.0706 660.6636,-359.0279"/>
<polygon fill="#000000" stroke="#000000" stroke-width="2" points="664.1528,-358.747 660,-349 657.1681,-359.2093 664.1528,-358.747"/>
<text text-anchor="middle" x="790" y="-572.8" font-family="Times,serif" font-size="14.00" fill="#000000">[0%]</text>
</g>
<!-- fn_24_basic_block_3&#45;&gt;fn_24_basic_block_4 -->
<g id="edge13" class="edge">
<title>fn_24_basic_block_3:s&#45;&gt;fn_24_basic_block_4:n</title>
<path fill="none" stroke="#0000ff" stroke-width="2" d="M660,-541.5C660,-459.4536 660,-436.4181 660,-359.2124"/>
<polygon fill="#0000ff" stroke="#0000ff" stroke-width="2" points="663.5001,-359 660,-349 656.5001,-359 663.5001,-359"/>
<text text-anchor="middle" x="677" y="-481.8" font-family="Times,serif" font-size="14.00" fill="#000000">[0%]</text>
</g>
<!-- fn_24_basic_block_4&#45;&gt;fn_24_basic_block_1 -->
<g id="edge14" class="edge">
<title>fn_24_basic_block_4:s&#45;&gt;fn_24_basic_block_1:n</title>
<path fill="none" stroke="#000000" stroke-width="2" d="M660,-233C660,-156.0122 660,-134.2841 660,-62.0452"/>
<polygon fill="#000000" stroke="#000000" stroke-width="2" points="663.5001,-62 660,-52 656.5001,-62 663.5001,-62"/>
<text text-anchor="middle" x="677" y="-92.8" font-family="Times,serif" font-size="14.00" fill="#000000">[0%]</text>
</g>
</g>
</svg>
