<?xml version="1.0" encoding="UTF-8" standalone="no"?>
<!DOCTYPE svg PUBLIC "-//W3C//DTD SVG 1.1//EN"
 "http://www.w3.org/Graphics/SVG/1.1/DTD/svg11.dtd">
<!-- Generated by graphviz version 2.40.1 (20161225.0304)
 -->
<!-- Title: misc.c.049t.release_ssa Pages: 1 -->
<svg width="867pt" height="1183pt"
 viewBox="0.00 0.00 867.00 1183.00" xmlns="http://www.w3.org/2000/svg" xmlns:xlink="http://www.w3.org/1999/xlink">
<g id="graph0" class="graph" transform="scale(1 1) rotate(0) translate(4 1179)">
<title>misc.c.049t.release_ssa</title>
<polygon fill="#ffffff" stroke="transparent" points="-4,4 -4,-1179 863,-1179 863,4 -4,4"/>
<g id="clust1" class="cluster">
<title>cluster_randnum</title>
<polygon fill="none" stroke="#000000" stroke-dasharray="5,2" points="8,-8 8,-1167 257,-1167 257,-8 8,-8"/>
<text text-anchor="middle" x="132.5" y="-1151.8" font-family="Times,serif" font-size="14.00" fill="#000000">randnum ()</text>
</g>
<g id="clust2" class="cluster">
<title>cluster_randwc</title>
<polygon fill="none" stroke="#000000" stroke-dasharray="5,2" points="265,-504.5 265,-1167 517,-1167 517,-504.5 265,-504.5"/>
<text text-anchor="middle" x="391" y="-1151.8" font-family="Times,serif" font-size="14.00" fill="#000000">randwc ()</text>
</g>
<g id="clust3" class="cluster">
<title>cluster_abs_randwc</title>
<polygon fill="none" stroke="#000000" stroke-dasharray="5,2" points="525,-8 525,-1167 851,-1167 851,-8 525,-8"/>
<text text-anchor="middle" x="688" y="-1151.8" font-family="Times,serif" font-size="14.00" fill="#000000">abs_randwc ()</text>
</g>
<!-- fn_25_basic_block_0 -->
<g id="node1" class="node">
<title>fn_25_basic_block_0</title>
<polygon fill="#ffffff" stroke="#000000" points="132,-1136 68.6562,-1118 132,-1100 195.3438,-1118 132,-1136"/>
<polyline fill="none" stroke="#000000" points="80.1992,-1121.2801 80.1992,-1114.7199 "/>
<polyline fill="none" stroke="#000000" points="120.457,-1103.2801 143.543,-1103.2801 "/>
<polyline fill="none" stroke="#000000" points="183.8008,-1114.7199 183.8008,-1121.2801 "/>
<polyline fill="none" stroke="#000000" points="143.543,-1132.7199 120.457,-1132.7199 "/>
<text text-anchor="middle" x="132" y="-1114.3" font-family="Times,serif" font-size="14.00" fill="#000000">ENTRY</text>
</g>
<!-- fn_25_basic_block_1 -->
<g id="node2" class="node">
<title>fn_25_basic_block_1</title>
<polygon fill="#ffffff" stroke="#000000" points="141,-52 92.0684,-34 141,-16 189.9316,-34 141,-52"/>
<polyline fill="none" stroke="#000000" points="103.3305,-38.1429 103.3305,-29.8571 "/>
<polyline fill="none" stroke="#000000" points="129.7378,-20.1429 152.2622,-20.1429 "/>
<polyline fill="none" stroke="#000000" points="178.6695,-29.8571 178.6695,-38.1429 "/>
<polyline fill="none" stroke="#000000" points="152.2622,-47.8571 129.7378,-47.8571 "/>
<text text-anchor="middle" x="141" y="-30.3" font-family="Times,serif" font-size="14.00" fill="#000000">EXIT</text>
</g>
<!-- fn_25_basic_block_0&#45;&gt;fn_25_basic_block_1 -->
<!-- fn_25_basic_block_2 -->
<g id="node3" class="node">
<title>fn_25_basic_block_2</title>
<polygon fill="#d3d3d3" stroke="#000000" points="36.5,-781.5 36.5,-895.5 227.5,-895.5 227.5,-781.5 36.5,-781.5"/>
<text text-anchor="middle" x="132" y="-880.3" font-family="Times,serif" font-size="14.00" fill="#000000">FREQ:10000</text>
<polyline fill="none" stroke="#000000" points="36.5,-872.5 227.5,-872.5 "/>
<text text-anchor="start" x="44.5" y="-857.3" font-family="Times,serif" font-size="14.00" fill="#000000">&lt;bb 2&gt;:</text>
<polyline fill="none" stroke="#000000" points="36.5,-849.5 227.5,-849.5 "/>
<text text-anchor="start" x="44.5" y="-834.3" font-family="Times,serif" font-size="14.00" fill="#000000">if (lngval_7(D) != 0)</text>
<text text-anchor="start" x="44.5" y="-819.3" font-family="Times,serif" font-size="14.00" fill="#000000"> &#160;goto &lt;bb 3&gt;; [54.00%]</text>
<text text-anchor="start" x="44.5" y="-804.3" font-family="Times,serif" font-size="14.00" fill="#000000">else</text>
<text text-anchor="start" x="44.5" y="-789.3" font-family="Times,serif" font-size="14.00" fill="#000000"> &#160;goto &lt;bb 4&gt;; [46.00%]</text>
</g>
<!-- fn_25_basic_block_0&#45;&gt;fn_25_basic_block_2 -->
<g id="edge1" class="edge">
<title>fn_25_basic_block_0:s&#45;&gt;fn_25_basic_block_2:n</title>
<path fill="none" stroke="#0000ff" stroke-width="2" d="M132,-1100C132,-1012.5727 132,-988.2186 132,-905.5957"/>
<polygon fill="#0000ff" stroke="#0000ff" stroke-width="2" points="135.5001,-905.5 132,-895.5 128.5001,-905.5 135.5001,-905.5"/>
<text text-anchor="middle" x="158" y="-1051.8" font-family="Times,serif" font-size="14.00" fill="#000000">[100%]</text>
</g>
<!-- fn_25_basic_block_3 -->
<g id="node4" class="node">
<title>fn_25_basic_block_3</title>
<polygon fill="#d3d3d3" stroke="#000000" points="36,-484.5 36,-576.5 170,-576.5 170,-484.5 36,-484.5"/>
<text text-anchor="middle" x="103" y="-561.3" font-family="Times,serif" font-size="14.00" fill="#000000">FREQ:5400</text>
<polyline fill="none" stroke="#000000" points="36,-553.5 170,-553.5 "/>
<text text-anchor="start" x="44" y="-538.3" font-family="Times,serif" font-size="14.00" fill="#000000">&lt;bb 3&gt;:</text>
<polyline fill="none" stroke="#000000" points="36,-530.5 170,-530.5 "/>
<text text-anchor="start" x="44" y="-515.3" font-family="Times,serif" font-size="14.00" fill="#000000">randw[0] = 13;</text>
<polyline fill="none" stroke="#000000" points="36,-507.5 170,-507.5 "/>
<text text-anchor="start" x="44" y="-492.3" font-family="Times,serif" font-size="14.00" fill="#000000">randw[1] = 117;</text>
</g>
<!-- fn_25_basic_block_2&#45;&gt;fn_25_basic_block_3 -->
<g id="edge2" class="edge">
<title>fn_25_basic_block_2:s&#45;&gt;fn_25_basic_block_3:n</title>
<path fill="none" stroke="#000000" stroke-width="2" d="M132,-781.5C132,-692.9864 105.1669,-670.2181 103.123,-586.7125"/>
<polygon fill="#000000" stroke="#000000" stroke-width="2" points="106.6203,-586.4571 103,-576.5 99.6208,-586.5415 106.6203,-586.4571"/>
<text text-anchor="middle" x="127.5" y="-617.8" font-family="Times,serif" font-size="14.00" fill="#000000">[54%]</text>
</g>
<!-- fn_25_basic_block_4 -->
<g id="node5" class="node">
<title>fn_25_basic_block_4</title>
<polygon fill="#d3d3d3" stroke="#000000" points="36.5,-141.5 36.5,-394.5 245.5,-394.5 245.5,-141.5 36.5,-141.5"/>
<text text-anchor="middle" x="141" y="-379.3" font-family="Times,serif" font-size="14.00" fill="#000000">FREQ:10000</text>
<polyline fill="none" stroke="#000000" points="36.5,-371.5 245.5,-371.5 "/>
<text text-anchor="start" x="44.5" y="-356.3" font-family="Times,serif" font-size="14.00" fill="#000000">&lt;bb 4&gt;:</text>
<polyline fill="none" stroke="#000000" points="36.5,-348.5 245.5,-348.5 "/>
<text text-anchor="start" x="44.5" y="-333.3" font-family="Times,serif" font-size="14.00" fill="#000000">_1 = randw[0];</text>
<polyline fill="none" stroke="#000000" points="36.5,-325.5 245.5,-325.5 "/>
<text text-anchor="start" x="44.5" y="-310.3" font-family="Times,serif" font-size="14.00" fill="#000000">_2 = _1 * 254754;</text>
<polyline fill="none" stroke="#000000" points="36.5,-302.5 245.5,-302.5 "/>
<text text-anchor="start" x="44.5" y="-287.3" font-family="Times,serif" font-size="14.00" fill="#000000">_3 = randw[1];</text>
<polyline fill="none" stroke="#000000" points="36.5,-279.5 245.5,-279.5 "/>
<text text-anchor="start" x="44.5" y="-264.3" font-family="Times,serif" font-size="14.00" fill="#000000">_4 = _3 * 529562;</text>
<polyline fill="none" stroke="#000000" points="36.5,-256.5 245.5,-256.5 "/>
<text text-anchor="start" x="44.5" y="-241.3" font-family="Times,serif" font-size="14.00" fill="#000000">_5 = _2 + _4;</text>
<polyline fill="none" stroke="#000000" points="36.5,-233.5 245.5,-233.5 "/>
<text text-anchor="start" x="44.5" y="-218.3" font-family="Times,serif" font-size="14.00" fill="#000000">interm_11 = _5 % 999563;</text>
<polyline fill="none" stroke="#000000" points="36.5,-210.5 245.5,-210.5 "/>
<text text-anchor="start" x="44.5" y="-195.3" font-family="Times,serif" font-size="14.00" fill="#000000">randw[1] = _1;</text>
<polyline fill="none" stroke="#000000" points="36.5,-187.5 245.5,-187.5 "/>
<text text-anchor="start" x="44.5" y="-172.3" font-family="Times,serif" font-size="14.00" fill="#000000">randw[0] = interm_11;</text>
<polyline fill="none" stroke="#000000" points="36.5,-164.5 245.5,-164.5 "/>
<text text-anchor="start" x="44.5" y="-149.3" font-family="Times,serif" font-size="14.00" fill="#000000">return interm_11;</text>
</g>
<!-- fn_25_basic_block_2&#45;&gt;fn_25_basic_block_4 -->
<g id="edge3" class="edge">
<title>fn_25_basic_block_2:s&#45;&gt;fn_25_basic_block_4:n</title>
<path fill="none" stroke="#000000" stroke-width="2" d="M132,-781.5C132,-703.1516 206,-699.8484 206,-621.5 206,-621.5 206,-621.5 206,-439.5 206,-408.4556 154.8924,-425.0051 143.3134,-404.7437"/>
<polygon fill="#000000" stroke="#000000" stroke-width="2" points="146.7154,-403.921 141,-395 139.9048,-405.5381 146.7154,-403.921"/>
<text text-anchor="middle" x="227.5" y="-526.8" font-family="Times,serif" font-size="14.00" fill="#000000">[46%]</text>
</g>
<!-- fn_25_basic_block_3&#45;&gt;fn_25_basic_block_4 -->
<g id="edge4" class="edge">
<title>fn_25_basic_block_3:s&#45;&gt;fn_25_basic_block_4:n</title>
<path fill="none" stroke="#0000ff" stroke-width="2" d="M103,-484.5C103,-444.9991 134.7494,-439.0389 140.2063,-405.3028"/>
<polygon fill="#0000ff" stroke="#0000ff" stroke-width="2" points="143.7215,-405.2393 141,-395 136.7422,-404.7016 143.7215,-405.2393"/>
<text text-anchor="middle" x="153" y="-435.8" font-family="Times,serif" font-size="14.00" fill="#000000">[100%]</text>
</g>
<!-- fn_25_basic_block_4&#45;&gt;fn_25_basic_block_1 -->
<g id="edge5" class="edge">
<title>fn_25_basic_block_4:s&#45;&gt;fn_25_basic_block_1:n</title>
<path fill="none" stroke="#000000" stroke-width="2" d="M141,-141C141,-105.1528 141,-93.6705 141,-62.3917"/>
<polygon fill="#000000" stroke="#000000" stroke-width="2" points="144.5001,-62 141,-52 137.5001,-62 144.5001,-62"/>
<text text-anchor="middle" x="167" y="-92.8" font-family="Times,serif" font-size="14.00" fill="#000000">[100%]</text>
</g>
<!-- fn_23_basic_block_0 -->
<g id="node6" class="node">
<title>fn_23_basic_block_0</title>
<polygon fill="#ffffff" stroke="#000000" points="401,-1136 337.6562,-1118 401,-1100 464.3438,-1118 401,-1136"/>
<polyline fill="none" stroke="#000000" points="349.1992,-1121.2801 349.1992,-1114.7199 "/>
<polyline fill="none" stroke="#000000" points="389.457,-1103.2801 412.543,-1103.2801 "/>
<polyline fill="none" stroke="#000000" points="452.8008,-1114.7199 452.8008,-1121.2801 "/>
<polyline fill="none" stroke="#000000" points="412.543,-1132.7199 389.457,-1132.7199 "/>
<text text-anchor="middle" x="401" y="-1114.3" font-family="Times,serif" font-size="14.00" fill="#000000">ENTRY</text>
</g>
<!-- fn_23_basic_block_1 -->
<g id="node7" class="node">
<title>fn_23_basic_block_1</title>
<polygon fill="#ffffff" stroke="#000000" points="401,-548.5 352.0684,-530.5 401,-512.5 449.9316,-530.5 401,-548.5"/>
<polyline fill="none" stroke="#000000" points="363.3305,-534.6429 363.3305,-526.3571 "/>
<polyline fill="none" stroke="#000000" points="389.7378,-516.6429 412.2622,-516.6429 "/>
<polyline fill="none" stroke="#000000" points="438.6695,-526.3571 438.6695,-534.6429 "/>
<polyline fill="none" stroke="#000000" points="412.2622,-544.3571 389.7378,-544.3571 "/>
<text text-anchor="middle" x="401" y="-526.8" font-family="Times,serif" font-size="14.00" fill="#000000">EXIT</text>
</g>
<!-- fn_23_basic_block_0&#45;&gt;fn_23_basic_block_1 -->
<!-- fn_23_basic_block_2 -->
<g id="node8" class="node">
<title>fn_23_basic_block_2</title>
<polygon fill="#d3d3d3" stroke="#000000" points="293.5,-700.5 293.5,-976.5 508.5,-976.5 508.5,-700.5 293.5,-700.5"/>
<text text-anchor="middle" x="401" y="-961.3" font-family="Times,serif" font-size="14.00" fill="#000000">FREQ:10000</text>
<polyline fill="none" stroke="#000000" points="293.5,-953.5 508.5,-953.5 "/>
<text text-anchor="start" x="301.5" y="-938.3" font-family="Times,serif" font-size="14.00" fill="#000000">&lt;bb 2&gt;:</text>
<polyline fill="none" stroke="#000000" points="293.5,-930.5 508.5,-930.5 "/>
<text text-anchor="start" x="301.5" y="-915.3" font-family="Times,serif" font-size="14.00" fill="#000000">_4 = randw[0];</text>
<polyline fill="none" stroke="#000000" points="293.5,-907.5 508.5,-907.5 "/>
<text text-anchor="start" x="301.5" y="-892.3" font-family="Times,serif" font-size="14.00" fill="#000000">_5 = _4 * 254754;</text>
<polyline fill="none" stroke="#000000" points="293.5,-884.5 508.5,-884.5 "/>
<text text-anchor="start" x="301.5" y="-869.3" font-family="Times,serif" font-size="14.00" fill="#000000">_6 = randw[1];</text>
<polyline fill="none" stroke="#000000" points="293.5,-861.5 508.5,-861.5 "/>
<text text-anchor="start" x="301.5" y="-846.3" font-family="Times,serif" font-size="14.00" fill="#000000">_7 = _6 * 529562;</text>
<polyline fill="none" stroke="#000000" points="293.5,-838.5 508.5,-838.5 "/>
<text text-anchor="start" x="301.5" y="-823.3" font-family="Times,serif" font-size="14.00" fill="#000000">_8 = _5 + _7;</text>
<polyline fill="none" stroke="#000000" points="293.5,-815.5 508.5,-815.5 "/>
<text text-anchor="start" x="301.5" y="-800.3" font-family="Times,serif" font-size="14.00" fill="#000000">interm_9 = _8 % 999563;</text>
<polyline fill="none" stroke="#000000" points="293.5,-792.5 508.5,-792.5 "/>
<text text-anchor="start" x="301.5" y="-777.3" font-family="Times,serif" font-size="14.00" fill="#000000">randw[1] = _4;</text>
<polyline fill="none" stroke="#000000" points="293.5,-769.5 508.5,-769.5 "/>
<text text-anchor="start" x="301.5" y="-754.3" font-family="Times,serif" font-size="14.00" fill="#000000">randw[0] = interm_9;</text>
<polyline fill="none" stroke="#000000" points="293.5,-746.5 508.5,-746.5 "/>
<text text-anchor="start" x="301.5" y="-731.3" font-family="Times,serif" font-size="14.00" fill="#000000">_3 = interm_9 % num_2(D);</text>
<polyline fill="none" stroke="#000000" points="293.5,-723.5 508.5,-723.5 "/>
<text text-anchor="start" x="301.5" y="-708.3" font-family="Times,serif" font-size="14.00" fill="#000000">return _3;</text>
</g>
<!-- fn_23_basic_block_0&#45;&gt;fn_23_basic_block_2 -->
<g id="edge7" class="edge">
<title>fn_23_basic_block_0:s&#45;&gt;fn_23_basic_block_2:n</title>
<path fill="none" stroke="#0000ff" stroke-width="2" d="M401,-1100C401,-1048.6489 401,-1033.3288 401,-986.6223"/>
<polygon fill="#0000ff" stroke="#0000ff" stroke-width="2" points="404.5001,-986.5 401,-976.5 397.5001,-986.5 404.5001,-986.5"/>
<text text-anchor="middle" x="427" y="-1051.8" font-family="Times,serif" font-size="14.00" fill="#000000">[100%]</text>
</g>
<!-- fn_23_basic_block_2&#45;&gt;fn_23_basic_block_1 -->
<g id="edge8" class="edge">
<title>fn_23_basic_block_2:s&#45;&gt;fn_23_basic_block_1:n</title>
<path fill="none" stroke="#000000" stroke-width="2" d="M401,-700.5C401,-636.5069 401,-617.9777 401,-558.7797"/>
<polygon fill="#000000" stroke="#000000" stroke-width="2" points="404.5001,-558.5 401,-548.5 397.5001,-558.5 404.5001,-558.5"/>
<text text-anchor="middle" x="427" y="-617.8" font-family="Times,serif" font-size="14.00" fill="#000000">[100%]</text>
</g>
<!-- fn_24_basic_block_0 -->
<g id="node9" class="node">
<title>fn_24_basic_block_0</title>
<polygon fill="#ffffff" stroke="#000000" points="698,-1136 634.6562,-1118 698,-1100 761.3438,-1118 698,-1136"/>
<polyline fill="none" stroke="#000000" points="646.1992,-1121.2801 646.1992,-1114.7199 "/>
<polyline fill="none" stroke="#000000" points="686.457,-1103.2801 709.543,-1103.2801 "/>
<polyline fill="none" stroke="#000000" points="749.8008,-1114.7199 749.8008,-1121.2801 "/>
<polyline fill="none" stroke="#000000" points="709.543,-1132.7199 686.457,-1132.7199 "/>
<text text-anchor="middle" x="698" y="-1114.3" font-family="Times,serif" font-size="14.00" fill="#000000">ENTRY</text>
</g>
<!-- fn_24_basic_block_1 -->
<g id="node10" class="node">
<title>fn_24_basic_block_1</title>
<polygon fill="#ffffff" stroke="#000000" points="698,-52 649.0684,-34 698,-16 746.9316,-34 698,-52"/>
<polyline fill="none" stroke="#000000" points="660.3305,-38.1429 660.3305,-29.8571 "/>
<polyline fill="none" stroke="#000000" points="686.7378,-20.1429 709.2622,-20.1429 "/>
<polyline fill="none" stroke="#000000" points="735.6695,-29.8571 735.6695,-38.1429 "/>
<polyline fill="none" stroke="#000000" points="709.2622,-47.8571 686.7378,-47.8571 "/>
<text text-anchor="middle" x="698" y="-30.3" font-family="Times,serif" font-size="14.00" fill="#000000">EXIT</text>
</g>
<!-- fn_24_basic_block_0&#45;&gt;fn_24_basic_block_1 -->
<!-- fn_24_basic_block_2 -->
<g id="node11" class="node">
<title>fn_24_basic_block_2</title>
<polygon fill="#d3d3d3" stroke="#000000" points="585.5,-666.5 585.5,-1010.5 810.5,-1010.5 810.5,-666.5 585.5,-666.5"/>
<text text-anchor="middle" x="698" y="-995.3" font-family="Times,serif" font-size="14.00" fill="#000000">FREQ:10000</text>
<polyline fill="none" stroke="#000000" points="585.5,-987.5 810.5,-987.5 "/>
<text text-anchor="start" x="593.5" y="-972.3" font-family="Times,serif" font-size="14.00" fill="#000000">&lt;bb 2&gt;:</text>
<polyline fill="none" stroke="#000000" points="585.5,-964.5 810.5,-964.5 "/>
<text text-anchor="start" x="593.5" y="-949.3" font-family="Times,serif" font-size="14.00" fill="#000000">num.0_1 = (int) num_3(D);</text>
<polyline fill="none" stroke="#000000" points="585.5,-941.5 810.5,-941.5 "/>
<text text-anchor="start" x="593.5" y="-926.3" font-family="Times,serif" font-size="14.00" fill="#000000">_7 = randw[0];</text>
<polyline fill="none" stroke="#000000" points="585.5,-918.5 810.5,-918.5 "/>
<text text-anchor="start" x="593.5" y="-903.3" font-family="Times,serif" font-size="14.00" fill="#000000">_8 = _7 * 254754;</text>
<polyline fill="none" stroke="#000000" points="585.5,-895.5 810.5,-895.5 "/>
<text text-anchor="start" x="593.5" y="-880.3" font-family="Times,serif" font-size="14.00" fill="#000000">_9 = randw[1];</text>
<polyline fill="none" stroke="#000000" points="585.5,-872.5 810.5,-872.5 "/>
<text text-anchor="start" x="593.5" y="-857.3" font-family="Times,serif" font-size="14.00" fill="#000000">_10 = _9 * 529562;</text>
<polyline fill="none" stroke="#000000" points="585.5,-849.5 810.5,-849.5 "/>
<text text-anchor="start" x="593.5" y="-834.3" font-family="Times,serif" font-size="14.00" fill="#000000">_11 = _8 + _10;</text>
<polyline fill="none" stroke="#000000" points="585.5,-826.5 810.5,-826.5 "/>
<text text-anchor="start" x="593.5" y="-811.3" font-family="Times,serif" font-size="14.00" fill="#000000">interm_12 = _11 % 999563;</text>
<polyline fill="none" stroke="#000000" points="585.5,-803.5 810.5,-803.5 "/>
<text text-anchor="start" x="593.5" y="-788.3" font-family="Times,serif" font-size="14.00" fill="#000000">randw[1] = _7;</text>
<polyline fill="none" stroke="#000000" points="585.5,-780.5 810.5,-780.5 "/>
<text text-anchor="start" x="593.5" y="-765.3" font-family="Times,serif" font-size="14.00" fill="#000000">randw[0] = interm_12;</text>
<polyline fill="none" stroke="#000000" points="585.5,-757.5 810.5,-757.5 "/>
<text text-anchor="start" x="593.5" y="-742.3" font-family="Times,serif" font-size="14.00" fill="#000000">_13 = interm_12 % num.0_1;</text>
<polyline fill="none" stroke="#000000" points="585.5,-734.5 810.5,-734.5 "/>
<text text-anchor="start" x="593.5" y="-719.3" font-family="Times,serif" font-size="14.00" fill="#000000">if (_13 &lt; 0)</text>
<text text-anchor="start" x="593.5" y="-704.3" font-family="Times,serif" font-size="14.00" fill="#000000"> &#160;goto &lt;bb 3&gt;; [39.77%]</text>
<text text-anchor="start" x="593.5" y="-689.3" font-family="Times,serif" font-size="14.00" fill="#000000">else</text>
<text text-anchor="start" x="593.5" y="-674.3" font-family="Times,serif" font-size="14.00" fill="#000000"> &#160;goto &lt;bb 4&gt;; [60.23%]</text>
</g>
<!-- fn_24_basic_block_0&#45;&gt;fn_24_basic_block_2 -->
<g id="edge10" class="edge">
<title>fn_24_basic_block_0:s&#45;&gt;fn_24_basic_block_2:n</title>
<path fill="none" stroke="#0000ff" stroke-width="2" d="M698,-1100C698,-1063.796 698,-1052.3055 698,-1020.5422"/>
<polygon fill="#0000ff" stroke="#0000ff" stroke-width="2" points="701.5001,-1020.5 698,-1010.5 694.5001,-1020.5 701.5001,-1020.5"/>
<text text-anchor="middle" x="724" y="-1051.8" font-family="Times,serif" font-size="14.00" fill="#000000">[100%]</text>
</g>
<!-- fn_24_basic_block_3 -->
<g id="node12" class="node">
<title>fn_24_basic_block_3</title>
<polygon fill="#d3d3d3" stroke="#000000" points="635.5,-496 635.5,-565 760.5,-565 760.5,-496 635.5,-496"/>
<text text-anchor="middle" x="698" y="-549.8" font-family="Times,serif" font-size="14.00" fill="#000000">FREQ:3977</text>
<polyline fill="none" stroke="#000000" points="635.5,-542 760.5,-542 "/>
<text text-anchor="start" x="643.5" y="-526.8" font-family="Times,serif" font-size="14.00" fill="#000000">&lt;bb 3&gt;:</text>
<polyline fill="none" stroke="#000000" points="635.5,-519 760.5,-519 "/>
<text text-anchor="start" x="643.5" y="-503.8" font-family="Times,serif" font-size="14.00" fill="#000000">temp_5 = &#45;_13;</text>
</g>
<!-- fn_24_basic_block_2&#45;&gt;fn_24_basic_block_3 -->
<g id="edge11" class="edge">
<title>fn_24_basic_block_2:s&#45;&gt;fn_24_basic_block_3:n</title>
<path fill="none" stroke="#000000" stroke-width="2" d="M698,-666.5C698,-625.2934 698,-612.4566 698,-575.9044"/>
<polygon fill="#000000" stroke="#000000" stroke-width="2" points="701.5001,-575.5 698,-565.5 694.5001,-575.5 701.5001,-575.5"/>
<text text-anchor="middle" x="719.5" y="-617.8" font-family="Times,serif" font-size="14.00" fill="#000000">[39%]</text>
</g>
<!-- fn_24_basic_block_4 -->
<g id="node13" class="node">
<title>fn_24_basic_block_4</title>
<polygon fill="#d3d3d3" stroke="#000000" points="552.5,-210.5 552.5,-325.5 843.5,-325.5 843.5,-210.5 552.5,-210.5"/>
<text text-anchor="middle" x="698" y="-310.3" font-family="Times,serif" font-size="14.00" fill="#000000">FREQ:10000</text>
<polyline fill="none" stroke="#000000" points="552.5,-302.5 843.5,-302.5 "/>
<text text-anchor="start" x="560.5" y="-287.3" font-family="Times,serif" font-size="14.00" fill="#000000">&lt;bb 4&gt;:</text>
<polyline fill="none" stroke="#000000" points="552.5,-279.5 843.5,-279.5 "/>
<text text-anchor="start" x="560.5" y="-264.3" font-family="Times,serif" font-size="14.00" fill="#000000"># temp_2 = PHI &lt;_13(2), temp_5(3)&gt;</text>
<polyline fill="none" stroke="#000000" points="552.5,-256.5 843.5,-256.5 "/>
<text text-anchor="start" x="560.5" y="-241.3" font-family="Times,serif" font-size="14.00" fill="#000000">_6 = (u32) temp_2;</text>
<polyline fill="none" stroke="#000000" points="552.5,-233.5 843.5,-233.5 "/>
<text text-anchor="start" x="560.5" y="-218.3" font-family="Times,serif" font-size="14.00" fill="#000000">return _6;</text>
</g>
<!-- fn_24_basic_block_2&#45;&gt;fn_24_basic_block_4 -->
<g id="edge12" class="edge">
<title>fn_24_basic_block_2:s&#45;&gt;fn_24_basic_block_4:n</title>
<path fill="none" stroke="#000000" stroke-width="2" d="M698,-666.5C698,-618.1678 797,-669.8322 797,-621.5 797,-621.5 797,-621.5 797,-439.5 797,-376.2231 708.532,-390.9702 698.8559,-336.2271"/>
<polygon fill="#000000" stroke="#000000" stroke-width="2" points="702.3218,-335.6733 698,-326 695.3462,-336.2571 702.3218,-335.6733"/>
<text text-anchor="middle" x="818.5" y="-526.8" font-family="Times,serif" font-size="14.00" fill="#000000">[60%]</text>
</g>
<!-- fn_24_basic_block_3&#45;&gt;fn_24_basic_block_4 -->
<g id="edge13" class="edge">
<title>fn_24_basic_block_3:s&#45;&gt;fn_24_basic_block_4:n</title>
<path fill="none" stroke="#0000ff" stroke-width="2" d="M698,-495.5C698,-423.6979 698,-403.2231 698,-336.233"/>
<polygon fill="#0000ff" stroke="#0000ff" stroke-width="2" points="701.5001,-336 698,-326 694.5001,-336 701.5001,-336"/>
<text text-anchor="middle" x="724" y="-435.8" font-family="Times,serif" font-size="14.00" fill="#000000">[100%]</text>
</g>
<!-- fn_24_basic_block_4&#45;&gt;fn_24_basic_block_1 -->
<g id="edge14" class="edge">
<title>fn_24_basic_block_4:s&#45;&gt;fn_24_basic_block_1:n</title>
<path fill="none" stroke="#000000" stroke-width="2" d="M698,-210C698,-143.3438 698,-124.141 698,-62.3043"/>
<polygon fill="#000000" stroke="#000000" stroke-width="2" points="701.5001,-62 698,-52 694.5001,-62 701.5001,-62"/>
<text text-anchor="middle" x="724" y="-92.8" font-family="Times,serif" font-size="14.00" fill="#000000">[100%]</text>
</g>
</g>
</svg>
