<?xml version="1.0" encoding="UTF-8" standalone="no"?>
<!DOCTYPE svg PUBLIC "-//W3C//DTD SVG 1.1//EN"
 "http://www.w3.org/Graphics/SVG/1.1/DTD/svg11.dtd">
<!-- Generated by graphviz version 2.40.1 (20161225.0304)
 -->
<!-- Title: misc.c.108t.cselim Pages: 1 -->
<svg width="867pt" height="1183pt"
 viewBox="0.00 0.00 867.00 1183.00" xmlns="http://www.w3.org/2000/svg" xmlns:xlink="http://www.w3.org/1999/xlink">
<g id="graph0" class="graph" transform="scale(1 1) rotate(0) translate(4 1179)">
<title>misc.c.108t.cselim</title>
<polygon fill="#ffffff" stroke="transparent" points="-4,4 -4,-1179 863,-1179 863,4 -4,4"/>
<g id="clust1" class="cluster">
<title>cluster_randwc</title>
<polygon fill="none" stroke="#000000" stroke-dasharray="5,2" points="8,-504.5 8,-1167 260,-1167 260,-504.5 8,-504.5"/>
<text text-anchor="middle" x="134" y="-1151.8" font-family="Times,serif" font-size="14.00" fill="#000000">randwc ()</text>
</g>
<g id="clust2" class="cluster">
<title>cluster_abs_randwc</title>
<polygon fill="none" stroke="#000000" stroke-dasharray="5,2" points="268,-8 268,-1167 594,-1167 594,-8 268,-8"/>
<text text-anchor="middle" x="431" y="-1151.8" font-family="Times,serif" font-size="14.00" fill="#000000">abs_randwc ()</text>
</g>
<g id="clust3" class="cluster">
<title>cluster_randnum</title>
<polygon fill="none" stroke="#000000" stroke-dasharray="5,2" points="602,-8 602,-1167 851,-1167 851,-8 602,-8"/>
<text text-anchor="middle" x="726.5" y="-1151.8" font-family="Times,serif" font-size="14.00" fill="#000000">randnum ()</text>
</g>
<!-- fn_23_basic_block_0 -->
<g id="node1" class="node">
<title>fn_23_basic_block_0</title>
<polygon fill="#ffffff" stroke="#000000" points="144,-1136 80.6562,-1118 144,-1100 207.3438,-1118 144,-1136"/>
<polyline fill="none" stroke="#000000" points="92.1992,-1121.2801 92.1992,-1114.7199 "/>
<polyline fill="none" stroke="#000000" points="132.457,-1103.2801 155.543,-1103.2801 "/>
<polyline fill="none" stroke="#000000" points="195.8008,-1114.7199 195.8008,-1121.2801 "/>
<polyline fill="none" stroke="#000000" points="155.543,-1132.7199 132.457,-1132.7199 "/>
<text text-anchor="middle" x="144" y="-1114.3" font-family="Times,serif" font-size="14.00" fill="#000000">ENTRY</text>
</g>
<!-- fn_23_basic_block_1 -->
<g id="node2" class="node">
<title>fn_23_basic_block_1</title>
<polygon fill="#ffffff" stroke="#000000" points="144,-548.5 95.0684,-530.5 144,-512.5 192.9316,-530.5 144,-548.5"/>
<polyline fill="none" stroke="#000000" points="106.3305,-534.6429 106.3305,-526.3571 "/>
<polyline fill="none" stroke="#000000" points="132.7378,-516.6429 155.2622,-516.6429 "/>
<polyline fill="none" stroke="#000000" points="181.6695,-526.3571 181.6695,-534.6429 "/>
<polyline fill="none" stroke="#000000" points="155.2622,-544.3571 132.7378,-544.3571 "/>
<text text-anchor="middle" x="144" y="-526.8" font-family="Times,serif" font-size="14.00" fill="#000000">EXIT</text>
</g>
<!-- fn_23_basic_block_0&#45;&gt;fn_23_basic_block_1 -->
<!-- fn_23_basic_block_2 -->
<g id="node3" class="node">
<title>fn_23_basic_block_2</title>
<polygon fill="#d3d3d3" stroke="#000000" points="36.5,-700.5 36.5,-976.5 251.5,-976.5 251.5,-700.5 36.5,-700.5"/>
<text text-anchor="middle" x="144" y="-961.3" font-family="Times,serif" font-size="14.00" fill="#000000">FREQ:10000</text>
<polyline fill="none" stroke="#000000" points="36.5,-953.5 251.5,-953.5 "/>
<text text-anchor="start" x="44.5" y="-938.3" font-family="Times,serif" font-size="14.00" fill="#000000">&lt;bb 2&gt;:</text>
<polyline fill="none" stroke="#000000" points="36.5,-930.5 251.5,-930.5 "/>
<text text-anchor="start" x="44.5" y="-915.3" font-family="Times,serif" font-size="14.00" fill="#000000">_4 = randw[0];</text>
<polyline fill="none" stroke="#000000" points="36.5,-907.5 251.5,-907.5 "/>
<text text-anchor="start" x="44.5" y="-892.3" font-family="Times,serif" font-size="14.00" fill="#000000">_5 = _4 * 254754;</text>
<polyline fill="none" stroke="#000000" points="36.5,-884.5 251.5,-884.5 "/>
<text text-anchor="start" x="44.5" y="-869.3" font-family="Times,serif" font-size="14.00" fill="#000000">_6 = randw[1];</text>
<polyline fill="none" stroke="#000000" points="36.5,-861.5 251.5,-861.5 "/>
<text text-anchor="start" x="44.5" y="-846.3" font-family="Times,serif" font-size="14.00" fill="#000000">_7 = _6 * 529562;</text>
<polyline fill="none" stroke="#000000" points="36.5,-838.5 251.5,-838.5 "/>
<text text-anchor="start" x="44.5" y="-823.3" font-family="Times,serif" font-size="14.00" fill="#000000">_8 = _5 + _7;</text>
<polyline fill="none" stroke="#000000" points="36.5,-815.5 251.5,-815.5 "/>
<text text-anchor="start" x="44.5" y="-800.3" font-family="Times,serif" font-size="14.00" fill="#000000">interm_9 = _8 % 999563;</text>
<polyline fill="none" stroke="#000000" points="36.5,-792.5 251.5,-792.5 "/>
<text text-anchor="start" x="44.5" y="-777.3" font-family="Times,serif" font-size="14.00" fill="#000000">randw[1] = _4;</text>
<polyline fill="none" stroke="#000000" points="36.5,-769.5 251.5,-769.5 "/>
<text text-anchor="start" x="44.5" y="-754.3" font-family="Times,serif" font-size="14.00" fill="#000000">randw[0] = interm_9;</text>
<polyline fill="none" stroke="#000000" points="36.5,-746.5 251.5,-746.5 "/>
<text text-anchor="start" x="44.5" y="-731.3" font-family="Times,serif" font-size="14.00" fill="#000000">_3 = interm_9 % num_2(D);</text>
<polyline fill="none" stroke="#000000" points="36.5,-723.5 251.5,-723.5 "/>
<text text-anchor="start" x="44.5" y="-708.3" font-family="Times,serif" font-size="14.00" fill="#000000">return _3;</text>
</g>
<!-- fn_23_basic_block_0&#45;&gt;fn_23_basic_block_2 -->
<g id="edge1" class="edge">
<title>fn_23_basic_block_0:s&#45;&gt;fn_23_basic_block_2:n</title>
<path fill="none" stroke="#0000ff" stroke-width="2" d="M144,-1100C144,-1048.6489 144,-1033.3288 144,-986.6223"/>
<polygon fill="#0000ff" stroke="#0000ff" stroke-width="2" points="147.5001,-986.5 144,-976.5 140.5001,-986.5 147.5001,-986.5"/>
<text text-anchor="middle" x="170" y="-1051.8" font-family="Times,serif" font-size="14.00" fill="#000000">[100%]</text>
</g>
<!-- fn_23_basic_block_2&#45;&gt;fn_23_basic_block_1 -->
<g id="edge2" class="edge">
<title>fn_23_basic_block_2:s&#45;&gt;fn_23_basic_block_1:n</title>
<path fill="none" stroke="#000000" stroke-width="2" d="M144,-700.5C144,-636.5069 144,-617.9777 144,-558.7797"/>
<polygon fill="#000000" stroke="#000000" stroke-width="2" points="147.5001,-558.5 144,-548.5 140.5001,-558.5 147.5001,-558.5"/>
<text text-anchor="middle" x="170" y="-617.8" font-family="Times,serif" font-size="14.00" fill="#000000">[100%]</text>
</g>
<!-- fn_24_basic_block_0 -->
<g id="node4" class="node">
<title>fn_24_basic_block_0</title>
<polygon fill="#ffffff" stroke="#000000" points="441,-1136 377.6562,-1118 441,-1100 504.3438,-1118 441,-1136"/>
<polyline fill="none" stroke="#000000" points="389.1992,-1121.2801 389.1992,-1114.7199 "/>
<polyline fill="none" stroke="#000000" points="429.457,-1103.2801 452.543,-1103.2801 "/>
<polyline fill="none" stroke="#000000" points="492.8008,-1114.7199 492.8008,-1121.2801 "/>
<polyline fill="none" stroke="#000000" points="452.543,-1132.7199 429.457,-1132.7199 "/>
<text text-anchor="middle" x="441" y="-1114.3" font-family="Times,serif" font-size="14.00" fill="#000000">ENTRY</text>
</g>
<!-- fn_24_basic_block_1 -->
<g id="node5" class="node">
<title>fn_24_basic_block_1</title>
<polygon fill="#ffffff" stroke="#000000" points="441,-52 392.0684,-34 441,-16 489.9316,-34 441,-52"/>
<polyline fill="none" stroke="#000000" points="403.3305,-38.1429 403.3305,-29.8571 "/>
<polyline fill="none" stroke="#000000" points="429.7378,-20.1429 452.2622,-20.1429 "/>
<polyline fill="none" stroke="#000000" points="478.6695,-29.8571 478.6695,-38.1429 "/>
<polyline fill="none" stroke="#000000" points="452.2622,-47.8571 429.7378,-47.8571 "/>
<text text-anchor="middle" x="441" y="-30.3" font-family="Times,serif" font-size="14.00" fill="#000000">EXIT</text>
</g>
<!-- fn_24_basic_block_0&#45;&gt;fn_24_basic_block_1 -->
<!-- fn_24_basic_block_2 -->
<g id="node6" class="node">
<title>fn_24_basic_block_2</title>
<polygon fill="#d3d3d3" stroke="#000000" points="328.5,-666.5 328.5,-1010.5 553.5,-1010.5 553.5,-666.5 328.5,-666.5"/>
<text text-anchor="middle" x="441" y="-995.3" font-family="Times,serif" font-size="14.00" fill="#000000">FREQ:10000</text>
<polyline fill="none" stroke="#000000" points="328.5,-987.5 553.5,-987.5 "/>
<text text-anchor="start" x="336.5" y="-972.3" font-family="Times,serif" font-size="14.00" fill="#000000">&lt;bb 2&gt;:</text>
<polyline fill="none" stroke="#000000" points="328.5,-964.5 553.5,-964.5 "/>
<text text-anchor="start" x="336.5" y="-949.3" font-family="Times,serif" font-size="14.00" fill="#000000">num.0_1 = (int) num_3(D);</text>
<polyline fill="none" stroke="#000000" points="328.5,-941.5 553.5,-941.5 "/>
<text text-anchor="start" x="336.5" y="-926.3" font-family="Times,serif" font-size="14.00" fill="#000000">_7 = randw[0];</text>
<polyline fill="none" stroke="#000000" points="328.5,-918.5 553.5,-918.5 "/>
<text text-anchor="start" x="336.5" y="-903.3" font-family="Times,serif" font-size="14.00" fill="#000000">_8 = _7 * 254754;</text>
<polyline fill="none" stroke="#000000" points="328.5,-895.5 553.5,-895.5 "/>
<text text-anchor="start" x="336.5" y="-880.3" font-family="Times,serif" font-size="14.00" fill="#000000">_9 = randw[1];</text>
<polyline fill="none" stroke="#000000" points="328.5,-872.5 553.5,-872.5 "/>
<text text-anchor="start" x="336.5" y="-857.3" font-family="Times,serif" font-size="14.00" fill="#000000">_10 = _9 * 529562;</text>
<polyline fill="none" stroke="#000000" points="328.5,-849.5 553.5,-849.5 "/>
<text text-anchor="start" x="336.5" y="-834.3" font-family="Times,serif" font-size="14.00" fill="#000000">_11 = _8 + _10;</text>
<polyline fill="none" stroke="#000000" points="328.5,-826.5 553.5,-826.5 "/>
<text text-anchor="start" x="336.5" y="-811.3" font-family="Times,serif" font-size="14.00" fill="#000000">interm_12 = _11 % 999563;</text>
<polyline fill="none" stroke="#000000" points="328.5,-803.5 553.5,-803.5 "/>
<text text-anchor="start" x="336.5" y="-788.3" font-family="Times,serif" font-size="14.00" fill="#000000">randw[1] = _7;</text>
<polyline fill="none" stroke="#000000" points="328.5,-780.5 553.5,-780.5 "/>
<text text-anchor="start" x="336.5" y="-765.3" font-family="Times,serif" font-size="14.00" fill="#000000">randw[0] = interm_12;</text>
<polyline fill="none" stroke="#000000" points="328.5,-757.5 553.5,-757.5 "/>
<text text-anchor="start" x="336.5" y="-742.3" font-family="Times,serif" font-size="14.00" fill="#000000">_13 = interm_12 % num.0_1;</text>
<polyline fill="none" stroke="#000000" points="328.5,-734.5 553.5,-734.5 "/>
<text text-anchor="start" x="336.5" y="-719.3" font-family="Times,serif" font-size="14.00" fill="#000000">if (_13 &lt; 0)</text>
<text text-anchor="start" x="336.5" y="-704.3" font-family="Times,serif" font-size="14.00" fill="#000000"> &#160;goto &lt;bb 3&gt;; [39.77%]</text>
<text text-anchor="start" x="336.5" y="-689.3" font-family="Times,serif" font-size="14.00" fill="#000000">else</text>
<text text-anchor="start" x="336.5" y="-674.3" font-family="Times,serif" font-size="14.00" fill="#000000"> &#160;goto &lt;bb 4&gt;; [60.23%]</text>
</g>
<!-- fn_24_basic_block_0&#45;&gt;fn_24_basic_block_2 -->
<g id="edge4" class="edge">
<title>fn_24_basic_block_0:s&#45;&gt;fn_24_basic_block_2:n</title>
<path fill="none" stroke="#0000ff" stroke-width="2" d="M441,-1100C441,-1063.796 441,-1052.3055 441,-1020.5422"/>
<polygon fill="#0000ff" stroke="#0000ff" stroke-width="2" points="444.5001,-1020.5 441,-1010.5 437.5001,-1020.5 444.5001,-1020.5"/>
<text text-anchor="middle" x="467" y="-1051.8" font-family="Times,serif" font-size="14.00" fill="#000000">[100%]</text>
</g>
<!-- fn_24_basic_block_3 -->
<g id="node7" class="node">
<title>fn_24_basic_block_3</title>
<polygon fill="#d3d3d3" stroke="#000000" points="378.5,-496 378.5,-565 503.5,-565 503.5,-496 378.5,-496"/>
<text text-anchor="middle" x="441" y="-549.8" font-family="Times,serif" font-size="14.00" fill="#000000">FREQ:3977</text>
<polyline fill="none" stroke="#000000" points="378.5,-542 503.5,-542 "/>
<text text-anchor="start" x="386.5" y="-526.8" font-family="Times,serif" font-size="14.00" fill="#000000">&lt;bb 3&gt;:</text>
<polyline fill="none" stroke="#000000" points="378.5,-519 503.5,-519 "/>
<text text-anchor="start" x="386.5" y="-503.8" font-family="Times,serif" font-size="14.00" fill="#000000">temp_5 = &#45;_13;</text>
</g>
<!-- fn_24_basic_block_2&#45;&gt;fn_24_basic_block_3 -->
<g id="edge5" class="edge">
<title>fn_24_basic_block_2:s&#45;&gt;fn_24_basic_block_3:n</title>
<path fill="none" stroke="#000000" stroke-width="2" d="M441,-666.5C441,-625.2934 441,-612.4566 441,-575.9044"/>
<polygon fill="#000000" stroke="#000000" stroke-width="2" points="444.5001,-575.5 441,-565.5 437.5001,-575.5 444.5001,-575.5"/>
<text text-anchor="middle" x="462.5" y="-617.8" font-family="Times,serif" font-size="14.00" fill="#000000">[39%]</text>
</g>
<!-- fn_24_basic_block_4 -->
<g id="node8" class="node">
<title>fn_24_basic_block_4</title>
<polygon fill="#d3d3d3" stroke="#000000" points="295.5,-210.5 295.5,-325.5 586.5,-325.5 586.5,-210.5 295.5,-210.5"/>
<text text-anchor="middle" x="441" y="-310.3" font-family="Times,serif" font-size="14.00" fill="#000000">FREQ:10000</text>
<polyline fill="none" stroke="#000000" points="295.5,-302.5 586.5,-302.5 "/>
<text text-anchor="start" x="303.5" y="-287.3" font-family="Times,serif" font-size="14.00" fill="#000000">&lt;bb 4&gt;:</text>
<polyline fill="none" stroke="#000000" points="295.5,-279.5 586.5,-279.5 "/>
<text text-anchor="start" x="303.5" y="-264.3" font-family="Times,serif" font-size="14.00" fill="#000000"># temp_2 = PHI &lt;_13(2), temp_5(3)&gt;</text>
<polyline fill="none" stroke="#000000" points="295.5,-256.5 586.5,-256.5 "/>
<text text-anchor="start" x="303.5" y="-241.3" font-family="Times,serif" font-size="14.00" fill="#000000">_6 = (u32) temp_2;</text>
<polyline fill="none" stroke="#000000" points="295.5,-233.5 586.5,-233.5 "/>
<text text-anchor="start" x="303.5" y="-218.3" font-family="Times,serif" font-size="14.00" fill="#000000">return _6;</text>
</g>
<!-- fn_24_basic_block_2&#45;&gt;fn_24_basic_block_4 -->
<g id="edge6" class="edge">
<title>fn_24_basic_block_2:s&#45;&gt;fn_24_basic_block_4:n</title>
<path fill="none" stroke="#000000" stroke-width="2" d="M441,-666.5C441,-618.1678 540,-669.8322 540,-621.5 540,-621.5 540,-621.5 540,-439.5 540,-376.2231 451.532,-390.9702 441.8559,-336.2271"/>
<polygon fill="#000000" stroke="#000000" stroke-width="2" points="445.3218,-335.6733 441,-326 438.3462,-336.2571 445.3218,-335.6733"/>
<text text-anchor="middle" x="561.5" y="-526.8" font-family="Times,serif" font-size="14.00" fill="#000000">[60%]</text>
</g>
<!-- fn_24_basic_block_3&#45;&gt;fn_24_basic_block_4 -->
<g id="edge7" class="edge">
<title>fn_24_basic_block_3:s&#45;&gt;fn_24_basic_block_4:n</title>
<path fill="none" stroke="#0000ff" stroke-width="2" d="M441,-495.5C441,-423.6979 441,-403.2231 441,-336.233"/>
<polygon fill="#0000ff" stroke="#0000ff" stroke-width="2" points="444.5001,-336 441,-326 437.5001,-336 444.5001,-336"/>
<text text-anchor="middle" x="467" y="-435.8" font-family="Times,serif" font-size="14.00" fill="#000000">[100%]</text>
</g>
<!-- fn_24_basic_block_4&#45;&gt;fn_24_basic_block_1 -->
<g id="edge8" class="edge">
<title>fn_24_basic_block_4:s&#45;&gt;fn_24_basic_block_1:n</title>
<path fill="none" stroke="#000000" stroke-width="2" d="M441,-210C441,-143.3438 441,-124.141 441,-62.3043"/>
<polygon fill="#000000" stroke="#000000" stroke-width="2" points="444.5001,-62 441,-52 437.5001,-62 444.5001,-62"/>
<text text-anchor="middle" x="467" y="-92.8" font-family="Times,serif" font-size="14.00" fill="#000000">[100%]</text>
</g>
<!-- fn_25_basic_block_0 -->
<g id="node9" class="node">
<title>fn_25_basic_block_0</title>
<polygon fill="#ffffff" stroke="#000000" points="726,-1136 662.6562,-1118 726,-1100 789.3438,-1118 726,-1136"/>
<polyline fill="none" stroke="#000000" points="674.1992,-1121.2801 674.1992,-1114.7199 "/>
<polyline fill="none" stroke="#000000" points="714.457,-1103.2801 737.543,-1103.2801 "/>
<polyline fill="none" stroke="#000000" points="777.8008,-1114.7199 777.8008,-1121.2801 "/>
<polyline fill="none" stroke="#000000" points="737.543,-1132.7199 714.457,-1132.7199 "/>
<text text-anchor="middle" x="726" y="-1114.3" font-family="Times,serif" font-size="14.00" fill="#000000">ENTRY</text>
</g>
<!-- fn_25_basic_block_1 -->
<g id="node10" class="node">
<title>fn_25_basic_block_1</title>
<polygon fill="#ffffff" stroke="#000000" points="735,-52 686.0684,-34 735,-16 783.9316,-34 735,-52"/>
<polyline fill="none" stroke="#000000" points="697.3305,-38.1429 697.3305,-29.8571 "/>
<polyline fill="none" stroke="#000000" points="723.7378,-20.1429 746.2622,-20.1429 "/>
<polyline fill="none" stroke="#000000" points="772.6695,-29.8571 772.6695,-38.1429 "/>
<polyline fill="none" stroke="#000000" points="746.2622,-47.8571 723.7378,-47.8571 "/>
<text text-anchor="middle" x="735" y="-30.3" font-family="Times,serif" font-size="14.00" fill="#000000">EXIT</text>
</g>
<!-- fn_25_basic_block_0&#45;&gt;fn_25_basic_block_1 -->
<!-- fn_25_basic_block_2 -->
<g id="node11" class="node">
<title>fn_25_basic_block_2</title>
<polygon fill="#d3d3d3" stroke="#000000" points="630.5,-781.5 630.5,-895.5 821.5,-895.5 821.5,-781.5 630.5,-781.5"/>
<text text-anchor="middle" x="726" y="-880.3" font-family="Times,serif" font-size="14.00" fill="#000000">FREQ:10000</text>
<polyline fill="none" stroke="#000000" points="630.5,-872.5 821.5,-872.5 "/>
<text text-anchor="start" x="638.5" y="-857.3" font-family="Times,serif" font-size="14.00" fill="#000000">&lt;bb 2&gt;:</text>
<polyline fill="none" stroke="#000000" points="630.5,-849.5 821.5,-849.5 "/>
<text text-anchor="start" x="638.5" y="-834.3" font-family="Times,serif" font-size="14.00" fill="#000000">if (lngval_7(D) != 0)</text>
<text text-anchor="start" x="638.5" y="-819.3" font-family="Times,serif" font-size="14.00" fill="#000000"> &#160;goto &lt;bb 3&gt;; [54.00%]</text>
<text text-anchor="start" x="638.5" y="-804.3" font-family="Times,serif" font-size="14.00" fill="#000000">else</text>
<text text-anchor="start" x="638.5" y="-789.3" font-family="Times,serif" font-size="14.00" fill="#000000"> &#160;goto &lt;bb 4&gt;; [46.00%]</text>
</g>
<!-- fn_25_basic_block_0&#45;&gt;fn_25_basic_block_2 -->
<g id="edge10" class="edge">
<title>fn_25_basic_block_0:s&#45;&gt;fn_25_basic_block_2:n</title>
<path fill="none" stroke="#0000ff" stroke-width="2" d="M726,-1100C726,-1012.5727 726,-988.2186 726,-905.5957"/>
<polygon fill="#0000ff" stroke="#0000ff" stroke-width="2" points="729.5001,-905.5 726,-895.5 722.5001,-905.5 729.5001,-905.5"/>
<text text-anchor="middle" x="752" y="-1051.8" font-family="Times,serif" font-size="14.00" fill="#000000">[100%]</text>
</g>
<!-- fn_25_basic_block_3 -->
<g id="node12" class="node">
<title>fn_25_basic_block_3</title>
<polygon fill="#d3d3d3" stroke="#000000" points="630,-484.5 630,-576.5 764,-576.5 764,-484.5 630,-484.5"/>
<text text-anchor="middle" x="697" y="-561.3" font-family="Times,serif" font-size="14.00" fill="#000000">FREQ:5400</text>
<polyline fill="none" stroke="#000000" points="630,-553.5 764,-553.5 "/>
<text text-anchor="start" x="638" y="-538.3" font-family="Times,serif" font-size="14.00" fill="#000000">&lt;bb 3&gt;:</text>
<polyline fill="none" stroke="#000000" points="630,-530.5 764,-530.5 "/>
<text text-anchor="start" x="638" y="-515.3" font-family="Times,serif" font-size="14.00" fill="#000000">randw[0] = 13;</text>
<polyline fill="none" stroke="#000000" points="630,-507.5 764,-507.5 "/>
<text text-anchor="start" x="638" y="-492.3" font-family="Times,serif" font-size="14.00" fill="#000000">randw[1] = 117;</text>
</g>
<!-- fn_25_basic_block_2&#45;&gt;fn_25_basic_block_3 -->
<g id="edge11" class="edge">
<title>fn_25_basic_block_2:s&#45;&gt;fn_25_basic_block_3:n</title>
<path fill="none" stroke="#000000" stroke-width="2" d="M726,-781.5C726,-692.9864 699.1669,-670.2181 697.123,-586.7125"/>
<polygon fill="#000000" stroke="#000000" stroke-width="2" points="700.6203,-586.4571 697,-576.5 693.6208,-586.5415 700.6203,-586.4571"/>
<text text-anchor="middle" x="721.5" y="-617.8" font-family="Times,serif" font-size="14.00" fill="#000000">[54%]</text>
</g>
<!-- fn_25_basic_block_4 -->
<g id="node13" class="node">
<title>fn_25_basic_block_4</title>
<polygon fill="#d3d3d3" stroke="#000000" points="630.5,-141.5 630.5,-394.5 839.5,-394.5 839.5,-141.5 630.5,-141.5"/>
<text text-anchor="middle" x="735" y="-379.3" font-family="Times,serif" font-size="14.00" fill="#000000">FREQ:10000</text>
<polyline fill="none" stroke="#000000" points="630.5,-371.5 839.5,-371.5 "/>
<text text-anchor="start" x="638.5" y="-356.3" font-family="Times,serif" font-size="14.00" fill="#000000">&lt;bb 4&gt;:</text>
<polyline fill="none" stroke="#000000" points="630.5,-348.5 839.5,-348.5 "/>
<text text-anchor="start" x="638.5" y="-333.3" font-family="Times,serif" font-size="14.00" fill="#000000">_1 = randw[0];</text>
<polyline fill="none" stroke="#000000" points="630.5,-325.5 839.5,-325.5 "/>
<text text-anchor="start" x="638.5" y="-310.3" font-family="Times,serif" font-size="14.00" fill="#000000">_2 = _1 * 254754;</text>
<polyline fill="none" stroke="#000000" points="630.5,-302.5 839.5,-302.5 "/>
<text text-anchor="start" x="638.5" y="-287.3" font-family="Times,serif" font-size="14.00" fill="#000000">_3 = randw[1];</text>
<polyline fill="none" stroke="#000000" points="630.5,-279.5 839.5,-279.5 "/>
<text text-anchor="start" x="638.5" y="-264.3" font-family="Times,serif" font-size="14.00" fill="#000000">_4 = _3 * 529562;</text>
<polyline fill="none" stroke="#000000" points="630.5,-256.5 839.5,-256.5 "/>
<text text-anchor="start" x="638.5" y="-241.3" font-family="Times,serif" font-size="14.00" fill="#000000">_5 = _2 + _4;</text>
<polyline fill="none" stroke="#000000" points="630.5,-233.5 839.5,-233.5 "/>
<text text-anchor="start" x="638.5" y="-218.3" font-family="Times,serif" font-size="14.00" fill="#000000">interm_11 = _5 % 999563;</text>
<polyline fill="none" stroke="#000000" points="630.5,-210.5 839.5,-210.5 "/>
<text text-anchor="start" x="638.5" y="-195.3" font-family="Times,serif" font-size="14.00" fill="#000000">randw[1] = _1;</text>
<polyline fill="none" stroke="#000000" points="630.5,-187.5 839.5,-187.5 "/>
<text text-anchor="start" x="638.5" y="-172.3" font-family="Times,serif" font-size="14.00" fill="#000000">randw[0] = interm_11;</text>
<polyline fill="none" stroke="#000000" points="630.5,-164.5 839.5,-164.5 "/>
<text text-anchor="start" x="638.5" y="-149.3" font-family="Times,serif" font-size="14.00" fill="#000000">return interm_11;</text>
</g>
<!-- fn_25_basic_block_2&#45;&gt;fn_25_basic_block_4 -->
<g id="edge12" class="edge">
<title>fn_25_basic_block_2:s&#45;&gt;fn_25_basic_block_4:n</title>
<path fill="none" stroke="#000000" stroke-width="2" d="M726,-781.5C726,-703.1516 800,-699.8484 800,-621.5 800,-621.5 800,-621.5 800,-439.5 800,-408.4556 748.8924,-425.0051 737.3134,-404.7437"/>
<polygon fill="#000000" stroke="#000000" stroke-width="2" points="740.7154,-403.921 735,-395 733.9048,-405.5381 740.7154,-403.921"/>
<text text-anchor="middle" x="821.5" y="-526.8" font-family="Times,serif" font-size="14.00" fill="#000000">[46%]</text>
</g>
<!-- fn_25_basic_block_3&#45;&gt;fn_25_basic_block_4 -->
<g id="edge13" class="edge">
<title>fn_25_basic_block_3:s&#45;&gt;fn_25_basic_block_4:n</title>
<path fill="none" stroke="#0000ff" stroke-width="2" d="M697,-484.5C697,-444.9991 728.7494,-439.0389 734.2063,-405.3028"/>
<polygon fill="#0000ff" stroke="#0000ff" stroke-width="2" points="737.7215,-405.2393 735,-395 730.7422,-404.7016 737.7215,-405.2393"/>
<text text-anchor="middle" x="747" y="-435.8" font-family="Times,serif" font-size="14.00" fill="#000000">[100%]</text>
</g>
<!-- fn_25_basic_block_4&#45;&gt;fn_25_basic_block_1 -->
<g id="edge14" class="edge">
<title>fn_25_basic_block_4:s&#45;&gt;fn_25_basic_block_1:n</title>
<path fill="none" stroke="#000000" stroke-width="2" d="M735,-141C735,-105.1528 735,-93.6705 735,-62.3917"/>
<polygon fill="#000000" stroke="#000000" stroke-width="2" points="738.5001,-62 735,-52 731.5001,-62 738.5001,-62"/>
<text text-anchor="middle" x="761" y="-92.8" font-family="Times,serif" font-size="14.00" fill="#000000">[100%]</text>
</g>
</g>
</svg>
