<?xml version="1.0" encoding="UTF-8" standalone="no"?>
<!DOCTYPE svg PUBLIC "-//W3C//DTD SVG 1.1//EN"
 "http://www.w3.org/Graphics/SVG/1.1/DTD/svg11.dtd">
<!-- Generated by graphviz version 2.40.1 (20161225.0304)
 -->
<!-- Title: misc.c.046t.profile_estimate Pages: 1 -->
<svg width="875pt" height="1183pt"
 viewBox="0.00 0.00 875.00 1183.00" xmlns="http://www.w3.org/2000/svg" xmlns:xlink="http://www.w3.org/1999/xlink">
<g id="graph0" class="graph" transform="scale(1 1) rotate(0) translate(4 1179)">
<title>misc.c.046t.profile_estimate</title>
<polygon fill="#ffffff" stroke="transparent" points="-4,4 -4,-1179 871,-1179 871,4 -4,4"/>
<g id="clust1" class="cluster">
<title>cluster_randnum</title>
<polygon fill="none" stroke="#000000" stroke-dasharray="5,2" points="8,-8 8,-1167 257,-1167 257,-8 8,-8"/>
<text text-anchor="middle" x="132.5" y="-1151.8" font-family="Times,serif" font-size="14.00" fill="#000000">randnum ()</text>
</g>
<g id="clust2" class="cluster">
<title>cluster_randwc</title>
<polygon fill="none" stroke="#000000" stroke-dasharray="5,2" points="265,-504.5 265,-1167 525,-1167 525,-504.5 265,-504.5"/>
<text text-anchor="middle" x="395" y="-1151.8" font-family="Times,serif" font-size="14.00" fill="#000000">randwc ()</text>
</g>
<g id="clust3" class="cluster">
<title>cluster_abs_randwc</title>
<polygon fill="none" stroke="#000000" stroke-dasharray="5,2" points="533,-8 533,-1167 859,-1167 859,-8 533,-8"/>
<text text-anchor="middle" x="696" y="-1151.8" font-family="Times,serif" font-size="14.00" fill="#000000">abs_randwc ()</text>
</g>
<!-- fn_25_basic_block_0 -->
<g id="node1" class="node">
<title>fn_25_basic_block_0</title>
<polygon fill="#ffffff" stroke="#000000" points="132,-1136 68.6562,-1118 132,-1100 195.3438,-1118 132,-1136"/>
<polyline fill="none" stroke="#000000" points="80.1992,-1121.2801 80.1992,-1114.7199 "/>
<polyline fill="none" stroke="#000000" points="120.457,-1103.2801 143.543,-1103.2801 "/>
<polyline fill="none" stroke="#000000" points="183.8008,-1114.7199 183.8008,-1121.2801 "/>
<polyline fill="none" stroke="#000000" points="143.543,-1132.7199 120.457,-1132.7199 "/>
<text text-anchor="middle" x="132" y="-1114.3" font-family="Times,serif" font-size="14.00" fill="#000000">ENTRY</text>
</g>
<!-- fn_25_basic_block_1 -->
<g id="node2" class="node">
<title>fn_25_basic_block_1</title>
<polygon fill="#ffffff" stroke="#000000" points="141,-52 92.0684,-34 141,-16 189.9316,-34 141,-52"/>
<polyline fill="none" stroke="#000000" points="103.3305,-38.1429 103.3305,-29.8571 "/>
<polyline fill="none" stroke="#000000" points="129.7378,-20.1429 152.2622,-20.1429 "/>
<polyline fill="none" stroke="#000000" points="178.6695,-29.8571 178.6695,-38.1429 "/>
<polyline fill="none" stroke="#000000" points="152.2622,-47.8571 129.7378,-47.8571 "/>
<text text-anchor="middle" x="141" y="-30.3" font-family="Times,serif" font-size="14.00" fill="#000000">EXIT</text>
</g>
<!-- fn_25_basic_block_0&#45;&gt;fn_25_basic_block_1 -->
<!-- fn_25_basic_block_2 -->
<g id="node3" class="node">
<title>fn_25_basic_block_2</title>
<polygon fill="#d3d3d3" stroke="#000000" points="36.5,-781.5 36.5,-895.5 227.5,-895.5 227.5,-781.5 36.5,-781.5"/>
<text text-anchor="middle" x="132" y="-880.3" font-family="Times,serif" font-size="14.00" fill="#000000">FREQ:10000</text>
<polyline fill="none" stroke="#000000" points="36.5,-872.5 227.5,-872.5 "/>
<text text-anchor="start" x="44.5" y="-857.3" font-family="Times,serif" font-size="14.00" fill="#000000">&lt;bb 2&gt;:</text>
<polyline fill="none" stroke="#000000" points="36.5,-849.5 227.5,-849.5 "/>
<text text-anchor="start" x="44.5" y="-834.3" font-family="Times,serif" font-size="14.00" fill="#000000">if (lngval_8(D) != 0)</text>
<text text-anchor="start" x="44.5" y="-819.3" font-family="Times,serif" font-size="14.00" fill="#000000"> &#160;goto &lt;bb 3&gt;; [54.00%]</text>
<text text-anchor="start" x="44.5" y="-804.3" font-family="Times,serif" font-size="14.00" fill="#000000">else</text>
<text text-anchor="start" x="44.5" y="-789.3" font-family="Times,serif" font-size="14.00" fill="#000000"> &#160;goto &lt;bb 4&gt;; [46.00%]</text>
</g>
<!-- fn_25_basic_block_0&#45;&gt;fn_25_basic_block_2 -->
<g id="edge1" class="edge">
<title>fn_25_basic_block_0:s&#45;&gt;fn_25_basic_block_2:n</title>
<path fill="none" stroke="#0000ff" stroke-width="2" d="M132,-1100C132,-1012.5727 132,-988.2186 132,-905.5957"/>
<polygon fill="#0000ff" stroke="#0000ff" stroke-width="2" points="135.5001,-905.5 132,-895.5 128.5001,-905.5 135.5001,-905.5"/>
<text text-anchor="middle" x="158" y="-1051.8" font-family="Times,serif" font-size="14.00" fill="#000000">[100%]</text>
</g>
<!-- fn_25_basic_block_3 -->
<g id="node4" class="node">
<title>fn_25_basic_block_3</title>
<polygon fill="#d3d3d3" stroke="#000000" points="36,-484.5 36,-576.5 170,-576.5 170,-484.5 36,-484.5"/>
<text text-anchor="middle" x="103" y="-561.3" font-family="Times,serif" font-size="14.00" fill="#000000">FREQ:5400</text>
<polyline fill="none" stroke="#000000" points="36,-553.5 170,-553.5 "/>
<text text-anchor="start" x="44" y="-538.3" font-family="Times,serif" font-size="14.00" fill="#000000">&lt;bb 3&gt;:</text>
<polyline fill="none" stroke="#000000" points="36,-530.5 170,-530.5 "/>
<text text-anchor="start" x="44" y="-515.3" font-family="Times,serif" font-size="14.00" fill="#000000">randw[0] = 13;</text>
<polyline fill="none" stroke="#000000" points="36,-507.5 170,-507.5 "/>
<text text-anchor="start" x="44" y="-492.3" font-family="Times,serif" font-size="14.00" fill="#000000">randw[1] = 117;</text>
</g>
<!-- fn_25_basic_block_2&#45;&gt;fn_25_basic_block_3 -->
<g id="edge2" class="edge">
<title>fn_25_basic_block_2:s&#45;&gt;fn_25_basic_block_3:n</title>
<path fill="none" stroke="#000000" stroke-width="2" d="M132,-781.5C132,-692.9864 105.1669,-670.2181 103.123,-586.7125"/>
<polygon fill="#000000" stroke="#000000" stroke-width="2" points="106.6203,-586.4571 103,-576.5 99.6208,-586.5415 106.6203,-586.4571"/>
<text text-anchor="middle" x="127.5" y="-617.8" font-family="Times,serif" font-size="14.00" fill="#000000">[54%]</text>
</g>
<!-- fn_25_basic_block_4 -->
<g id="node5" class="node">
<title>fn_25_basic_block_4</title>
<polygon fill="#d3d3d3" stroke="#000000" points="36.5,-141.5 36.5,-394.5 245.5,-394.5 245.5,-141.5 36.5,-141.5"/>
<text text-anchor="middle" x="141" y="-379.3" font-family="Times,serif" font-size="14.00" fill="#000000">FREQ:10000</text>
<polyline fill="none" stroke="#000000" points="36.5,-371.5 245.5,-371.5 "/>
<text text-anchor="start" x="44.5" y="-356.3" font-family="Times,serif" font-size="14.00" fill="#000000">&lt;bb 4&gt;:</text>
<polyline fill="none" stroke="#000000" points="36.5,-348.5 245.5,-348.5 "/>
<text text-anchor="start" x="44.5" y="-333.3" font-family="Times,serif" font-size="14.00" fill="#000000">_1 = randw[0];</text>
<polyline fill="none" stroke="#000000" points="36.5,-325.5 245.5,-325.5 "/>
<text text-anchor="start" x="44.5" y="-310.3" font-family="Times,serif" font-size="14.00" fill="#000000">_2 = _1 * 254754;</text>
<polyline fill="none" stroke="#000000" points="36.5,-302.5 245.5,-302.5 "/>
<text text-anchor="start" x="44.5" y="-287.3" font-family="Times,serif" font-size="14.00" fill="#000000">_3 = randw[1];</text>
<polyline fill="none" stroke="#000000" points="36.5,-279.5 245.5,-279.5 "/>
<text text-anchor="start" x="44.5" y="-264.3" font-family="Times,serif" font-size="14.00" fill="#000000">_4 = _3 * 529562;</text>
<polyline fill="none" stroke="#000000" points="36.5,-256.5 245.5,-256.5 "/>
<text text-anchor="start" x="44.5" y="-241.3" font-family="Times,serif" font-size="14.00" fill="#000000">_5 = _2 + _4;</text>
<polyline fill="none" stroke="#000000" points="36.5,-233.5 245.5,-233.5 "/>
<text text-anchor="start" x="44.5" y="-218.3" font-family="Times,serif" font-size="14.00" fill="#000000">interm_12 = _5 % 999563;</text>
<polyline fill="none" stroke="#000000" points="36.5,-210.5 245.5,-210.5 "/>
<text text-anchor="start" x="44.5" y="-195.3" font-family="Times,serif" font-size="14.00" fill="#000000">randw[1] = _1;</text>
<polyline fill="none" stroke="#000000" points="36.5,-187.5 245.5,-187.5 "/>
<text text-anchor="start" x="44.5" y="-172.3" font-family="Times,serif" font-size="14.00" fill="#000000">randw[0] = interm_12;</text>
<polyline fill="none" stroke="#000000" points="36.5,-164.5 245.5,-164.5 "/>
<text text-anchor="start" x="44.5" y="-149.3" font-family="Times,serif" font-size="14.00" fill="#000000">return interm_12;</text>
</g>
<!-- fn_25_basic_block_2&#45;&gt;fn_25_basic_block_4 -->
<g id="edge3" class="edge">
<title>fn_25_basic_block_2:s&#45;&gt;fn_25_basic_block_4:n</title>
<path fill="none" stroke="#000000" stroke-width="2" d="M132,-781.5C132,-703.1516 206,-699.8484 206,-621.5 206,-621.5 206,-621.5 206,-439.5 206,-408.4556 154.8924,-425.0051 143.3134,-404.7437"/>
<polygon fill="#000000" stroke="#000000" stroke-width="2" points="146.7154,-403.921 141,-395 139.9048,-405.5381 146.7154,-403.921"/>
<text text-anchor="middle" x="227.5" y="-526.8" font-family="Times,serif" font-size="14.00" fill="#000000">[46%]</text>
</g>
<!-- fn_25_basic_block_3&#45;&gt;fn_25_basic_block_4 -->
<g id="edge4" class="edge">
<title>fn_25_basic_block_3:s&#45;&gt;fn_25_basic_block_4:n</title>
<path fill="none" stroke="#0000ff" stroke-width="2" d="M103,-484.5C103,-444.9991 134.7494,-439.0389 140.2063,-405.3028"/>
<polygon fill="#0000ff" stroke="#0000ff" stroke-width="2" points="143.7215,-405.2393 141,-395 136.7422,-404.7016 143.7215,-405.2393"/>
<text text-anchor="middle" x="153" y="-435.8" font-family="Times,serif" font-size="14.00" fill="#000000">[100%]</text>
</g>
<!-- fn_25_basic_block_4&#45;&gt;fn_25_basic_block_1 -->
<g id="edge5" class="edge">
<title>fn_25_basic_block_4:s&#45;&gt;fn_25_basic_block_1:n</title>
<path fill="none" stroke="#000000" stroke-width="2" d="M141,-141C141,-105.1528 141,-93.6705 141,-62.3917"/>
<polygon fill="#000000" stroke="#000000" stroke-width="2" points="144.5001,-62 141,-52 137.5001,-62 144.5001,-62"/>
<text text-anchor="middle" x="167" y="-92.8" font-family="Times,serif" font-size="14.00" fill="#000000">[100%]</text>
</g>
<!-- fn_23_basic_block_0 -->
<g id="node6" class="node">
<title>fn_23_basic_block_0</title>
<polygon fill="#ffffff" stroke="#000000" points="405,-1136 341.6562,-1118 405,-1100 468.3438,-1118 405,-1136"/>
<polyline fill="none" stroke="#000000" points="353.1992,-1121.2801 353.1992,-1114.7199 "/>
<polyline fill="none" stroke="#000000" points="393.457,-1103.2801 416.543,-1103.2801 "/>
<polyline fill="none" stroke="#000000" points="456.8008,-1114.7199 456.8008,-1121.2801 "/>
<polyline fill="none" stroke="#000000" points="416.543,-1132.7199 393.457,-1132.7199 "/>
<text text-anchor="middle" x="405" y="-1114.3" font-family="Times,serif" font-size="14.00" fill="#000000">ENTRY</text>
</g>
<!-- fn_23_basic_block_1 -->
<g id="node7" class="node">
<title>fn_23_basic_block_1</title>
<polygon fill="#ffffff" stroke="#000000" points="405,-548.5 356.0684,-530.5 405,-512.5 453.9316,-530.5 405,-548.5"/>
<polyline fill="none" stroke="#000000" points="367.3305,-534.6429 367.3305,-526.3571 "/>
<polyline fill="none" stroke="#000000" points="393.7378,-516.6429 416.2622,-516.6429 "/>
<polyline fill="none" stroke="#000000" points="442.6695,-526.3571 442.6695,-534.6429 "/>
<polyline fill="none" stroke="#000000" points="416.2622,-544.3571 393.7378,-544.3571 "/>
<text text-anchor="middle" x="405" y="-526.8" font-family="Times,serif" font-size="14.00" fill="#000000">EXIT</text>
</g>
<!-- fn_23_basic_block_0&#45;&gt;fn_23_basic_block_1 -->
<!-- fn_23_basic_block_2 -->
<g id="node8" class="node">
<title>fn_23_basic_block_2</title>
<polygon fill="#d3d3d3" stroke="#000000" points="293,-700.5 293,-976.5 517,-976.5 517,-700.5 293,-700.5"/>
<text text-anchor="middle" x="405" y="-961.3" font-family="Times,serif" font-size="14.00" fill="#000000">FREQ:10000</text>
<polyline fill="none" stroke="#000000" points="293,-953.5 517,-953.5 "/>
<text text-anchor="start" x="301" y="-938.3" font-family="Times,serif" font-size="14.00" fill="#000000">&lt;bb 2&gt;:</text>
<polyline fill="none" stroke="#000000" points="293,-930.5 517,-930.5 "/>
<text text-anchor="start" x="301" y="-915.3" font-family="Times,serif" font-size="14.00" fill="#000000">_6 = randw[0];</text>
<polyline fill="none" stroke="#000000" points="293,-907.5 517,-907.5 "/>
<text text-anchor="start" x="301" y="-892.3" font-family="Times,serif" font-size="14.00" fill="#000000">_7 = _6 * 254754;</text>
<polyline fill="none" stroke="#000000" points="293,-884.5 517,-884.5 "/>
<text text-anchor="start" x="301" y="-869.3" font-family="Times,serif" font-size="14.00" fill="#000000">_8 = randw[1];</text>
<polyline fill="none" stroke="#000000" points="293,-861.5 517,-861.5 "/>
<text text-anchor="start" x="301" y="-846.3" font-family="Times,serif" font-size="14.00" fill="#000000">_9 = _8 * 529562;</text>
<polyline fill="none" stroke="#000000" points="293,-838.5 517,-838.5 "/>
<text text-anchor="start" x="301" y="-823.3" font-family="Times,serif" font-size="14.00" fill="#000000">_10 = _7 + _9;</text>
<polyline fill="none" stroke="#000000" points="293,-815.5 517,-815.5 "/>
<text text-anchor="start" x="301" y="-800.3" font-family="Times,serif" font-size="14.00" fill="#000000">interm_11 = _10 % 999563;</text>
<polyline fill="none" stroke="#000000" points="293,-792.5 517,-792.5 "/>
<text text-anchor="start" x="301" y="-777.3" font-family="Times,serif" font-size="14.00" fill="#000000">randw[1] = _6;</text>
<polyline fill="none" stroke="#000000" points="293,-769.5 517,-769.5 "/>
<text text-anchor="start" x="301" y="-754.3" font-family="Times,serif" font-size="14.00" fill="#000000">randw[0] = interm_11;</text>
<polyline fill="none" stroke="#000000" points="293,-746.5 517,-746.5 "/>
<text text-anchor="start" x="301" y="-731.3" font-family="Times,serif" font-size="14.00" fill="#000000">_5 = interm_11 % num_4(D);</text>
<polyline fill="none" stroke="#000000" points="293,-723.5 517,-723.5 "/>
<text text-anchor="start" x="301" y="-708.3" font-family="Times,serif" font-size="14.00" fill="#000000">return _5;</text>
</g>
<!-- fn_23_basic_block_0&#45;&gt;fn_23_basic_block_2 -->
<g id="edge7" class="edge">
<title>fn_23_basic_block_0:s&#45;&gt;fn_23_basic_block_2:n</title>
<path fill="none" stroke="#0000ff" stroke-width="2" d="M405,-1100C405,-1048.6489 405,-1033.3288 405,-986.6223"/>
<polygon fill="#0000ff" stroke="#0000ff" stroke-width="2" points="408.5001,-986.5 405,-976.5 401.5001,-986.5 408.5001,-986.5"/>
<text text-anchor="middle" x="431" y="-1051.8" font-family="Times,serif" font-size="14.00" fill="#000000">[100%]</text>
</g>
<!-- fn_23_basic_block_2&#45;&gt;fn_23_basic_block_1 -->
<g id="edge8" class="edge">
<title>fn_23_basic_block_2:s&#45;&gt;fn_23_basic_block_1:n</title>
<path fill="none" stroke="#000000" stroke-width="2" d="M405,-700.5C405,-636.5069 405,-617.9777 405,-558.7797"/>
<polygon fill="#000000" stroke="#000000" stroke-width="2" points="408.5001,-558.5 405,-548.5 401.5001,-558.5 408.5001,-558.5"/>
<text text-anchor="middle" x="431" y="-617.8" font-family="Times,serif" font-size="14.00" fill="#000000">[100%]</text>
</g>
<!-- fn_24_basic_block_0 -->
<g id="node9" class="node">
<title>fn_24_basic_block_0</title>
<polygon fill="#ffffff" stroke="#000000" points="706,-1136 642.6562,-1118 706,-1100 769.3438,-1118 706,-1136"/>
<polyline fill="none" stroke="#000000" points="654.1992,-1121.2801 654.1992,-1114.7199 "/>
<polyline fill="none" stroke="#000000" points="694.457,-1103.2801 717.543,-1103.2801 "/>
<polyline fill="none" stroke="#000000" points="757.8008,-1114.7199 757.8008,-1121.2801 "/>
<polyline fill="none" stroke="#000000" points="717.543,-1132.7199 694.457,-1132.7199 "/>
<text text-anchor="middle" x="706" y="-1114.3" font-family="Times,serif" font-size="14.00" fill="#000000">ENTRY</text>
</g>
<!-- fn_24_basic_block_1 -->
<g id="node10" class="node">
<title>fn_24_basic_block_1</title>
<polygon fill="#ffffff" stroke="#000000" points="706,-52 657.0684,-34 706,-16 754.9316,-34 706,-52"/>
<polyline fill="none" stroke="#000000" points="668.3305,-38.1429 668.3305,-29.8571 "/>
<polyline fill="none" stroke="#000000" points="694.7378,-20.1429 717.2622,-20.1429 "/>
<polyline fill="none" stroke="#000000" points="743.6695,-29.8571 743.6695,-38.1429 "/>
<polyline fill="none" stroke="#000000" points="717.2622,-47.8571 694.7378,-47.8571 "/>
<text text-anchor="middle" x="706" y="-30.3" font-family="Times,serif" font-size="14.00" fill="#000000">EXIT</text>
</g>
<!-- fn_24_basic_block_0&#45;&gt;fn_24_basic_block_1 -->
<!-- fn_24_basic_block_2 -->
<g id="node11" class="node">
<title>fn_24_basic_block_2</title>
<polygon fill="#d3d3d3" stroke="#000000" points="593.5,-666.5 593.5,-1010.5 818.5,-1010.5 818.5,-666.5 593.5,-666.5"/>
<text text-anchor="middle" x="706" y="-995.3" font-family="Times,serif" font-size="14.00" fill="#000000">FREQ:10000</text>
<polyline fill="none" stroke="#000000" points="593.5,-987.5 818.5,-987.5 "/>
<text text-anchor="start" x="601.5" y="-972.3" font-family="Times,serif" font-size="14.00" fill="#000000">&lt;bb 2&gt;:</text>
<polyline fill="none" stroke="#000000" points="593.5,-964.5 818.5,-964.5 "/>
<text text-anchor="start" x="601.5" y="-949.3" font-family="Times,serif" font-size="14.00" fill="#000000">num.0_1 = (int) num_3(D);</text>
<polyline fill="none" stroke="#000000" points="593.5,-941.5 818.5,-941.5 "/>
<text text-anchor="start" x="601.5" y="-926.3" font-family="Times,serif" font-size="14.00" fill="#000000">_9 = randw[0];</text>
<polyline fill="none" stroke="#000000" points="593.5,-918.5 818.5,-918.5 "/>
<text text-anchor="start" x="601.5" y="-903.3" font-family="Times,serif" font-size="14.00" fill="#000000">_10 = _9 * 254754;</text>
<polyline fill="none" stroke="#000000" points="593.5,-895.5 818.5,-895.5 "/>
<text text-anchor="start" x="601.5" y="-880.3" font-family="Times,serif" font-size="14.00" fill="#000000">_11 = randw[1];</text>
<polyline fill="none" stroke="#000000" points="593.5,-872.5 818.5,-872.5 "/>
<text text-anchor="start" x="601.5" y="-857.3" font-family="Times,serif" font-size="14.00" fill="#000000">_12 = _11 * 529562;</text>
<polyline fill="none" stroke="#000000" points="593.5,-849.5 818.5,-849.5 "/>
<text text-anchor="start" x="601.5" y="-834.3" font-family="Times,serif" font-size="14.00" fill="#000000">_13 = _10 + _12;</text>
<polyline fill="none" stroke="#000000" points="593.5,-826.5 818.5,-826.5 "/>
<text text-anchor="start" x="601.5" y="-811.3" font-family="Times,serif" font-size="14.00" fill="#000000">interm_14 = _13 % 999563;</text>
<polyline fill="none" stroke="#000000" points="593.5,-803.5 818.5,-803.5 "/>
<text text-anchor="start" x="601.5" y="-788.3" font-family="Times,serif" font-size="14.00" fill="#000000">randw[1] = _9;</text>
<polyline fill="none" stroke="#000000" points="593.5,-780.5 818.5,-780.5 "/>
<text text-anchor="start" x="601.5" y="-765.3" font-family="Times,serif" font-size="14.00" fill="#000000">randw[0] = interm_14;</text>
<polyline fill="none" stroke="#000000" points="593.5,-757.5 818.5,-757.5 "/>
<text text-anchor="start" x="601.5" y="-742.3" font-family="Times,serif" font-size="14.00" fill="#000000">_15 = interm_14 % num.0_1;</text>
<polyline fill="none" stroke="#000000" points="593.5,-734.5 818.5,-734.5 "/>
<text text-anchor="start" x="601.5" y="-719.3" font-family="Times,serif" font-size="14.00" fill="#000000">if (_15 &lt; 0)</text>
<text text-anchor="start" x="601.5" y="-704.3" font-family="Times,serif" font-size="14.00" fill="#000000"> &#160;goto &lt;bb 3&gt;; [39.77%]</text>
<text text-anchor="start" x="601.5" y="-689.3" font-family="Times,serif" font-size="14.00" fill="#000000">else</text>
<text text-anchor="start" x="601.5" y="-674.3" font-family="Times,serif" font-size="14.00" fill="#000000"> &#160;goto &lt;bb 4&gt;; [60.23%]</text>
</g>
<!-- fn_24_basic_block_0&#45;&gt;fn_24_basic_block_2 -->
<g id="edge10" class="edge">
<title>fn_24_basic_block_0:s&#45;&gt;fn_24_basic_block_2:n</title>
<path fill="none" stroke="#0000ff" stroke-width="2" d="M706,-1100C706,-1063.796 706,-1052.3055 706,-1020.5422"/>
<polygon fill="#0000ff" stroke="#0000ff" stroke-width="2" points="709.5001,-1020.5 706,-1010.5 702.5001,-1020.5 709.5001,-1020.5"/>
<text text-anchor="middle" x="732" y="-1051.8" font-family="Times,serif" font-size="14.00" fill="#000000">[100%]</text>
</g>
<!-- fn_24_basic_block_3 -->
<g id="node12" class="node">
<title>fn_24_basic_block_3</title>
<polygon fill="#d3d3d3" stroke="#000000" points="643.5,-496 643.5,-565 768.5,-565 768.5,-496 643.5,-496"/>
<text text-anchor="middle" x="706" y="-549.8" font-family="Times,serif" font-size="14.00" fill="#000000">FREQ:3977</text>
<polyline fill="none" stroke="#000000" points="643.5,-542 768.5,-542 "/>
<text text-anchor="start" x="651.5" y="-526.8" font-family="Times,serif" font-size="14.00" fill="#000000">&lt;bb 3&gt;:</text>
<polyline fill="none" stroke="#000000" points="643.5,-519 768.5,-519 "/>
<text text-anchor="start" x="651.5" y="-503.8" font-family="Times,serif" font-size="14.00" fill="#000000">temp_7 = &#45;_15;</text>
</g>
<!-- fn_24_basic_block_2&#45;&gt;fn_24_basic_block_3 -->
<g id="edge11" class="edge">
<title>fn_24_basic_block_2:s&#45;&gt;fn_24_basic_block_3:n</title>
<path fill="none" stroke="#000000" stroke-width="2" d="M706,-666.5C706,-625.2934 706,-612.4566 706,-575.9044"/>
<polygon fill="#000000" stroke="#000000" stroke-width="2" points="709.5001,-575.5 706,-565.5 702.5001,-575.5 709.5001,-575.5"/>
<text text-anchor="middle" x="727.5" y="-617.8" font-family="Times,serif" font-size="14.00" fill="#000000">[39%]</text>
</g>
<!-- fn_24_basic_block_4 -->
<g id="node13" class="node">
<title>fn_24_basic_block_4</title>
<polygon fill="#d3d3d3" stroke="#000000" points="560.5,-210.5 560.5,-325.5 851.5,-325.5 851.5,-210.5 560.5,-210.5"/>
<text text-anchor="middle" x="706" y="-310.3" font-family="Times,serif" font-size="14.00" fill="#000000">FREQ:10000</text>
<polyline fill="none" stroke="#000000" points="560.5,-302.5 851.5,-302.5 "/>
<text text-anchor="start" x="568.5" y="-287.3" font-family="Times,serif" font-size="14.00" fill="#000000">&lt;bb 4&gt;:</text>
<polyline fill="none" stroke="#000000" points="560.5,-279.5 851.5,-279.5 "/>
<text text-anchor="start" x="568.5" y="-264.3" font-family="Times,serif" font-size="14.00" fill="#000000"># temp_2 = PHI &lt;_15(2), temp_7(3)&gt;</text>
<polyline fill="none" stroke="#000000" points="560.5,-256.5 851.5,-256.5 "/>
<text text-anchor="start" x="568.5" y="-241.3" font-family="Times,serif" font-size="14.00" fill="#000000">_8 = (u32) temp_2;</text>
<polyline fill="none" stroke="#000000" points="560.5,-233.5 851.5,-233.5 "/>
<text text-anchor="start" x="568.5" y="-218.3" font-family="Times,serif" font-size="14.00" fill="#000000">return _8;</text>
</g>
<!-- fn_24_basic_block_2&#45;&gt;fn_24_basic_block_4 -->
<g id="edge12" class="edge">
<title>fn_24_basic_block_2:s&#45;&gt;fn_24_basic_block_4:n</title>
<path fill="none" stroke="#000000" stroke-width="2" d="M706,-666.5C706,-618.1678 805,-669.8322 805,-621.5 805,-621.5 805,-621.5 805,-439.5 805,-376.2231 716.532,-390.9702 706.8559,-336.2271"/>
<polygon fill="#000000" stroke="#000000" stroke-width="2" points="710.3218,-335.6733 706,-326 703.3462,-336.2571 710.3218,-335.6733"/>
<text text-anchor="middle" x="826.5" y="-526.8" font-family="Times,serif" font-size="14.00" fill="#000000">[60%]</text>
</g>
<!-- fn_24_basic_block_3&#45;&gt;fn_24_basic_block_4 -->
<g id="edge13" class="edge">
<title>fn_24_basic_block_3:s&#45;&gt;fn_24_basic_block_4:n</title>
<path fill="none" stroke="#0000ff" stroke-width="2" d="M706,-495.5C706,-423.6979 706,-403.2231 706,-336.233"/>
<polygon fill="#0000ff" stroke="#0000ff" stroke-width="2" points="709.5001,-336 706,-326 702.5001,-336 709.5001,-336"/>
<text text-anchor="middle" x="732" y="-435.8" font-family="Times,serif" font-size="14.00" fill="#000000">[100%]</text>
</g>
<!-- fn_24_basic_block_4&#45;&gt;fn_24_basic_block_1 -->
<g id="edge14" class="edge">
<title>fn_24_basic_block_4:s&#45;&gt;fn_24_basic_block_1:n</title>
<path fill="none" stroke="#000000" stroke-width="2" d="M706,-210C706,-143.3438 706,-124.141 706,-62.3043"/>
<polygon fill="#000000" stroke="#000000" stroke-width="2" points="709.5001,-62 706,-52 702.5001,-62 709.5001,-62"/>
<text text-anchor="middle" x="732" y="-92.8" font-family="Times,serif" font-size="14.00" fill="#000000">[100%]</text>
</g>
</g>
</svg>
