<?xml version="1.0" encoding="UTF-8" standalone="no"?>
<!DOCTYPE svg PUBLIC "-//W3C//DTD SVG 1.1//EN"
 "http://www.w3.org/Graphics/SVG/1.1/DTD/svg11.dtd">
<!-- Generated by graphviz version 2.40.1 (20161225.0304)
 -->
<!-- Title: misc.c.012t.ompexp Pages: 1 -->
<svg width="726pt" height="1045pt"
 viewBox="0.00 0.00 726.00 1045.00" xmlns="http://www.w3.org/2000/svg" xmlns:xlink="http://www.w3.org/1999/xlink">
<g id="graph0" class="graph" transform="scale(1 1) rotate(0) translate(4 1041)">
<title>misc.c.012t.ompexp</title>
<polygon fill="#ffffff" stroke="transparent" points="-4,4 -4,-1041 722,-1041 722,4 -4,4"/>
<g id="clust1" class="cluster">
<title>cluster_randwc</title>
<polygon fill="none" stroke="#000000" stroke-dasharray="5,2" points="8,-550.5 8,-1029 208,-1029 208,-550.5 8,-550.5"/>
<text text-anchor="middle" x="108" y="-1013.8" font-family="Times,serif" font-size="14.00" fill="#000000">randwc ()</text>
</g>
<g id="clust2" class="cluster">
<title>cluster_abs_randwc</title>
<polygon fill="none" stroke="#000000" stroke-dasharray="5,2" points="216,-8 216,-1029 462,-1029 462,-8 216,-8"/>
<text text-anchor="middle" x="339" y="-1013.8" font-family="Times,serif" font-size="14.00" fill="#000000">abs_randwc ()</text>
</g>
<g id="clust3" class="cluster">
<title>cluster_randnum</title>
<polygon fill="none" stroke="#000000" stroke-dasharray="5,2" points="470,-8 470,-1029 710,-1029 710,-8 470,-8"/>
<text text-anchor="middle" x="590" y="-1013.8" font-family="Times,serif" font-size="14.00" fill="#000000">randnum ()</text>
</g>
<!-- fn_23_basic_block_0 -->
<g id="node1" class="node">
<title>fn_23_basic_block_0</title>
<polygon fill="#ffffff" stroke="#000000" points="118,-998 54.6562,-980 118,-962 181.3438,-980 118,-998"/>
<polyline fill="none" stroke="#000000" points="66.1992,-983.2801 66.1992,-976.7199 "/>
<polyline fill="none" stroke="#000000" points="106.457,-965.2801 129.543,-965.2801 "/>
<polyline fill="none" stroke="#000000" points="169.8008,-976.7199 169.8008,-983.2801 "/>
<polyline fill="none" stroke="#000000" points="129.543,-994.7199 106.457,-994.7199 "/>
<text text-anchor="middle" x="118" y="-976.3" font-family="Times,serif" font-size="14.00" fill="#000000">ENTRY</text>
</g>
<!-- fn_23_basic_block_1 -->
<g id="node2" class="node">
<title>fn_23_basic_block_1</title>
<polygon fill="#ffffff" stroke="#000000" points="118,-594.5 69.0684,-576.5 118,-558.5 166.9316,-576.5 118,-594.5"/>
<polyline fill="none" stroke="#000000" points="80.3305,-580.6429 80.3305,-572.3571 "/>
<polyline fill="none" stroke="#000000" points="106.7378,-562.6429 129.2622,-562.6429 "/>
<polyline fill="none" stroke="#000000" points="155.6695,-572.3571 155.6695,-580.6429 "/>
<polyline fill="none" stroke="#000000" points="129.2622,-590.3571 106.7378,-590.3571 "/>
<text text-anchor="middle" x="118" y="-572.8" font-family="Times,serif" font-size="14.00" fill="#000000">EXIT</text>
</g>
<!-- fn_23_basic_block_0&#45;&gt;fn_23_basic_block_1 -->
<!-- fn_23_basic_block_2 -->
<g id="node3" class="node">
<title>fn_23_basic_block_2</title>
<polygon fill="#d3d3d3" stroke="#000000" points="36,-735 36,-850 200,-850 200,-735 36,-735"/>
<text text-anchor="middle" x="118" y="-834.8" font-family="Times,serif" font-size="14.00" fill="#000000">FREQ:0</text>
<polyline fill="none" stroke="#000000" points="36,-827 200,-827 "/>
<text text-anchor="start" x="44" y="-811.8" font-family="Times,serif" font-size="14.00" fill="#000000">&lt;bb 2&gt;:</text>
<polyline fill="none" stroke="#000000" points="36,-804 200,-804 "/>
<text text-anchor="start" x="44" y="-788.8" font-family="Times,serif" font-size="14.00" fill="#000000">_1 = randnum (0);</text>
<polyline fill="none" stroke="#000000" points="36,-781 200,-781 "/>
<text text-anchor="start" x="44" y="-765.8" font-family="Times,serif" font-size="14.00" fill="#000000">D.2532 = _1 % num;</text>
<polyline fill="none" stroke="#000000" points="36,-758 200,-758 "/>
<text text-anchor="start" x="44" y="-742.8" font-family="Times,serif" font-size="14.00" fill="#000000">return D.2532;</text>
</g>
<!-- fn_23_basic_block_0&#45;&gt;fn_23_basic_block_2 -->
<g id="edge1" class="edge">
<title>fn_23_basic_block_0:s&#45;&gt;fn_23_basic_block_2:n</title>
<path fill="none" stroke="#0000ff" stroke-width="2" d="M118,-962C118,-916.0256 118,-902.0402 118,-860.6893"/>
<polygon fill="#0000ff" stroke="#0000ff" stroke-width="2" points="121.5001,-860.5 118,-850.5 114.5001,-860.5 121.5001,-860.5"/>
<text text-anchor="middle" x="135" y="-913.8" font-family="Times,serif" font-size="14.00" fill="#000000">[0%]</text>
</g>
<!-- fn_23_basic_block_2&#45;&gt;fn_23_basic_block_1 -->
<g id="edge2" class="edge">
<title>fn_23_basic_block_2:s&#45;&gt;fn_23_basic_block_1:n</title>
<path fill="none" stroke="#000000" stroke-width="2" d="M118,-734.5C118,-675.8021 118,-658.6341 118,-604.6407"/>
<polygon fill="#000000" stroke="#000000" stroke-width="2" points="121.5001,-604.5 118,-594.5 114.5001,-604.5 121.5001,-604.5"/>
<text text-anchor="middle" x="135" y="-663.8" font-family="Times,serif" font-size="14.00" fill="#000000">[0%]</text>
</g>
<!-- fn_24_basic_block_0 -->
<g id="node4" class="node">
<title>fn_24_basic_block_0</title>
<polygon fill="#ffffff" stroke="#000000" points="349,-998 285.6562,-980 349,-962 412.3438,-980 349,-998"/>
<polyline fill="none" stroke="#000000" points="297.1992,-983.2801 297.1992,-976.7199 "/>
<polyline fill="none" stroke="#000000" points="337.457,-965.2801 360.543,-965.2801 "/>
<polyline fill="none" stroke="#000000" points="400.8008,-976.7199 400.8008,-983.2801 "/>
<polyline fill="none" stroke="#000000" points="360.543,-994.7199 337.457,-994.7199 "/>
<text text-anchor="middle" x="349" y="-976.3" font-family="Times,serif" font-size="14.00" fill="#000000">ENTRY</text>
</g>
<!-- fn_24_basic_block_1 -->
<g id="node5" class="node">
<title>fn_24_basic_block_1</title>
<polygon fill="#ffffff" stroke="#000000" points="330,-52 281.0684,-34 330,-16 378.9316,-34 330,-52"/>
<polyline fill="none" stroke="#000000" points="292.3305,-38.1429 292.3305,-29.8571 "/>
<polyline fill="none" stroke="#000000" points="318.7378,-20.1429 341.2622,-20.1429 "/>
<polyline fill="none" stroke="#000000" points="367.6695,-29.8571 367.6695,-38.1429 "/>
<polyline fill="none" stroke="#000000" points="341.2622,-47.8571 318.7378,-47.8571 "/>
<text text-anchor="middle" x="330" y="-30.3" font-family="Times,serif" font-size="14.00" fill="#000000">EXIT</text>
</g>
<!-- fn_24_basic_block_0&#45;&gt;fn_24_basic_block_1 -->
<!-- fn_24_basic_block_2 -->
<g id="node6" class="node">
<title>fn_24_basic_block_2</title>
<polygon fill="#d3d3d3" stroke="#000000" points="244.5,-712.5 244.5,-872.5 453.5,-872.5 453.5,-712.5 244.5,-712.5"/>
<text text-anchor="middle" x="349" y="-857.3" font-family="Times,serif" font-size="14.00" fill="#000000">FREQ:0</text>
<polyline fill="none" stroke="#000000" points="244.5,-849.5 453.5,-849.5 "/>
<text text-anchor="start" x="252.5" y="-834.3" font-family="Times,serif" font-size="14.00" fill="#000000">&lt;bb 2&gt;:</text>
<polyline fill="none" stroke="#000000" points="244.5,-826.5 453.5,-826.5 "/>
<text text-anchor="start" x="252.5" y="-811.3" font-family="Times,serif" font-size="14.00" fill="#000000">num.0_1 = (int) num;</text>
<polyline fill="none" stroke="#000000" points="244.5,-803.5 453.5,-803.5 "/>
<text text-anchor="start" x="252.5" y="-788.3" font-family="Times,serif" font-size="14.00" fill="#000000">temp = randwc (num.0_1);</text>
<polyline fill="none" stroke="#000000" points="244.5,-780.5 453.5,-780.5 "/>
<text text-anchor="start" x="252.5" y="-765.3" font-family="Times,serif" font-size="14.00" fill="#000000">if (temp &lt; 0)</text>
<text text-anchor="start" x="252.5" y="-750.3" font-family="Times,serif" font-size="14.00" fill="#000000"> &#160;goto &lt;bb 3&gt;; [0.00%]</text>
<text text-anchor="start" x="252.5" y="-735.3" font-family="Times,serif" font-size="14.00" fill="#000000">else</text>
<text text-anchor="start" x="252.5" y="-720.3" font-family="Times,serif" font-size="14.00" fill="#000000"> &#160;goto &lt;bb 4&gt;; [0.00%]</text>
</g>
<!-- fn_24_basic_block_0&#45;&gt;fn_24_basic_block_2 -->
<g id="edge4" class="edge">
<title>fn_24_basic_block_0:s&#45;&gt;fn_24_basic_block_2:n</title>
<path fill="none" stroke="#0000ff" stroke-width="2" d="M349,-962C349,-925.796 349,-914.3055 349,-882.5422"/>
<polygon fill="#0000ff" stroke="#0000ff" stroke-width="2" points="352.5001,-882.5 349,-872.5 345.5001,-882.5 352.5001,-882.5"/>
<text text-anchor="middle" x="366" y="-913.8" font-family="Times,serif" font-size="14.00" fill="#000000">[0%]</text>
</g>
<!-- fn_24_basic_block_3 -->
<g id="node7" class="node">
<title>fn_24_basic_block_3</title>
<polygon fill="#d3d3d3" stroke="#000000" points="264,-542 264,-611 384,-611 384,-542 264,-542"/>
<text text-anchor="middle" x="324" y="-595.8" font-family="Times,serif" font-size="14.00" fill="#000000">FREQ:0</text>
<polyline fill="none" stroke="#000000" points="264,-588 384,-588 "/>
<text text-anchor="start" x="272" y="-572.8" font-family="Times,serif" font-size="14.00" fill="#000000">&lt;bb 3&gt;:</text>
<polyline fill="none" stroke="#000000" points="264,-565 384,-565 "/>
<text text-anchor="start" x="272" y="-549.8" font-family="Times,serif" font-size="14.00" fill="#000000">temp = &#45;temp;</text>
</g>
<!-- fn_24_basic_block_2&#45;&gt;fn_24_basic_block_3 -->
<g id="edge5" class="edge">
<title>fn_24_basic_block_2:s&#45;&gt;fn_24_basic_block_3:n</title>
<path fill="none" stroke="#000000" stroke-width="2" d="M349,-712.5C349,-669.8692 327.7537,-659.304 324.4339,-621.6835"/>
<polygon fill="#000000" stroke="#000000" stroke-width="2" points="327.9226,-621.3419 324,-611.5 320.929,-621.64 327.9226,-621.3419"/>
<text text-anchor="middle" x="358" y="-663.8" font-family="Times,serif" font-size="14.00" fill="#000000">[0%]</text>
</g>
<!-- fn_24_basic_block_4 -->
<g id="node8" class="node">
<title>fn_24_basic_block_4</title>
<polygon fill="#d3d3d3" stroke="#000000" points="244,-245 244,-337 416,-337 416,-245 244,-245"/>
<text text-anchor="middle" x="330" y="-321.8" font-family="Times,serif" font-size="14.00" fill="#000000">FREQ:0</text>
<polyline fill="none" stroke="#000000" points="244,-314 416,-314 "/>
<text text-anchor="start" x="252" y="-298.8" font-family="Times,serif" font-size="14.00" fill="#000000">&lt;bb 4&gt;:</text>
<polyline fill="none" stroke="#000000" points="244,-291 416,-291 "/>
<text text-anchor="start" x="252" y="-275.8" font-family="Times,serif" font-size="14.00" fill="#000000">D.2536 = (u32) temp;</text>
<polyline fill="none" stroke="#000000" points="244,-268 416,-268 "/>
<text text-anchor="start" x="252" y="-252.8" font-family="Times,serif" font-size="14.00" fill="#000000">return D.2536;</text>
</g>
<!-- fn_24_basic_block_2&#45;&gt;fn_24_basic_block_4 -->
<g id="edge6" class="edge">
<title>fn_24_basic_block_2:s&#45;&gt;fn_24_basic_block_4:n</title>
<path fill="none" stroke="#000000" stroke-width="2" d="M349,-712.5C349,-675.1402 420,-704.8598 420,-667.5 420,-667.5 420,-667.5 420,-485.5 420,-411.9425 338.2397,-413.8091 330.5747,-347.3226"/>
<polygon fill="#000000" stroke="#000000" stroke-width="2" points="334.0506,-346.7899 330,-337 327.0614,-347.1791 334.0506,-346.7899"/>
<text text-anchor="middle" x="437" y="-572.8" font-family="Times,serif" font-size="14.00" fill="#000000">[0%]</text>
</g>
<!-- fn_24_basic_block_3&#45;&gt;fn_24_basic_block_4 -->
<g id="edge7" class="edge">
<title>fn_24_basic_block_3:s&#45;&gt;fn_24_basic_block_4:n</title>
<path fill="none" stroke="#0000ff" stroke-width="2" d="M324,-541.5C324,-454.0351 329.5517,-429.7519 329.9746,-347.0996"/>
<polygon fill="#0000ff" stroke="#0000ff" stroke-width="2" points="333.4747,-347.0088 330,-337 326.4747,-346.9911 333.4747,-347.0088"/>
<text text-anchor="middle" x="342" y="-481.8" font-family="Times,serif" font-size="14.00" fill="#000000">[0%]</text>
</g>
<!-- fn_24_basic_block_4&#45;&gt;fn_24_basic_block_1 -->
<g id="edge8" class="edge">
<title>fn_24_basic_block_4:s&#45;&gt;fn_24_basic_block_1:n</title>
<path fill="none" stroke="#000000" stroke-width="2" d="M330,-245C330,-162.7405 330,-139.6451 330,-62.2389"/>
<polygon fill="#000000" stroke="#000000" stroke-width="2" points="333.5001,-62 330,-52 326.5001,-62 333.5001,-62"/>
<text text-anchor="middle" x="347" y="-92.8" font-family="Times,serif" font-size="14.00" fill="#000000">[0%]</text>
</g>
<!-- fn_25_basic_block_0 -->
<g id="node9" class="node">
<title>fn_25_basic_block_0</title>
<polygon fill="#ffffff" stroke="#000000" points="589,-998 525.6562,-980 589,-962 652.3438,-980 589,-998"/>
<polyline fill="none" stroke="#000000" points="537.1992,-983.2801 537.1992,-976.7199 "/>
<polyline fill="none" stroke="#000000" points="577.457,-965.2801 600.543,-965.2801 "/>
<polyline fill="none" stroke="#000000" points="640.8008,-976.7199 640.8008,-983.2801 "/>
<polyline fill="none" stroke="#000000" points="600.543,-994.7199 577.457,-994.7199 "/>
<text text-anchor="middle" x="589" y="-976.3" font-family="Times,serif" font-size="14.00" fill="#000000">ENTRY</text>
</g>
<!-- fn_25_basic_block_1 -->
<g id="node10" class="node">
<title>fn_25_basic_block_1</title>
<polygon fill="#ffffff" stroke="#000000" points="590,-52 541.0684,-34 590,-16 638.9316,-34 590,-52"/>
<polyline fill="none" stroke="#000000" points="552.3305,-38.1429 552.3305,-29.8571 "/>
<polyline fill="none" stroke="#000000" points="578.7378,-20.1429 601.2622,-20.1429 "/>
<polyline fill="none" stroke="#000000" points="627.6695,-29.8571 627.6695,-38.1429 "/>
<polyline fill="none" stroke="#000000" points="601.2622,-47.8571 578.7378,-47.8571 "/>
<text text-anchor="middle" x="590" y="-30.3" font-family="Times,serif" font-size="14.00" fill="#000000">EXIT</text>
</g>
<!-- fn_25_basic_block_0&#45;&gt;fn_25_basic_block_1 -->
<!-- fn_25_basic_block_2 -->
<g id="node11" class="node">
<title>fn_25_basic_block_2</title>
<polygon fill="#d3d3d3" stroke="#000000" points="498,-735.5 498,-849.5 680,-849.5 680,-735.5 498,-735.5"/>
<text text-anchor="middle" x="589" y="-834.3" font-family="Times,serif" font-size="14.00" fill="#000000">FREQ:0</text>
<polyline fill="none" stroke="#000000" points="498,-826.5 680,-826.5 "/>
<text text-anchor="start" x="506" y="-811.3" font-family="Times,serif" font-size="14.00" fill="#000000">&lt;bb 2&gt;:</text>
<polyline fill="none" stroke="#000000" points="498,-803.5 680,-803.5 "/>
<text text-anchor="start" x="506" y="-788.3" font-family="Times,serif" font-size="14.00" fill="#000000">if (lngval != 0)</text>
<text text-anchor="start" x="506" y="-773.3" font-family="Times,serif" font-size="14.00" fill="#000000"> &#160;goto &lt;bb 3&gt;; [0.00%]</text>
<text text-anchor="start" x="506" y="-758.3" font-family="Times,serif" font-size="14.00" fill="#000000">else</text>
<text text-anchor="start" x="506" y="-743.3" font-family="Times,serif" font-size="14.00" fill="#000000"> &#160;goto &lt;bb 4&gt;; [0.00%]</text>
</g>
<!-- fn_25_basic_block_0&#45;&gt;fn_25_basic_block_2 -->
<g id="edge10" class="edge">
<title>fn_25_basic_block_0:s&#45;&gt;fn_25_basic_block_2:n</title>
<path fill="none" stroke="#0000ff" stroke-width="2" d="M589,-962C589,-915.5156 589,-901.4432 589,-859.5168"/>
<polygon fill="#0000ff" stroke="#0000ff" stroke-width="2" points="592.5001,-859.5 589,-849.5 585.5001,-859.5 592.5001,-859.5"/>
<text text-anchor="middle" x="606" y="-913.8" font-family="Times,serif" font-size="14.00" fill="#000000">[0%]</text>
</g>
<!-- fn_25_basic_block_3 -->
<g id="node12" class="node">
<title>fn_25_basic_block_3</title>
<polygon fill="#d3d3d3" stroke="#000000" points="498,-530.5 498,-622.5 632,-622.5 632,-530.5 498,-530.5"/>
<text text-anchor="middle" x="565" y="-607.3" font-family="Times,serif" font-size="14.00" fill="#000000">FREQ:0</text>
<polyline fill="none" stroke="#000000" points="498,-599.5 632,-599.5 "/>
<text text-anchor="start" x="506" y="-584.3" font-family="Times,serif" font-size="14.00" fill="#000000">&lt;bb 3&gt;:</text>
<polyline fill="none" stroke="#000000" points="498,-576.5 632,-576.5 "/>
<text text-anchor="start" x="506" y="-561.3" font-family="Times,serif" font-size="14.00" fill="#000000">randw[0] = 13;</text>
<polyline fill="none" stroke="#000000" points="498,-553.5 632,-553.5 "/>
<text text-anchor="start" x="506" y="-538.3" font-family="Times,serif" font-size="14.00" fill="#000000">randw[1] = 117;</text>
</g>
<!-- fn_25_basic_block_2&#45;&gt;fn_25_basic_block_3 -->
<g id="edge11" class="edge">
<title>fn_25_basic_block_2:s&#45;&gt;fn_25_basic_block_3:n</title>
<path fill="none" stroke="#000000" stroke-width="2" d="M589,-735.5C589,-687.7675 568.2563,-675.4959 565.3393,-632.7501"/>
<polygon fill="#000000" stroke="#000000" stroke-width="2" points="568.829,-632.3787 565,-622.5 561.8328,-632.6103 568.829,-632.3787"/>
<text text-anchor="middle" x="592" y="-663.8" font-family="Times,serif" font-size="14.00" fill="#000000">[0%]</text>
</g>
<!-- fn_25_basic_block_4 -->
<g id="node13" class="node">
<title>fn_25_basic_block_4</title>
<polygon fill="#d3d3d3" stroke="#000000" points="498.5,-141.5 498.5,-440.5 681.5,-440.5 681.5,-141.5 498.5,-141.5"/>
<text text-anchor="middle" x="590" y="-425.3" font-family="Times,serif" font-size="14.00" fill="#000000">FREQ:0</text>
<polyline fill="none" stroke="#000000" points="498.5,-417.5 681.5,-417.5 "/>
<text text-anchor="start" x="506.5" y="-402.3" font-family="Times,serif" font-size="14.00" fill="#000000">&lt;bb 4&gt;:</text>
<polyline fill="none" stroke="#000000" points="498.5,-394.5 681.5,-394.5 "/>
<text text-anchor="start" x="506.5" y="-379.3" font-family="Times,serif" font-size="14.00" fill="#000000">_1 = randw[0];</text>
<polyline fill="none" stroke="#000000" points="498.5,-371.5 681.5,-371.5 "/>
<text text-anchor="start" x="506.5" y="-356.3" font-family="Times,serif" font-size="14.00" fill="#000000">_2 = _1 * 254754;</text>
<polyline fill="none" stroke="#000000" points="498.5,-348.5 681.5,-348.5 "/>
<text text-anchor="start" x="506.5" y="-333.3" font-family="Times,serif" font-size="14.00" fill="#000000">_3 = randw[1];</text>
<polyline fill="none" stroke="#000000" points="498.5,-325.5 681.5,-325.5 "/>
<text text-anchor="start" x="506.5" y="-310.3" font-family="Times,serif" font-size="14.00" fill="#000000">_4 = _3 * 529562;</text>
<polyline fill="none" stroke="#000000" points="498.5,-302.5 681.5,-302.5 "/>
<text text-anchor="start" x="506.5" y="-287.3" font-family="Times,serif" font-size="14.00" fill="#000000">_5 = _2 + _4;</text>
<polyline fill="none" stroke="#000000" points="498.5,-279.5 681.5,-279.5 "/>
<text text-anchor="start" x="506.5" y="-264.3" font-family="Times,serif" font-size="14.00" fill="#000000">interm = _5 % 999563;</text>
<polyline fill="none" stroke="#000000" points="498.5,-256.5 681.5,-256.5 "/>
<text text-anchor="start" x="506.5" y="-241.3" font-family="Times,serif" font-size="14.00" fill="#000000">_6 = randw[0];</text>
<polyline fill="none" stroke="#000000" points="498.5,-233.5 681.5,-233.5 "/>
<text text-anchor="start" x="506.5" y="-218.3" font-family="Times,serif" font-size="14.00" fill="#000000">randw[1] = _6;</text>
<polyline fill="none" stroke="#000000" points="498.5,-210.5 681.5,-210.5 "/>
<text text-anchor="start" x="506.5" y="-195.3" font-family="Times,serif" font-size="14.00" fill="#000000">randw[0] = interm;</text>
<polyline fill="none" stroke="#000000" points="498.5,-187.5 681.5,-187.5 "/>
<text text-anchor="start" x="506.5" y="-172.3" font-family="Times,serif" font-size="14.00" fill="#000000">D.2540 = interm;</text>
<polyline fill="none" stroke="#000000" points="498.5,-164.5 681.5,-164.5 "/>
<text text-anchor="start" x="506.5" y="-149.3" font-family="Times,serif" font-size="14.00" fill="#000000">return D.2540;</text>
</g>
<!-- fn_25_basic_block_2&#45;&gt;fn_25_basic_block_4 -->
<g id="edge12" class="edge">
<title>fn_25_basic_block_2:s&#45;&gt;fn_25_basic_block_4:n</title>
<path fill="none" stroke="#000000" stroke-width="2" d="M589,-735.5C589,-689.1732 668,-713.8268 668,-667.5 668,-667.5 668,-667.5 668,-485.5 668,-449.6419 605.0392,-474.5126 592.2503,-450.9901"/>
<polygon fill="#000000" stroke="#000000" stroke-width="2" points="595.612,-449.9864 590,-441 588.7831,-451.5247 595.612,-449.9864"/>
<text text-anchor="middle" x="685" y="-572.8" font-family="Times,serif" font-size="14.00" fill="#000000">[0%]</text>
</g>
<!-- fn_25_basic_block_3&#45;&gt;fn_25_basic_block_4 -->
<g id="edge13" class="edge">
<title>fn_25_basic_block_3:s&#45;&gt;fn_25_basic_block_4:n</title>
<path fill="none" stroke="#0000ff" stroke-width="2" d="M565,-530.5C565,-492.9101 585.7096,-483.8178 589.4309,-451.3486"/>
<polygon fill="#0000ff" stroke="#0000ff" stroke-width="2" points="592.9455,-451.1771 590,-441 585.9561,-450.7927 592.9455,-451.1771"/>
<text text-anchor="middle" x="598" y="-481.8" font-family="Times,serif" font-size="14.00" fill="#000000">[0%]</text>
</g>
<!-- fn_25_basic_block_4&#45;&gt;fn_25_basic_block_1 -->
<g id="edge14" class="edge">
<title>fn_25_basic_block_4:s&#45;&gt;fn_25_basic_block_1:n</title>
<path fill="none" stroke="#000000" stroke-width="2" d="M590,-141C590,-105.1528 590,-93.6705 590,-62.3917"/>
<polygon fill="#000000" stroke="#000000" stroke-width="2" points="593.5001,-62 590,-52 586.5001,-62 593.5001,-62"/>
<text text-anchor="middle" x="607" y="-92.8" font-family="Times,serif" font-size="14.00" fill="#000000">[0%]</text>
</g>
</g>
</svg>
