<?xml version="1.0" encoding="UTF-8" standalone="no"?>
<!DOCTYPE svg PUBLIC "-//W3C//DTD SVG 1.1//EN"
 "http://www.w3.org/Graphics/SVG/1.1/DTD/svg11.dtd">
<!-- Generated by graphviz version 2.40.1 (20161225.0304)
 -->
<!-- Title: misc.c.179t.strlen Pages: 1 -->
<svg width="970pt" height="1199pt"
 viewBox="0.00 0.00 970.00 1199.00" xmlns="http://www.w3.org/2000/svg" xmlns:xlink="http://www.w3.org/1999/xlink">
<g id="graph0" class="graph" transform="scale(1 1) rotate(0) translate(4 1195)">
<title>misc.c.179t.strlen</title>
<polygon fill="#ffffff" stroke="transparent" points="-4,4 -4,-1195 966,-1195 966,4 -4,4"/>
<g id="clust1" class="cluster">
<title>cluster_randwc</title>
<polygon fill="none" stroke="#000000" stroke-dasharray="5,2" points="8,-466 8,-1183 260,-1183 260,-466 8,-466"/>
<text text-anchor="middle" x="134" y="-1167.8" font-family="Times,serif" font-size="14.00" fill="#000000">randwc ()</text>
</g>
<g id="clust2" class="cluster">
<title>cluster_abs_randwc</title>
<polygon fill="none" stroke="#000000" stroke-dasharray="5,2" points="268,-466 268,-1183 542,-1183 542,-466 268,-466"/>
<text text-anchor="middle" x="405" y="-1167.8" font-family="Times,serif" font-size="14.00" fill="#000000">abs_randwc ()</text>
</g>
<g id="clust3" class="cluster">
<title>cluster_randnum</title>
<polygon fill="none" stroke="#000000" stroke-dasharray="5,2" points="550,-8 550,-1183 954,-1183 954,-8 550,-8"/>
<text text-anchor="middle" x="752" y="-1167.8" font-family="Times,serif" font-size="14.00" fill="#000000">randnum ()</text>
</g>
<!-- fn_23_basic_block_0 -->
<g id="node1" class="node">
<title>fn_23_basic_block_0</title>
<polygon fill="#ffffff" stroke="#000000" points="144,-1152 80.6562,-1134 144,-1116 207.3438,-1134 144,-1152"/>
<polyline fill="none" stroke="#000000" points="92.1992,-1137.2801 92.1992,-1130.7199 "/>
<polyline fill="none" stroke="#000000" points="132.457,-1119.2801 155.543,-1119.2801 "/>
<polyline fill="none" stroke="#000000" points="195.8008,-1130.7199 195.8008,-1137.2801 "/>
<polyline fill="none" stroke="#000000" points="155.543,-1148.7199 132.457,-1148.7199 "/>
<text text-anchor="middle" x="144" y="-1130.3" font-family="Times,serif" font-size="14.00" fill="#000000">ENTRY</text>
</g>
<!-- fn_23_basic_block_1 -->
<g id="node2" class="node">
<title>fn_23_basic_block_1</title>
<polygon fill="#ffffff" stroke="#000000" points="144,-510 95.0684,-492 144,-474 192.9316,-492 144,-510"/>
<polyline fill="none" stroke="#000000" points="106.3305,-496.1429 106.3305,-487.8571 "/>
<polyline fill="none" stroke="#000000" points="132.7378,-478.1429 155.2622,-478.1429 "/>
<polyline fill="none" stroke="#000000" points="181.6695,-487.8571 181.6695,-496.1429 "/>
<polyline fill="none" stroke="#000000" points="155.2622,-505.8571 132.7378,-505.8571 "/>
<text text-anchor="middle" x="144" y="-488.3" font-family="Times,serif" font-size="14.00" fill="#000000">EXIT</text>
</g>
<!-- fn_23_basic_block_0&#45;&gt;fn_23_basic_block_1 -->
<!-- fn_23_basic_block_2 -->
<g id="node3" class="node">
<title>fn_23_basic_block_2</title>
<polygon fill="#d3d3d3" stroke="#000000" points="36.5,-716 36.5,-992 251.5,-992 251.5,-716 36.5,-716"/>
<text text-anchor="middle" x="144" y="-976.8" font-family="Times,serif" font-size="14.00" fill="#000000">FREQ:10000</text>
<polyline fill="none" stroke="#000000" points="36.5,-969 251.5,-969 "/>
<text text-anchor="start" x="44.5" y="-953.8" font-family="Times,serif" font-size="14.00" fill="#000000">&lt;bb 2&gt;:</text>
<polyline fill="none" stroke="#000000" points="36.5,-946 251.5,-946 "/>
<text text-anchor="start" x="44.5" y="-930.8" font-family="Times,serif" font-size="14.00" fill="#000000">_4 = randw[0];</text>
<polyline fill="none" stroke="#000000" points="36.5,-923 251.5,-923 "/>
<text text-anchor="start" x="44.5" y="-907.8" font-family="Times,serif" font-size="14.00" fill="#000000">_5 = _4 * 254754;</text>
<polyline fill="none" stroke="#000000" points="36.5,-900 251.5,-900 "/>
<text text-anchor="start" x="44.5" y="-884.8" font-family="Times,serif" font-size="14.00" fill="#000000">_6 = randw[1];</text>
<polyline fill="none" stroke="#000000" points="36.5,-877 251.5,-877 "/>
<text text-anchor="start" x="44.5" y="-861.8" font-family="Times,serif" font-size="14.00" fill="#000000">_7 = _6 * 529562;</text>
<polyline fill="none" stroke="#000000" points="36.5,-854 251.5,-854 "/>
<text text-anchor="start" x="44.5" y="-838.8" font-family="Times,serif" font-size="14.00" fill="#000000">_8 = _5 + _7;</text>
<polyline fill="none" stroke="#000000" points="36.5,-831 251.5,-831 "/>
<text text-anchor="start" x="44.5" y="-815.8" font-family="Times,serif" font-size="14.00" fill="#000000">interm_9 = _8 % 999563;</text>
<polyline fill="none" stroke="#000000" points="36.5,-808 251.5,-808 "/>
<text text-anchor="start" x="44.5" y="-792.8" font-family="Times,serif" font-size="14.00" fill="#000000">randw[1] = _4;</text>
<polyline fill="none" stroke="#000000" points="36.5,-785 251.5,-785 "/>
<text text-anchor="start" x="44.5" y="-769.8" font-family="Times,serif" font-size="14.00" fill="#000000">randw[0] = interm_9;</text>
<polyline fill="none" stroke="#000000" points="36.5,-762 251.5,-762 "/>
<text text-anchor="start" x="44.5" y="-746.8" font-family="Times,serif" font-size="14.00" fill="#000000">_3 = interm_9 % num_2(D);</text>
<polyline fill="none" stroke="#000000" points="36.5,-739 251.5,-739 "/>
<text text-anchor="start" x="44.5" y="-723.8" font-family="Times,serif" font-size="14.00" fill="#000000">return _3;</text>
</g>
<!-- fn_23_basic_block_0&#45;&gt;fn_23_basic_block_2 -->
<g id="edge1" class="edge">
<title>fn_23_basic_block_0:s&#45;&gt;fn_23_basic_block_2:n</title>
<path fill="none" stroke="#0000ff" stroke-width="2" d="M144,-1116C144,-1064.441 144,-1049.0589 144,-1002.1633"/>
<polygon fill="#0000ff" stroke="#0000ff" stroke-width="2" points="147.5001,-1002 144,-992 140.5001,-1002 147.5001,-1002"/>
<text text-anchor="middle" x="170" y="-1067.8" font-family="Times,serif" font-size="14.00" fill="#000000">[100%]</text>
</g>
<!-- fn_23_basic_block_2&#45;&gt;fn_23_basic_block_1 -->
<g id="edge2" class="edge">
<title>fn_23_basic_block_2:s&#45;&gt;fn_23_basic_block_1:n</title>
<path fill="none" stroke="#000000" stroke-width="2" d="M144,-716C144,-627.9314 144,-603.3986 144,-520.1697"/>
<polygon fill="#000000" stroke="#000000" stroke-width="2" points="147.5001,-520 144,-510 140.5001,-520 147.5001,-520"/>
<text text-anchor="middle" x="170" y="-632.8" font-family="Times,serif" font-size="14.00" fill="#000000">[100%]</text>
</g>
<!-- fn_24_basic_block_0 -->
<g id="node4" class="node">
<title>fn_24_basic_block_0</title>
<polygon fill="#ffffff" stroke="#000000" points="415,-1152 351.6562,-1134 415,-1116 478.3438,-1134 415,-1152"/>
<polyline fill="none" stroke="#000000" points="363.1992,-1137.2801 363.1992,-1130.7199 "/>
<polyline fill="none" stroke="#000000" points="403.457,-1119.2801 426.543,-1119.2801 "/>
<polyline fill="none" stroke="#000000" points="466.8008,-1130.7199 466.8008,-1137.2801 "/>
<polyline fill="none" stroke="#000000" points="426.543,-1148.7199 403.457,-1148.7199 "/>
<text text-anchor="middle" x="415" y="-1130.3" font-family="Times,serif" font-size="14.00" fill="#000000">ENTRY</text>
</g>
<!-- fn_24_basic_block_1 -->
<g id="node5" class="node">
<title>fn_24_basic_block_1</title>
<polygon fill="#ffffff" stroke="#000000" points="415,-510 366.0684,-492 415,-474 463.9316,-492 415,-510"/>
<polyline fill="none" stroke="#000000" points="377.3305,-496.1429 377.3305,-487.8571 "/>
<polyline fill="none" stroke="#000000" points="403.7378,-478.1429 426.2622,-478.1429 "/>
<polyline fill="none" stroke="#000000" points="452.6695,-487.8571 452.6695,-496.1429 "/>
<polyline fill="none" stroke="#000000" points="426.2622,-505.8571 403.7378,-505.8571 "/>
<text text-anchor="middle" x="415" y="-488.3" font-family="Times,serif" font-size="14.00" fill="#000000">EXIT</text>
</g>
<!-- fn_24_basic_block_0&#45;&gt;fn_24_basic_block_1 -->
<!-- fn_24_basic_block_2 -->
<g id="node6" class="node">
<title>fn_24_basic_block_2</title>
<polygon fill="#d3d3d3" stroke="#000000" points="296,-681.5 296,-1026.5 534,-1026.5 534,-681.5 296,-681.5"/>
<text text-anchor="middle" x="415" y="-1011.3" font-family="Times,serif" font-size="14.00" fill="#000000">FREQ:10000</text>
<polyline fill="none" stroke="#000000" points="296,-1003.5 534,-1003.5 "/>
<text text-anchor="start" x="304" y="-988.3" font-family="Times,serif" font-size="14.00" fill="#000000">&lt;bb 2&gt;:</text>
<polyline fill="none" stroke="#000000" points="296,-980.5 534,-980.5 "/>
<text text-anchor="start" x="304" y="-965.3" font-family="Times,serif" font-size="14.00" fill="#000000">num.0_1 = (int) num_3(D);</text>
<polyline fill="none" stroke="#000000" points="296,-957.5 534,-957.5 "/>
<text text-anchor="start" x="304" y="-942.3" font-family="Times,serif" font-size="14.00" fill="#000000">_7 = randw[0];</text>
<polyline fill="none" stroke="#000000" points="296,-934.5 534,-934.5 "/>
<text text-anchor="start" x="304" y="-919.3" font-family="Times,serif" font-size="14.00" fill="#000000">_8 = _7 * 254754;</text>
<polyline fill="none" stroke="#000000" points="296,-911.5 534,-911.5 "/>
<text text-anchor="start" x="304" y="-896.3" font-family="Times,serif" font-size="14.00" fill="#000000">_9 = randw[1];</text>
<polyline fill="none" stroke="#000000" points="296,-888.5 534,-888.5 "/>
<text text-anchor="start" x="304" y="-873.3" font-family="Times,serif" font-size="14.00" fill="#000000">_10 = _9 * 529562;</text>
<polyline fill="none" stroke="#000000" points="296,-865.5 534,-865.5 "/>
<text text-anchor="start" x="304" y="-850.3" font-family="Times,serif" font-size="14.00" fill="#000000">_11 = _8 + _10;</text>
<polyline fill="none" stroke="#000000" points="296,-842.5 534,-842.5 "/>
<text text-anchor="start" x="304" y="-827.3" font-family="Times,serif" font-size="14.00" fill="#000000">interm_12 = _11 % 999563;</text>
<polyline fill="none" stroke="#000000" points="296,-819.5 534,-819.5 "/>
<text text-anchor="start" x="304" y="-804.3" font-family="Times,serif" font-size="14.00" fill="#000000">randw[1] = _7;</text>
<polyline fill="none" stroke="#000000" points="296,-796.5 534,-796.5 "/>
<text text-anchor="start" x="304" y="-781.3" font-family="Times,serif" font-size="14.00" fill="#000000">randw[0] = interm_12;</text>
<polyline fill="none" stroke="#000000" points="296,-773.5 534,-773.5 "/>
<text text-anchor="start" x="304" y="-758.3" font-family="Times,serif" font-size="14.00" fill="#000000">_13 = interm_12 % num.0_1;</text>
<polyline fill="none" stroke="#000000" points="296,-750.5 534,-750.5 "/>
<text text-anchor="start" x="304" y="-735.3" font-family="Times,serif" font-size="14.00" fill="#000000">temp_16 = ABS_EXPR &lt;_13&gt;;</text>
<polyline fill="none" stroke="#000000" points="296,-727.5 534,-727.5 "/>
<text text-anchor="start" x="304" y="-712.3" font-family="Times,serif" font-size="14.00" fill="#000000">_6 = (u32) temp_16;</text>
<polyline fill="none" stroke="#000000" points="296,-704.5 534,-704.5 "/>
<text text-anchor="start" x="304" y="-689.3" font-family="Times,serif" font-size="14.00" fill="#000000">return _6;</text>
</g>
<!-- fn_24_basic_block_0&#45;&gt;fn_24_basic_block_2 -->
<g id="edge4" class="edge">
<title>fn_24_basic_block_0:s&#45;&gt;fn_24_basic_block_2:n</title>
<path fill="none" stroke="#0000ff" stroke-width="2" d="M415,-1116C415,-1080.1528 415,-1068.6705 415,-1037.3917"/>
<polygon fill="#0000ff" stroke="#0000ff" stroke-width="2" points="418.5001,-1037 415,-1027 411.5001,-1037 418.5001,-1037"/>
<text text-anchor="middle" x="441" y="-1067.8" font-family="Times,serif" font-size="14.00" fill="#000000">[100%]</text>
</g>
<!-- fn_24_basic_block_2&#45;&gt;fn_24_basic_block_1 -->
<g id="edge5" class="edge">
<title>fn_24_basic_block_2:s&#45;&gt;fn_24_basic_block_1:n</title>
<path fill="none" stroke="#000000" stroke-width="2" d="M415,-681C415,-608.5625 415,-587.9065 415,-520.3235"/>
<polygon fill="#000000" stroke="#000000" stroke-width="2" points="418.5001,-520 415,-510 411.5001,-520 418.5001,-520"/>
<text text-anchor="middle" x="441" y="-632.8" font-family="Times,serif" font-size="14.00" fill="#000000">[100%]</text>
</g>
<!-- fn_25_basic_block_0 -->
<g id="node7" class="node">
<title>fn_25_basic_block_0</title>
<polygon fill="#ffffff" stroke="#000000" points="686,-1152 622.6562,-1134 686,-1116 749.3438,-1134 686,-1152"/>
<polyline fill="none" stroke="#000000" points="634.1992,-1137.2801 634.1992,-1130.7199 "/>
<polyline fill="none" stroke="#000000" points="674.457,-1119.2801 697.543,-1119.2801 "/>
<polyline fill="none" stroke="#000000" points="737.8008,-1130.7199 737.8008,-1137.2801 "/>
<polyline fill="none" stroke="#000000" points="697.543,-1148.7199 674.457,-1148.7199 "/>
<text text-anchor="middle" x="686" y="-1130.3" font-family="Times,serif" font-size="14.00" fill="#000000">ENTRY</text>
</g>
<!-- fn_25_basic_block_1 -->
<g id="node8" class="node">
<title>fn_25_basic_block_1</title>
<polygon fill="#ffffff" stroke="#000000" points="756,-52 707.0684,-34 756,-16 804.9316,-34 756,-52"/>
<polyline fill="none" stroke="#000000" points="718.3305,-38.1429 718.3305,-29.8571 "/>
<polyline fill="none" stroke="#000000" points="744.7378,-20.1429 767.2622,-20.1429 "/>
<polyline fill="none" stroke="#000000" points="793.6695,-29.8571 793.6695,-38.1429 "/>
<polyline fill="none" stroke="#000000" points="767.2622,-47.8571 744.7378,-47.8571 "/>
<text text-anchor="middle" x="756" y="-30.3" font-family="Times,serif" font-size="14.00" fill="#000000">EXIT</text>
</g>
<!-- fn_25_basic_block_0&#45;&gt;fn_25_basic_block_1 -->
<!-- fn_25_basic_block_2 -->
<g id="node9" class="node">
<title>fn_25_basic_block_2</title>
<polygon fill="#d3d3d3" stroke="#000000" points="590.5,-797 590.5,-911 781.5,-911 781.5,-797 590.5,-797"/>
<text text-anchor="middle" x="686" y="-895.8" font-family="Times,serif" font-size="14.00" fill="#000000">FREQ:10000</text>
<polyline fill="none" stroke="#000000" points="590.5,-888 781.5,-888 "/>
<text text-anchor="start" x="598.5" y="-872.8" font-family="Times,serif" font-size="14.00" fill="#000000">&lt;bb 2&gt;:</text>
<polyline fill="none" stroke="#000000" points="590.5,-865 781.5,-865 "/>
<text text-anchor="start" x="598.5" y="-849.8" font-family="Times,serif" font-size="14.00" fill="#000000">if (lngval_7(D) != 0)</text>
<text text-anchor="start" x="598.5" y="-834.8" font-family="Times,serif" font-size="14.00" fill="#000000"> &#160;goto &lt;bb 4&gt;; [54.00%]</text>
<text text-anchor="start" x="598.5" y="-819.8" font-family="Times,serif" font-size="14.00" fill="#000000">else</text>
<text text-anchor="start" x="598.5" y="-804.8" font-family="Times,serif" font-size="14.00" fill="#000000"> &#160;goto &lt;bb 3&gt;; [46.00%]</text>
</g>
<!-- fn_25_basic_block_0&#45;&gt;fn_25_basic_block_2 -->
<g id="edge7" class="edge">
<title>fn_25_basic_block_0:s&#45;&gt;fn_25_basic_block_2:n</title>
<path fill="none" stroke="#0000ff" stroke-width="2" d="M686,-1116C686,-1028.3589 686,-1003.9453 686,-921.1203"/>
<polygon fill="#0000ff" stroke="#0000ff" stroke-width="2" points="689.5001,-921 686,-911 682.5001,-921 689.5001,-921"/>
<text text-anchor="middle" x="712" y="-1067.8" font-family="Times,serif" font-size="14.00" fill="#000000">[100%]</text>
</g>
<!-- fn_25_basic_block_3 -->
<g id="node10" class="node">
<title>fn_25_basic_block_3</title>
<polygon fill="#d3d3d3" stroke="#000000" points="578,-392.5 578,-591.5 794,-591.5 794,-392.5 578,-392.5"/>
<text text-anchor="middle" x="686" y="-576.3" font-family="Times,serif" font-size="14.00" fill="#000000">FREQ:4600</text>
<polyline fill="none" stroke="#000000" points="578,-568.5 794,-568.5 "/>
<text text-anchor="start" x="586" y="-553.3" font-family="Times,serif" font-size="14.00" fill="#000000">&lt;bb 3&gt;:</text>
<polyline fill="none" stroke="#000000" points="578,-545.5 794,-545.5 "/>
<text text-anchor="start" x="586" y="-530.3" font-family="Times,serif" font-size="14.00" fill="#000000">pretmp_19 = randw[0];</text>
<polyline fill="none" stroke="#000000" points="578,-522.5 794,-522.5 "/>
<text text-anchor="start" x="586" y="-507.3" font-family="Times,serif" font-size="14.00" fill="#000000">_21 = pretmp_19 * 254754;</text>
<polyline fill="none" stroke="#000000" points="578,-499.5 794,-499.5 "/>
<text text-anchor="start" x="586" y="-484.3" font-family="Times,serif" font-size="14.00" fill="#000000">pretmp_23 = randw[1];</text>
<polyline fill="none" stroke="#000000" points="578,-476.5 794,-476.5 "/>
<text text-anchor="start" x="586" y="-461.3" font-family="Times,serif" font-size="14.00" fill="#000000">_25 = pretmp_23 * 529562;</text>
<polyline fill="none" stroke="#000000" points="578,-453.5 794,-453.5 "/>
<text text-anchor="start" x="586" y="-438.3" font-family="Times,serif" font-size="14.00" fill="#000000">_27 = _21 + _25;</text>
<polyline fill="none" stroke="#000000" points="578,-430.5 794,-430.5 "/>
<text text-anchor="start" x="586" y="-415.3" font-family="Times,serif" font-size="14.00" fill="#000000">_29 = _27 % 999563;</text>
<text text-anchor="start" x="586" y="-400.3" font-family="Times,serif" font-size="14.00" fill="#000000">goto &lt;bb 5&gt;; [100.00%]</text>
</g>
<!-- fn_25_basic_block_2&#45;&gt;fn_25_basic_block_3 -->
<g id="edge9" class="edge">
<title>fn_25_basic_block_2:s&#45;&gt;fn_25_basic_block_3:n</title>
<path fill="none" stroke="#000000" stroke-width="2" d="M686,-797C686,-709.3589 686,-684.9453 686,-602.1203"/>
<polygon fill="#000000" stroke="#000000" stroke-width="2" points="689.5001,-602 686,-592 682.5001,-602 689.5001,-602"/>
<text text-anchor="middle" x="707.5" y="-632.8" font-family="Times,serif" font-size="14.00" fill="#000000">[46%]</text>
</g>
<!-- fn_25_basic_block_4 -->
<g id="node11" class="node">
<title>fn_25_basic_block_4</title>
<polygon fill="#d3d3d3" stroke="#000000" points="812,-446 812,-538 946,-538 946,-446 812,-446"/>
<text text-anchor="middle" x="879" y="-522.8" font-family="Times,serif" font-size="14.00" fill="#000000">FREQ:5400</text>
<polyline fill="none" stroke="#000000" points="812,-515 946,-515 "/>
<text text-anchor="start" x="820" y="-499.8" font-family="Times,serif" font-size="14.00" fill="#000000">&lt;bb 4&gt;:</text>
<polyline fill="none" stroke="#000000" points="812,-492 946,-492 "/>
<text text-anchor="start" x="820" y="-476.8" font-family="Times,serif" font-size="14.00" fill="#000000">randw[0] = 13;</text>
<polyline fill="none" stroke="#000000" points="812,-469 946,-469 "/>
<text text-anchor="start" x="820" y="-453.8" font-family="Times,serif" font-size="14.00" fill="#000000">randw[1] = 117;</text>
</g>
<!-- fn_25_basic_block_2&#45;&gt;fn_25_basic_block_4 -->
<g id="edge8" class="edge">
<title>fn_25_basic_block_2:s&#45;&gt;fn_25_basic_block_4:n</title>
<path fill="none" stroke="#000000" stroke-width="2" d="M686,-797C686,-656.9485 869.6912,-680.2859 878.6605,-548.2124"/>
<polygon fill="#000000" stroke="#000000" stroke-width="2" points="882.1657,-548.1108 879,-538 875.1696,-547.8782 882.1657,-548.1108"/>
<text text-anchor="middle" x="858.5" y="-632.8" font-family="Times,serif" font-size="14.00" fill="#000000">[54%]</text>
</g>
<!-- fn_25_basic_block_5 -->
<g id="node12" class="node">
<title>fn_25_basic_block_5</title>
<polygon fill="#d3d3d3" stroke="#000000" points="578,-141.5 578,-302.5 934,-302.5 934,-141.5 578,-141.5"/>
<text text-anchor="middle" x="756" y="-287.3" font-family="Times,serif" font-size="14.00" fill="#000000">FREQ:10000</text>
<polyline fill="none" stroke="#000000" points="578,-279.5 934,-279.5 "/>
<text text-anchor="start" x="586" y="-264.3" font-family="Times,serif" font-size="14.00" fill="#000000">&lt;bb 5&gt;:</text>
<polyline fill="none" stroke="#000000" points="578,-256.5 934,-256.5 "/>
<text text-anchor="start" x="586" y="-241.3" font-family="Times,serif" font-size="14.00" fill="#000000"># prephitmp_20 = PHI &lt;pretmp_19(3), 13(4)&gt;</text>
<polyline fill="none" stroke="#000000" points="578,-233.5 934,-233.5 "/>
<text text-anchor="start" x="586" y="-218.3" font-family="Times,serif" font-size="14.00" fill="#000000"># prephitmp_30 = PHI &lt;_29(3), 298961(4)&gt;</text>
<polyline fill="none" stroke="#000000" points="578,-210.5 934,-210.5 "/>
<text text-anchor="start" x="586" y="-195.3" font-family="Times,serif" font-size="14.00" fill="#000000">randw[1] = prephitmp_20;</text>
<polyline fill="none" stroke="#000000" points="578,-187.5 934,-187.5 "/>
<text text-anchor="start" x="586" y="-172.3" font-family="Times,serif" font-size="14.00" fill="#000000">randw[0] = prephitmp_30;</text>
<polyline fill="none" stroke="#000000" points="578,-164.5 934,-164.5 "/>
<text text-anchor="start" x="586" y="-149.3" font-family="Times,serif" font-size="14.00" fill="#000000">return prephitmp_30;</text>
</g>
<!-- fn_25_basic_block_3&#45;&gt;fn_25_basic_block_5 -->
<g id="edge10" class="edge">
<title>fn_25_basic_block_3:s&#45;&gt;fn_25_basic_block_5:n</title>
<path fill="none" stroke="#0000ff" stroke-width="2" d="M686,-392C686,-345.4106 745.995,-351.9366 754.9005,-313.2316"/>
<polygon fill="#0000ff" stroke="#0000ff" stroke-width="2" points="758.4114,-313.3168 756,-303 751.4515,-312.5687 758.4114,-313.3168"/>
<text text-anchor="middle" x="759" y="-343.8" font-family="Times,serif" font-size="14.00" fill="#000000">[100%]</text>
</g>
<!-- fn_25_basic_block_4&#45;&gt;fn_25_basic_block_5 -->
<g id="edge11" class="edge">
<title>fn_25_basic_block_4:s&#45;&gt;fn_25_basic_block_5:n</title>
<path fill="none" stroke="#0000ff" stroke-width="2" d="M879,-446C879,-384.1982 829.5711,-386.6202 789,-340 777.247,-326.4947 762.8075,-325.0561 757.8058,-313.1725"/>
<polygon fill="#0000ff" stroke="#0000ff" stroke-width="2" points="761.1941,-312.2343 756,-303 754.3018,-313.4578 761.1941,-312.2343"/>
<text text-anchor="middle" x="828" y="-343.8" font-family="Times,serif" font-size="14.00" fill="#000000">[100%]</text>
</g>
<!-- fn_25_basic_block_5&#45;&gt;fn_25_basic_block_1 -->
<g id="edge12" class="edge">
<title>fn_25_basic_block_5:s&#45;&gt;fn_25_basic_block_1:n</title>
<path fill="none" stroke="#000000" stroke-width="2" d="M756,-141C756,-105.1528 756,-93.6705 756,-62.3917"/>
<polygon fill="#000000" stroke="#000000" stroke-width="2" points="759.5001,-62 756,-52 752.5001,-62 759.5001,-62"/>
<text text-anchor="middle" x="782" y="-92.8" font-family="Times,serif" font-size="14.00" fill="#000000">[100%]</text>
</g>
</g>
</svg>
