<?xml version="1.0" encoding="UTF-8" standalone="no"?>
<!DOCTYPE svg PUBLIC "-//W3C//DTD SVG 1.1//EN"
 "http://www.w3.org/Graphics/SVG/1.1/DTD/svg11.dtd">
<!-- Generated by graphviz version 2.40.1 (20161225.0304)
 -->
<!-- Title: misc.c.030t.early_optimizations Pages: 1 -->
<svg width="896pt" height="1275pt"
 viewBox="0.00 0.00 896.00 1275.00" xmlns="http://www.w3.org/2000/svg" xmlns:xlink="http://www.w3.org/1999/xlink">
<g id="graph0" class="graph" transform="scale(1 1) rotate(0) translate(4 1271)">
<title>misc.c.030t.early_optimizations</title>
<polygon fill="#ffffff" stroke="transparent" points="-4,4 -4,-1271 892,-1271 892,4 -4,4"/>
<g id="clust1" class="cluster">
<title>cluster_randnum</title>
<polygon fill="none" stroke="#000000" stroke-dasharray="5,2" points="8,-8 8,-1259 254,-1259 254,-8 8,-8"/>
<text text-anchor="middle" x="131" y="-1243.8" font-family="Times,serif" font-size="14.00" fill="#000000">randnum ()</text>
</g>
<g id="clust2" class="cluster">
<title>cluster_randwc</title>
<polygon fill="none" stroke="#000000" stroke-dasharray="5,2" points="262,-550.5 262,-1259 516,-1259 516,-550.5 262,-550.5"/>
<text text-anchor="middle" x="389" y="-1243.8" font-family="Times,serif" font-size="14.00" fill="#000000">randwc ()</text>
</g>
<g id="clust3" class="cluster">
<title>cluster_abs_randwc</title>
<polygon fill="none" stroke="#000000" stroke-dasharray="5,2" points="524,-8 524,-1259 880,-1259 880,-8 524,-8"/>
<text text-anchor="middle" x="702" y="-1243.8" font-family="Times,serif" font-size="14.00" fill="#000000">abs_randwc ()</text>
</g>
<!-- fn_25_basic_block_0 -->
<g id="node1" class="node">
<title>fn_25_basic_block_0</title>
<polygon fill="#ffffff" stroke="#000000" points="127,-1228 63.6562,-1210 127,-1192 190.3438,-1210 127,-1228"/>
<polyline fill="none" stroke="#000000" points="75.1992,-1213.2801 75.1992,-1206.7199 "/>
<polyline fill="none" stroke="#000000" points="115.457,-1195.2801 138.543,-1195.2801 "/>
<polyline fill="none" stroke="#000000" points="178.8008,-1206.7199 178.8008,-1213.2801 "/>
<polyline fill="none" stroke="#000000" points="138.543,-1224.7199 115.457,-1224.7199 "/>
<text text-anchor="middle" x="127" y="-1206.3" font-family="Times,serif" font-size="14.00" fill="#000000">ENTRY</text>
</g>
<!-- fn_25_basic_block_1 -->
<g id="node2" class="node">
<title>fn_25_basic_block_1</title>
<polygon fill="#ffffff" stroke="#000000" points="141,-52 92.0684,-34 141,-16 189.9316,-34 141,-52"/>
<polyline fill="none" stroke="#000000" points="103.3305,-38.1429 103.3305,-29.8571 "/>
<polyline fill="none" stroke="#000000" points="129.7378,-20.1429 152.2622,-20.1429 "/>
<polyline fill="none" stroke="#000000" points="178.6695,-29.8571 178.6695,-38.1429 "/>
<polyline fill="none" stroke="#000000" points="152.2622,-47.8571 129.7378,-47.8571 "/>
<text text-anchor="middle" x="141" y="-30.3" font-family="Times,serif" font-size="14.00" fill="#000000">EXIT</text>
</g>
<!-- fn_25_basic_block_0&#45;&gt;fn_25_basic_block_1 -->
<!-- fn_25_basic_block_2 -->
<g id="node3" class="node">
<title>fn_25_basic_block_2</title>
<polygon fill="#d3d3d3" stroke="#000000" points="36,-850.5 36,-964.5 218,-964.5 218,-850.5 36,-850.5"/>
<text text-anchor="middle" x="127" y="-949.3" font-family="Times,serif" font-size="14.00" fill="#000000">FREQ:0</text>
<polyline fill="none" stroke="#000000" points="36,-941.5 218,-941.5 "/>
<text text-anchor="start" x="44" y="-926.3" font-family="Times,serif" font-size="14.00" fill="#000000">&lt;bb 2&gt;:</text>
<polyline fill="none" stroke="#000000" points="36,-918.5 218,-918.5 "/>
<text text-anchor="start" x="44" y="-903.3" font-family="Times,serif" font-size="14.00" fill="#000000">if (lngval_8(D) != 0)</text>
<text text-anchor="start" x="44" y="-888.3" font-family="Times,serif" font-size="14.00" fill="#000000"> &#160;goto &lt;bb 3&gt;; [0.00%]</text>
<text text-anchor="start" x="44" y="-873.3" font-family="Times,serif" font-size="14.00" fill="#000000">else</text>
<text text-anchor="start" x="44" y="-858.3" font-family="Times,serif" font-size="14.00" fill="#000000"> &#160;goto &lt;bb 4&gt;; [0.00%]</text>
</g>
<!-- fn_25_basic_block_0&#45;&gt;fn_25_basic_block_2 -->
<g id="edge1" class="edge">
<title>fn_25_basic_block_0:s&#45;&gt;fn_25_basic_block_2:n</title>
<path fill="none" stroke="#0000ff" stroke-width="2" d="M127,-1192C127,-1094.3448 127,-1067.4277 127,-974.6081"/>
<polygon fill="#0000ff" stroke="#0000ff" stroke-width="2" points="130.5001,-974.5 127,-964.5 123.5001,-974.5 130.5001,-974.5"/>
<text text-anchor="middle" x="144" y="-1143.8" font-family="Times,serif" font-size="14.00" fill="#000000">[0%]</text>
</g>
<!-- fn_25_basic_block_3 -->
<g id="node4" class="node">
<title>fn_25_basic_block_3</title>
<polygon fill="#d3d3d3" stroke="#000000" points="42,-530.5 42,-622.5 176,-622.5 176,-530.5 42,-530.5"/>
<text text-anchor="middle" x="109" y="-607.3" font-family="Times,serif" font-size="14.00" fill="#000000">FREQ:0</text>
<polyline fill="none" stroke="#000000" points="42,-599.5 176,-599.5 "/>
<text text-anchor="start" x="50" y="-584.3" font-family="Times,serif" font-size="14.00" fill="#000000">&lt;bb 3&gt;:</text>
<polyline fill="none" stroke="#000000" points="42,-576.5 176,-576.5 "/>
<text text-anchor="start" x="50" y="-561.3" font-family="Times,serif" font-size="14.00" fill="#000000">randw[0] = 13;</text>
<polyline fill="none" stroke="#000000" points="42,-553.5 176,-553.5 "/>
<text text-anchor="start" x="50" y="-538.3" font-family="Times,serif" font-size="14.00" fill="#000000">randw[1] = 117;</text>
</g>
<!-- fn_25_basic_block_2&#45;&gt;fn_25_basic_block_3 -->
<g id="edge2" class="edge">
<title>fn_25_basic_block_2:s&#45;&gt;fn_25_basic_block_3:n</title>
<path fill="none" stroke="#000000" stroke-width="2" d="M127,-850.5C127,-752.3257 110.2094,-725.9272 109.0616,-632.6594"/>
<polygon fill="#000000" stroke="#000000" stroke-width="2" points="112.5607,-632.4785 109,-622.5 105.5608,-632.5211 112.5607,-632.4785"/>
<text text-anchor="middle" x="127" y="-663.8" font-family="Times,serif" font-size="14.00" fill="#000000">[0%]</text>
</g>
<!-- fn_25_basic_block_4 -->
<g id="node5" class="node">
<title>fn_25_basic_block_4</title>
<polygon fill="#d3d3d3" stroke="#000000" points="36.5,-141.5 36.5,-440.5 245.5,-440.5 245.5,-141.5 36.5,-141.5"/>
<text text-anchor="middle" x="141" y="-425.3" font-family="Times,serif" font-size="14.00" fill="#000000">FREQ:0</text>
<polyline fill="none" stroke="#000000" points="36.5,-417.5 245.5,-417.5 "/>
<text text-anchor="start" x="44.5" y="-402.3" font-family="Times,serif" font-size="14.00" fill="#000000">&lt;bb 4&gt;:</text>
<polyline fill="none" stroke="#000000" points="36.5,-394.5 245.5,-394.5 "/>
<text text-anchor="start" x="44.5" y="-379.3" font-family="Times,serif" font-size="14.00" fill="#000000">_1 = randw[0];</text>
<polyline fill="none" stroke="#000000" points="36.5,-371.5 245.5,-371.5 "/>
<text text-anchor="start" x="44.5" y="-356.3" font-family="Times,serif" font-size="14.00" fill="#000000">_2 = _1 * 254754;</text>
<polyline fill="none" stroke="#000000" points="36.5,-348.5 245.5,-348.5 "/>
<text text-anchor="start" x="44.5" y="-333.3" font-family="Times,serif" font-size="14.00" fill="#000000">_3 = randw[1];</text>
<polyline fill="none" stroke="#000000" points="36.5,-325.5 245.5,-325.5 "/>
<text text-anchor="start" x="44.5" y="-310.3" font-family="Times,serif" font-size="14.00" fill="#000000">_4 = _3 * 529562;</text>
<polyline fill="none" stroke="#000000" points="36.5,-302.5 245.5,-302.5 "/>
<text text-anchor="start" x="44.5" y="-287.3" font-family="Times,serif" font-size="14.00" fill="#000000">_5 = _2 + _4;</text>
<polyline fill="none" stroke="#000000" points="36.5,-279.5 245.5,-279.5 "/>
<text text-anchor="start" x="44.5" y="-264.3" font-family="Times,serif" font-size="14.00" fill="#000000">interm_12 = _5 % 999563;</text>
<polyline fill="none" stroke="#000000" points="36.5,-256.5 245.5,-256.5 "/>
<text text-anchor="start" x="44.5" y="-241.3" font-family="Times,serif" font-size="14.00" fill="#000000">_6 = randw[0];</text>
<polyline fill="none" stroke="#000000" points="36.5,-233.5 245.5,-233.5 "/>
<text text-anchor="start" x="44.5" y="-218.3" font-family="Times,serif" font-size="14.00" fill="#000000">randw[1] = _6;</text>
<polyline fill="none" stroke="#000000" points="36.5,-210.5 245.5,-210.5 "/>
<text text-anchor="start" x="44.5" y="-195.3" font-family="Times,serif" font-size="14.00" fill="#000000">randw[0] = interm_12;</text>
<polyline fill="none" stroke="#000000" points="36.5,-187.5 245.5,-187.5 "/>
<text text-anchor="start" x="44.5" y="-172.3" font-family="Times,serif" font-size="14.00" fill="#000000">_15 = interm_12;</text>
<polyline fill="none" stroke="#000000" points="36.5,-164.5 245.5,-164.5 "/>
<text text-anchor="start" x="44.5" y="-149.3" font-family="Times,serif" font-size="14.00" fill="#000000">return _15;</text>
</g>
<!-- fn_25_basic_block_2&#45;&gt;fn_25_basic_block_4 -->
<g id="edge3" class="edge">
<title>fn_25_basic_block_2:s&#45;&gt;fn_25_basic_block_4:n</title>
<path fill="none" stroke="#000000" stroke-width="2" d="M127,-850.5C127,-760.8213 212,-757.1787 212,-667.5 212,-667.5 212,-667.5 212,-485.5 212,-452.332 155.6819,-472.4868 143.3623,-450.9831"/>
<polygon fill="#000000" stroke="#000000" stroke-width="2" points="146.7087,-449.9253 141,-441 139.8968,-451.5372 146.7087,-449.9253"/>
<text text-anchor="middle" x="229" y="-572.8" font-family="Times,serif" font-size="14.00" fill="#000000">[0%]</text>
</g>
<!-- fn_25_basic_block_3&#45;&gt;fn_25_basic_block_4 -->
<g id="edge4" class="edge">
<title>fn_25_basic_block_3:s&#45;&gt;fn_25_basic_block_4:n</title>
<path fill="none" stroke="#0000ff" stroke-width="2" d="M109,-530.5C109,-491.8865 135.7363,-484.3803 140.3316,-451.1134"/>
<polygon fill="#0000ff" stroke="#0000ff" stroke-width="2" points="143.8329,-451.2091 141,-441 136.8481,-450.7474 143.8329,-451.2091"/>
<text text-anchor="middle" x="146" y="-481.8" font-family="Times,serif" font-size="14.00" fill="#000000">[0%]</text>
</g>
<!-- fn_25_basic_block_4&#45;&gt;fn_25_basic_block_1 -->
<g id="edge5" class="edge">
<title>fn_25_basic_block_4:s&#45;&gt;fn_25_basic_block_1:n</title>
<path fill="none" stroke="#000000" stroke-width="2" d="M141,-141C141,-105.1528 141,-93.6705 141,-62.3917"/>
<polygon fill="#000000" stroke="#000000" stroke-width="2" points="144.5001,-62 141,-52 137.5001,-62 144.5001,-62"/>
<text text-anchor="middle" x="158" y="-92.8" font-family="Times,serif" font-size="14.00" fill="#000000">[0%]</text>
</g>
<!-- fn_23_basic_block_0 -->
<g id="node6" class="node">
<title>fn_23_basic_block_0</title>
<polygon fill="#ffffff" stroke="#000000" points="399,-1228 335.6562,-1210 399,-1192 462.3438,-1210 399,-1228"/>
<polyline fill="none" stroke="#000000" points="347.1992,-1213.2801 347.1992,-1206.7199 "/>
<polyline fill="none" stroke="#000000" points="387.457,-1195.2801 410.543,-1195.2801 "/>
<polyline fill="none" stroke="#000000" points="450.8008,-1206.7199 450.8008,-1213.2801 "/>
<polyline fill="none" stroke="#000000" points="410.543,-1224.7199 387.457,-1224.7199 "/>
<text text-anchor="middle" x="399" y="-1206.3" font-family="Times,serif" font-size="14.00" fill="#000000">ENTRY</text>
</g>
<!-- fn_23_basic_block_1 -->
<g id="node7" class="node">
<title>fn_23_basic_block_1</title>
<polygon fill="#ffffff" stroke="#000000" points="399,-594.5 350.0684,-576.5 399,-558.5 447.9316,-576.5 399,-594.5"/>
<polyline fill="none" stroke="#000000" points="361.3305,-580.6429 361.3305,-572.3571 "/>
<polyline fill="none" stroke="#000000" points="387.7378,-562.6429 410.2622,-562.6429 "/>
<polyline fill="none" stroke="#000000" points="436.6695,-572.3571 436.6695,-580.6429 "/>
<polyline fill="none" stroke="#000000" points="410.2622,-590.3571 387.7378,-590.3571 "/>
<text text-anchor="middle" x="399" y="-572.8" font-family="Times,serif" font-size="14.00" fill="#000000">EXIT</text>
</g>
<!-- fn_23_basic_block_0&#45;&gt;fn_23_basic_block_1 -->
<!-- fn_23_basic_block_2 -->
<g id="node8" class="node">
<title>fn_23_basic_block_2</title>
<polygon fill="#d3d3d3" stroke="#000000" points="290,-746.5 290,-1068.5 508,-1068.5 508,-746.5 290,-746.5"/>
<text text-anchor="middle" x="399" y="-1053.3" font-family="Times,serif" font-size="14.00" fill="#000000">FREQ:10000</text>
<polyline fill="none" stroke="#000000" points="290,-1045.5 508,-1045.5 "/>
<text text-anchor="start" x="298" y="-1030.3" font-family="Times,serif" font-size="14.00" fill="#000000">&lt;bb 2&gt;:</text>
<polyline fill="none" stroke="#000000" points="290,-1022.5 508,-1022.5 "/>
<text text-anchor="start" x="298" y="-1007.3" font-family="Times,serif" font-size="14.00" fill="#000000">_6 = randw[0];</text>
<polyline fill="none" stroke="#000000" points="290,-999.5 508,-999.5 "/>
<text text-anchor="start" x="298" y="-984.3" font-family="Times,serif" font-size="14.00" fill="#000000">_7 = _6 * 254754;</text>
<polyline fill="none" stroke="#000000" points="290,-976.5 508,-976.5 "/>
<text text-anchor="start" x="298" y="-961.3" font-family="Times,serif" font-size="14.00" fill="#000000">_8 = randw[1];</text>
<polyline fill="none" stroke="#000000" points="290,-953.5 508,-953.5 "/>
<text text-anchor="start" x="298" y="-938.3" font-family="Times,serif" font-size="14.00" fill="#000000">_9 = _8 * 529562;</text>
<polyline fill="none" stroke="#000000" points="290,-930.5 508,-930.5 "/>
<text text-anchor="start" x="298" y="-915.3" font-family="Times,serif" font-size="14.00" fill="#000000">_10 = _7 + _9;</text>
<polyline fill="none" stroke="#000000" points="290,-907.5 508,-907.5 "/>
<text text-anchor="start" x="298" y="-892.3" font-family="Times,serif" font-size="14.00" fill="#000000">interm_11 = _10 % 999563;</text>
<polyline fill="none" stroke="#000000" points="290,-884.5 508,-884.5 "/>
<text text-anchor="start" x="298" y="-869.3" font-family="Times,serif" font-size="14.00" fill="#000000">randw[1] = _6;</text>
<polyline fill="none" stroke="#000000" points="290,-861.5 508,-861.5 "/>
<text text-anchor="start" x="298" y="-846.3" font-family="Times,serif" font-size="14.00" fill="#000000">randw[0] = interm_11;</text>
<polyline fill="none" stroke="#000000" points="290,-838.5 508,-838.5 "/>
<text text-anchor="start" x="298" y="-823.3" font-family="Times,serif" font-size="14.00" fill="#000000">_14 = interm_11;</text>
<polyline fill="none" stroke="#000000" points="290,-815.5 508,-815.5 "/>
<text text-anchor="start" x="298" y="-800.3" font-family="Times,serif" font-size="14.00" fill="#000000">_1 = _14;</text>
<polyline fill="none" stroke="#000000" points="290,-792.5 508,-792.5 "/>
<text text-anchor="start" x="298" y="-777.3" font-family="Times,serif" font-size="14.00" fill="#000000">_5 = _1 % num_4(D);</text>
<polyline fill="none" stroke="#000000" points="290,-769.5 508,-769.5 "/>
<text text-anchor="start" x="298" y="-754.3" font-family="Times,serif" font-size="14.00" fill="#000000">return _5;</text>
</g>
<!-- fn_23_basic_block_0&#45;&gt;fn_23_basic_block_2 -->
<g id="edge7" class="edge">
<title>fn_23_basic_block_0:s&#45;&gt;fn_23_basic_block_2:n</title>
<path fill="none" stroke="#0000ff" stroke-width="2" d="M399,-1192C399,-1140.6489 399,-1125.3288 399,-1078.6223"/>
<polygon fill="#0000ff" stroke="#0000ff" stroke-width="2" points="402.5001,-1078.5 399,-1068.5 395.5001,-1078.5 402.5001,-1078.5"/>
<text text-anchor="middle" x="416" y="-1143.8" font-family="Times,serif" font-size="14.00" fill="#000000">[0%]</text>
</g>
<!-- fn_23_basic_block_2&#45;&gt;fn_23_basic_block_1 -->
<g id="edge8" class="edge">
<title>fn_23_basic_block_2:s&#45;&gt;fn_23_basic_block_1:n</title>
<path fill="none" stroke="#000000" stroke-width="2" d="M399,-746.5C399,-682.5069 399,-663.9777 399,-604.7797"/>
<polygon fill="#000000" stroke="#000000" stroke-width="2" points="402.5001,-604.5 399,-594.5 395.5001,-604.5 402.5001,-604.5"/>
<text text-anchor="middle" x="416" y="-663.8" font-family="Times,serif" font-size="14.00" fill="#000000">[0%]</text>
</g>
<!-- fn_24_basic_block_0 -->
<g id="node9" class="node">
<title>fn_24_basic_block_0</title>
<polygon fill="#ffffff" stroke="#000000" points="712,-1228 648.6562,-1210 712,-1192 775.3438,-1210 712,-1228"/>
<polyline fill="none" stroke="#000000" points="660.1992,-1213.2801 660.1992,-1206.7199 "/>
<polyline fill="none" stroke="#000000" points="700.457,-1195.2801 723.543,-1195.2801 "/>
<polyline fill="none" stroke="#000000" points="763.8008,-1206.7199 763.8008,-1213.2801 "/>
<polyline fill="none" stroke="#000000" points="723.543,-1224.7199 700.457,-1224.7199 "/>
<text text-anchor="middle" x="712" y="-1206.3" font-family="Times,serif" font-size="14.00" fill="#000000">ENTRY</text>
</g>
<!-- fn_24_basic_block_1 -->
<g id="node10" class="node">
<title>fn_24_basic_block_1</title>
<polygon fill="#ffffff" stroke="#000000" points="712,-52 663.0684,-34 712,-16 760.9316,-34 712,-52"/>
<polyline fill="none" stroke="#000000" points="674.3305,-38.1429 674.3305,-29.8571 "/>
<polyline fill="none" stroke="#000000" points="700.7378,-20.1429 723.2622,-20.1429 "/>
<polyline fill="none" stroke="#000000" points="749.6695,-29.8571 749.6695,-38.1429 "/>
<polyline fill="none" stroke="#000000" points="723.2622,-47.8571 700.7378,-47.8571 "/>
<text text-anchor="middle" x="712" y="-30.3" font-family="Times,serif" font-size="14.00" fill="#000000">EXIT</text>
</g>
<!-- fn_24_basic_block_0&#45;&gt;fn_24_basic_block_1 -->
<!-- fn_24_basic_block_2 -->
<g id="node11" class="node">
<title>fn_24_basic_block_2</title>
<polygon fill="#d3d3d3" stroke="#000000" points="599.5,-712.5 599.5,-1102.5 824.5,-1102.5 824.5,-712.5 599.5,-712.5"/>
<text text-anchor="middle" x="712" y="-1087.3" font-family="Times,serif" font-size="14.00" fill="#000000">FREQ:10000</text>
<polyline fill="none" stroke="#000000" points="599.5,-1079.5 824.5,-1079.5 "/>
<text text-anchor="start" x="607.5" y="-1064.3" font-family="Times,serif" font-size="14.00" fill="#000000">&lt;bb 2&gt;:</text>
<polyline fill="none" stroke="#000000" points="599.5,-1056.5 824.5,-1056.5 "/>
<text text-anchor="start" x="607.5" y="-1041.3" font-family="Times,serif" font-size="14.00" fill="#000000">num.0_1 = (int) num_3(D);</text>
<polyline fill="none" stroke="#000000" points="599.5,-1033.5 824.5,-1033.5 "/>
<text text-anchor="start" x="607.5" y="-1018.3" font-family="Times,serif" font-size="14.00" fill="#000000">_9 = randw[0];</text>
<polyline fill="none" stroke="#000000" points="599.5,-1010.5 824.5,-1010.5 "/>
<text text-anchor="start" x="607.5" y="-995.3" font-family="Times,serif" font-size="14.00" fill="#000000">_10 = _9 * 254754;</text>
<polyline fill="none" stroke="#000000" points="599.5,-987.5 824.5,-987.5 "/>
<text text-anchor="start" x="607.5" y="-972.3" font-family="Times,serif" font-size="14.00" fill="#000000">_11 = randw[1];</text>
<polyline fill="none" stroke="#000000" points="599.5,-964.5 824.5,-964.5 "/>
<text text-anchor="start" x="607.5" y="-949.3" font-family="Times,serif" font-size="14.00" fill="#000000">_12 = _11 * 529562;</text>
<polyline fill="none" stroke="#000000" points="599.5,-941.5 824.5,-941.5 "/>
<text text-anchor="start" x="607.5" y="-926.3" font-family="Times,serif" font-size="14.00" fill="#000000">_13 = _10 + _12;</text>
<polyline fill="none" stroke="#000000" points="599.5,-918.5 824.5,-918.5 "/>
<text text-anchor="start" x="607.5" y="-903.3" font-family="Times,serif" font-size="14.00" fill="#000000">interm_14 = _13 % 999563;</text>
<polyline fill="none" stroke="#000000" points="599.5,-895.5 824.5,-895.5 "/>
<text text-anchor="start" x="607.5" y="-880.3" font-family="Times,serif" font-size="14.00" fill="#000000">randw[1] = _9;</text>
<polyline fill="none" stroke="#000000" points="599.5,-872.5 824.5,-872.5 "/>
<text text-anchor="start" x="607.5" y="-857.3" font-family="Times,serif" font-size="14.00" fill="#000000">randw[0] = interm_14;</text>
<polyline fill="none" stroke="#000000" points="599.5,-849.5 824.5,-849.5 "/>
<text text-anchor="start" x="607.5" y="-834.3" font-family="Times,serif" font-size="14.00" fill="#000000">_15 = interm_14 % num.0_1;</text>
<polyline fill="none" stroke="#000000" points="599.5,-826.5 824.5,-826.5 "/>
<text text-anchor="start" x="607.5" y="-811.3" font-family="Times,serif" font-size="14.00" fill="#000000">_18 = _15;</text>
<polyline fill="none" stroke="#000000" points="599.5,-803.5 824.5,-803.5 "/>
<text text-anchor="start" x="607.5" y="-788.3" font-family="Times,serif" font-size="14.00" fill="#000000">temp_6 = _18;</text>
<polyline fill="none" stroke="#000000" points="599.5,-780.5 824.5,-780.5 "/>
<text text-anchor="start" x="607.5" y="-765.3" font-family="Times,serif" font-size="14.00" fill="#000000">if (temp_6 &lt; 0)</text>
<text text-anchor="start" x="607.5" y="-750.3" font-family="Times,serif" font-size="14.00" fill="#000000"> &#160;goto &lt;bb 3&gt;; [0.00%]</text>
<text text-anchor="start" x="607.5" y="-735.3" font-family="Times,serif" font-size="14.00" fill="#000000">else</text>
<text text-anchor="start" x="607.5" y="-720.3" font-family="Times,serif" font-size="14.00" fill="#000000"> &#160;goto &lt;bb 4&gt;; [0.00%]</text>
</g>
<!-- fn_24_basic_block_0&#45;&gt;fn_24_basic_block_2 -->
<g id="edge10" class="edge">
<title>fn_24_basic_block_0:s&#45;&gt;fn_24_basic_block_2:n</title>
<path fill="none" stroke="#0000ff" stroke-width="2" d="M712,-1192C712,-1155.796 712,-1144.3055 712,-1112.5422"/>
<polygon fill="#0000ff" stroke="#0000ff" stroke-width="2" points="715.5001,-1112.5 712,-1102.5 708.5001,-1112.5 715.5001,-1112.5"/>
<text text-anchor="middle" x="729" y="-1143.8" font-family="Times,serif" font-size="14.00" fill="#000000">[0%]</text>
</g>
<!-- fn_24_basic_block_3 -->
<g id="node12" class="node">
<title>fn_24_basic_block_3</title>
<polygon fill="#d3d3d3" stroke="#000000" points="635.5,-542 635.5,-611 788.5,-611 788.5,-542 635.5,-542"/>
<text text-anchor="middle" x="712" y="-595.8" font-family="Times,serif" font-size="14.00" fill="#000000">FREQ:0</text>
<polyline fill="none" stroke="#000000" points="635.5,-588 788.5,-588 "/>
<text text-anchor="start" x="643.5" y="-572.8" font-family="Times,serif" font-size="14.00" fill="#000000">&lt;bb 3&gt;:</text>
<polyline fill="none" stroke="#000000" points="635.5,-565 788.5,-565 "/>
<text text-anchor="start" x="643.5" y="-549.8" font-family="Times,serif" font-size="14.00" fill="#000000">temp_7 = &#45;temp_6;</text>
</g>
<!-- fn_24_basic_block_2&#45;&gt;fn_24_basic_block_3 -->
<g id="edge11" class="edge">
<title>fn_24_basic_block_2:s&#45;&gt;fn_24_basic_block_3:n</title>
<path fill="none" stroke="#000000" stroke-width="2" d="M712,-712.5C712,-671.2934 712,-658.4566 712,-621.9044"/>
<polygon fill="#000000" stroke="#000000" stroke-width="2" points="715.5001,-621.5 712,-611.5 708.5001,-621.5 715.5001,-621.5"/>
<text text-anchor="middle" x="729" y="-663.8" font-family="Times,serif" font-size="14.00" fill="#000000">[0%]</text>
</g>
<!-- fn_24_basic_block_4 -->
<g id="node13" class="node">
<title>fn_24_basic_block_4</title>
<polygon fill="#d3d3d3" stroke="#000000" points="552.5,-233.5 552.5,-348.5 871.5,-348.5 871.5,-233.5 552.5,-233.5"/>
<text text-anchor="middle" x="712" y="-333.3" font-family="Times,serif" font-size="14.00" fill="#000000">FREQ:0</text>
<polyline fill="none" stroke="#000000" points="552.5,-325.5 871.5,-325.5 "/>
<text text-anchor="start" x="560.5" y="-310.3" font-family="Times,serif" font-size="14.00" fill="#000000">&lt;bb 4&gt;:</text>
<polyline fill="none" stroke="#000000" points="552.5,-302.5 871.5,-302.5 "/>
<text text-anchor="start" x="560.5" y="-287.3" font-family="Times,serif" font-size="14.00" fill="#000000"># temp_2 = PHI &lt;temp_6(2), temp_7(3)&gt;</text>
<polyline fill="none" stroke="#000000" points="552.5,-279.5 871.5,-279.5 "/>
<text text-anchor="start" x="560.5" y="-264.3" font-family="Times,serif" font-size="14.00" fill="#000000">_8 = (u32) temp_2;</text>
<polyline fill="none" stroke="#000000" points="552.5,-256.5 871.5,-256.5 "/>
<text text-anchor="start" x="560.5" y="-241.3" font-family="Times,serif" font-size="14.00" fill="#000000">return _8;</text>
</g>
<!-- fn_24_basic_block_2&#45;&gt;fn_24_basic_block_4 -->
<g id="edge12" class="edge">
<title>fn_24_basic_block_2:s&#45;&gt;fn_24_basic_block_4:n</title>
<path fill="none" stroke="#000000" stroke-width="2" d="M712,-712.5C712,-658.442 825,-721.558 825,-667.5 825,-667.5 825,-667.5 825,-485.5 825,-410.2806 721.9243,-426.0706 712.6636,-359.0279"/>
<polygon fill="#000000" stroke="#000000" stroke-width="2" points="716.1528,-358.747 712,-349 709.1681,-359.2093 716.1528,-358.747"/>
<text text-anchor="middle" x="842" y="-572.8" font-family="Times,serif" font-size="14.00" fill="#000000">[0%]</text>
</g>
<!-- fn_24_basic_block_3&#45;&gt;fn_24_basic_block_4 -->
<g id="edge13" class="edge">
<title>fn_24_basic_block_3:s&#45;&gt;fn_24_basic_block_4:n</title>
<path fill="none" stroke="#0000ff" stroke-width="2" d="M712,-541.5C712,-459.4536 712,-436.4181 712,-359.2124"/>
<polygon fill="#0000ff" stroke="#0000ff" stroke-width="2" points="715.5001,-359 712,-349 708.5001,-359 715.5001,-359"/>
<text text-anchor="middle" x="729" y="-481.8" font-family="Times,serif" font-size="14.00" fill="#000000">[0%]</text>
</g>
<!-- fn_24_basic_block_4&#45;&gt;fn_24_basic_block_1 -->
<g id="edge14" class="edge">
<title>fn_24_basic_block_4:s&#45;&gt;fn_24_basic_block_1:n</title>
<path fill="none" stroke="#000000" stroke-width="2" d="M712,-233C712,-156.0122 712,-134.2841 712,-62.0452"/>
<polygon fill="#000000" stroke="#000000" stroke-width="2" points="715.5001,-62 712,-52 708.5001,-62 715.5001,-62"/>
<text text-anchor="middle" x="729" y="-92.8" font-family="Times,serif" font-size="14.00" fill="#000000">[0%]</text>
</g>
</g>
</svg>
