<?xml version="1.0" encoding="UTF-8" standalone="no"?>
<!DOCTYPE svg PUBLIC "-//W3C//DTD SVG 1.1//EN"
 "http://www.w3.org/Graphics/SVG/1.1/DTD/svg11.dtd">
<!-- Generated by graphviz version 2.40.1 (20161225.0304)
 -->
<!-- Title: misc.c.037t.fre1 Pages: 1 -->
<svg width="872pt" height="1183pt"
 viewBox="0.00 0.00 872.00 1183.00" xmlns="http://www.w3.org/2000/svg" xmlns:xlink="http://www.w3.org/1999/xlink">
<g id="graph0" class="graph" transform="scale(1 1) rotate(0) translate(4 1179)">
<title>misc.c.037t.fre1</title>
<polygon fill="#ffffff" stroke="transparent" points="-4,4 -4,-1179 868,-1179 868,4 -4,4"/>
<g id="clust1" class="cluster">
<title>cluster_randnum</title>
<polygon fill="none" stroke="#000000" stroke-dasharray="5,2" points="8,-8 8,-1167 254,-1167 254,-8 8,-8"/>
<text text-anchor="middle" x="131" y="-1151.8" font-family="Times,serif" font-size="14.00" fill="#000000">randnum ()</text>
</g>
<g id="clust2" class="cluster">
<title>cluster_randwc</title>
<polygon fill="none" stroke="#000000" stroke-dasharray="5,2" points="262,-504.5 262,-1167 522,-1167 522,-504.5 262,-504.5"/>
<text text-anchor="middle" x="392" y="-1151.8" font-family="Times,serif" font-size="14.00" fill="#000000">randwc ()</text>
</g>
<g id="clust3" class="cluster">
<title>cluster_abs_randwc</title>
<polygon fill="none" stroke="#000000" stroke-dasharray="5,2" points="530,-8 530,-1167 856,-1167 856,-8 530,-8"/>
<text text-anchor="middle" x="693" y="-1151.8" font-family="Times,serif" font-size="14.00" fill="#000000">abs_randwc ()</text>
</g>
<!-- fn_25_basic_block_0 -->
<g id="node1" class="node">
<title>fn_25_basic_block_0</title>
<polygon fill="#ffffff" stroke="#000000" points="127,-1136 63.6562,-1118 127,-1100 190.3438,-1118 127,-1136"/>
<polyline fill="none" stroke="#000000" points="75.1992,-1121.2801 75.1992,-1114.7199 "/>
<polyline fill="none" stroke="#000000" points="115.457,-1103.2801 138.543,-1103.2801 "/>
<polyline fill="none" stroke="#000000" points="178.8008,-1114.7199 178.8008,-1121.2801 "/>
<polyline fill="none" stroke="#000000" points="138.543,-1132.7199 115.457,-1132.7199 "/>
<text text-anchor="middle" x="127" y="-1114.3" font-family="Times,serif" font-size="14.00" fill="#000000">ENTRY</text>
</g>
<!-- fn_25_basic_block_1 -->
<g id="node2" class="node">
<title>fn_25_basic_block_1</title>
<polygon fill="#ffffff" stroke="#000000" points="141,-52 92.0684,-34 141,-16 189.9316,-34 141,-52"/>
<polyline fill="none" stroke="#000000" points="103.3305,-38.1429 103.3305,-29.8571 "/>
<polyline fill="none" stroke="#000000" points="129.7378,-20.1429 152.2622,-20.1429 "/>
<polyline fill="none" stroke="#000000" points="178.6695,-29.8571 178.6695,-38.1429 "/>
<polyline fill="none" stroke="#000000" points="152.2622,-47.8571 129.7378,-47.8571 "/>
<text text-anchor="middle" x="141" y="-30.3" font-family="Times,serif" font-size="14.00" fill="#000000">EXIT</text>
</g>
<!-- fn_25_basic_block_0&#45;&gt;fn_25_basic_block_1 -->
<!-- fn_25_basic_block_2 -->
<g id="node3" class="node">
<title>fn_25_basic_block_2</title>
<polygon fill="#d3d3d3" stroke="#000000" points="36,-781.5 36,-895.5 218,-895.5 218,-781.5 36,-781.5"/>
<text text-anchor="middle" x="127" y="-880.3" font-family="Times,serif" font-size="14.00" fill="#000000">FREQ:0</text>
<polyline fill="none" stroke="#000000" points="36,-872.5 218,-872.5 "/>
<text text-anchor="start" x="44" y="-857.3" font-family="Times,serif" font-size="14.00" fill="#000000">&lt;bb 2&gt;:</text>
<polyline fill="none" stroke="#000000" points="36,-849.5 218,-849.5 "/>
<text text-anchor="start" x="44" y="-834.3" font-family="Times,serif" font-size="14.00" fill="#000000">if (lngval_8(D) != 0)</text>
<text text-anchor="start" x="44" y="-819.3" font-family="Times,serif" font-size="14.00" fill="#000000"> &#160;goto &lt;bb 3&gt;; [0.00%]</text>
<text text-anchor="start" x="44" y="-804.3" font-family="Times,serif" font-size="14.00" fill="#000000">else</text>
<text text-anchor="start" x="44" y="-789.3" font-family="Times,serif" font-size="14.00" fill="#000000"> &#160;goto &lt;bb 4&gt;; [0.00%]</text>
</g>
<!-- fn_25_basic_block_0&#45;&gt;fn_25_basic_block_2 -->
<g id="edge1" class="edge">
<title>fn_25_basic_block_0:s&#45;&gt;fn_25_basic_block_2:n</title>
<path fill="none" stroke="#0000ff" stroke-width="2" d="M127,-1100C127,-1012.5727 127,-988.2186 127,-905.5957"/>
<polygon fill="#0000ff" stroke="#0000ff" stroke-width="2" points="130.5001,-905.5 127,-895.5 123.5001,-905.5 130.5001,-905.5"/>
<text text-anchor="middle" x="144" y="-1051.8" font-family="Times,serif" font-size="14.00" fill="#000000">[0%]</text>
</g>
<!-- fn_25_basic_block_3 -->
<g id="node4" class="node">
<title>fn_25_basic_block_3</title>
<polygon fill="#d3d3d3" stroke="#000000" points="42,-484.5 42,-576.5 176,-576.5 176,-484.5 42,-484.5"/>
<text text-anchor="middle" x="109" y="-561.3" font-family="Times,serif" font-size="14.00" fill="#000000">FREQ:0</text>
<polyline fill="none" stroke="#000000" points="42,-553.5 176,-553.5 "/>
<text text-anchor="start" x="50" y="-538.3" font-family="Times,serif" font-size="14.00" fill="#000000">&lt;bb 3&gt;:</text>
<polyline fill="none" stroke="#000000" points="42,-530.5 176,-530.5 "/>
<text text-anchor="start" x="50" y="-515.3" font-family="Times,serif" font-size="14.00" fill="#000000">randw[0] = 13;</text>
<polyline fill="none" stroke="#000000" points="42,-507.5 176,-507.5 "/>
<text text-anchor="start" x="50" y="-492.3" font-family="Times,serif" font-size="14.00" fill="#000000">randw[1] = 117;</text>
</g>
<!-- fn_25_basic_block_2&#45;&gt;fn_25_basic_block_3 -->
<g id="edge2" class="edge">
<title>fn_25_basic_block_2:s&#45;&gt;fn_25_basic_block_3:n</title>
<path fill="none" stroke="#000000" stroke-width="2" d="M127,-781.5C127,-693.5217 110.345,-669.7439 109.0763,-586.6559"/>
<polygon fill="#000000" stroke="#000000" stroke-width="2" points="112.5752,-586.4734 109,-576.5 105.5754,-586.5261 112.5752,-586.4734"/>
<text text-anchor="middle" x="128" y="-617.8" font-family="Times,serif" font-size="14.00" fill="#000000">[0%]</text>
</g>
<!-- fn_25_basic_block_4 -->
<g id="node5" class="node">
<title>fn_25_basic_block_4</title>
<polygon fill="#d3d3d3" stroke="#000000" points="36.5,-141.5 36.5,-394.5 245.5,-394.5 245.5,-141.5 36.5,-141.5"/>
<text text-anchor="middle" x="141" y="-379.3" font-family="Times,serif" font-size="14.00" fill="#000000">FREQ:0</text>
<polyline fill="none" stroke="#000000" points="36.5,-371.5 245.5,-371.5 "/>
<text text-anchor="start" x="44.5" y="-356.3" font-family="Times,serif" font-size="14.00" fill="#000000">&lt;bb 4&gt;:</text>
<polyline fill="none" stroke="#000000" points="36.5,-348.5 245.5,-348.5 "/>
<text text-anchor="start" x="44.5" y="-333.3" font-family="Times,serif" font-size="14.00" fill="#000000">_1 = randw[0];</text>
<polyline fill="none" stroke="#000000" points="36.5,-325.5 245.5,-325.5 "/>
<text text-anchor="start" x="44.5" y="-310.3" font-family="Times,serif" font-size="14.00" fill="#000000">_2 = _1 * 254754;</text>
<polyline fill="none" stroke="#000000" points="36.5,-302.5 245.5,-302.5 "/>
<text text-anchor="start" x="44.5" y="-287.3" font-family="Times,serif" font-size="14.00" fill="#000000">_3 = randw[1];</text>
<polyline fill="none" stroke="#000000" points="36.5,-279.5 245.5,-279.5 "/>
<text text-anchor="start" x="44.5" y="-264.3" font-family="Times,serif" font-size="14.00" fill="#000000">_4 = _3 * 529562;</text>
<polyline fill="none" stroke="#000000" points="36.5,-256.5 245.5,-256.5 "/>
<text text-anchor="start" x="44.5" y="-241.3" font-family="Times,serif" font-size="14.00" fill="#000000">_5 = _2 + _4;</text>
<polyline fill="none" stroke="#000000" points="36.5,-233.5 245.5,-233.5 "/>
<text text-anchor="start" x="44.5" y="-218.3" font-family="Times,serif" font-size="14.00" fill="#000000">interm_12 = _5 % 999563;</text>
<polyline fill="none" stroke="#000000" points="36.5,-210.5 245.5,-210.5 "/>
<text text-anchor="start" x="44.5" y="-195.3" font-family="Times,serif" font-size="14.00" fill="#000000">randw[1] = _1;</text>
<polyline fill="none" stroke="#000000" points="36.5,-187.5 245.5,-187.5 "/>
<text text-anchor="start" x="44.5" y="-172.3" font-family="Times,serif" font-size="14.00" fill="#000000">randw[0] = interm_12;</text>
<polyline fill="none" stroke="#000000" points="36.5,-164.5 245.5,-164.5 "/>
<text text-anchor="start" x="44.5" y="-149.3" font-family="Times,serif" font-size="14.00" fill="#000000">return interm_12;</text>
</g>
<!-- fn_25_basic_block_2&#45;&gt;fn_25_basic_block_4 -->
<g id="edge3" class="edge">
<title>fn_25_basic_block_2:s&#45;&gt;fn_25_basic_block_4:n</title>
<path fill="none" stroke="#000000" stroke-width="2" d="M127,-781.5C127,-700.977 212,-702.023 212,-621.5 212,-621.5 212,-621.5 212,-439.5 212,-406.332 155.6819,-426.4868 143.3623,-404.9831"/>
<polygon fill="#000000" stroke="#000000" stroke-width="2" points="146.7087,-403.9253 141,-395 139.8968,-405.5372 146.7087,-403.9253"/>
<text text-anchor="middle" x="229" y="-526.8" font-family="Times,serif" font-size="14.00" fill="#000000">[0%]</text>
</g>
<!-- fn_25_basic_block_3&#45;&gt;fn_25_basic_block_4 -->
<g id="edge4" class="edge">
<title>fn_25_basic_block_3:s&#45;&gt;fn_25_basic_block_4:n</title>
<path fill="none" stroke="#0000ff" stroke-width="2" d="M109,-484.5C109,-445.8865 135.7363,-438.3803 140.3316,-405.1134"/>
<polygon fill="#0000ff" stroke="#0000ff" stroke-width="2" points="143.8329,-405.2091 141,-395 136.8481,-404.7474 143.8329,-405.2091"/>
<text text-anchor="middle" x="146" y="-435.8" font-family="Times,serif" font-size="14.00" fill="#000000">[0%]</text>
</g>
<!-- fn_25_basic_block_4&#45;&gt;fn_25_basic_block_1 -->
<g id="edge5" class="edge">
<title>fn_25_basic_block_4:s&#45;&gt;fn_25_basic_block_1:n</title>
<path fill="none" stroke="#000000" stroke-width="2" d="M141,-141C141,-105.1528 141,-93.6705 141,-62.3917"/>
<polygon fill="#000000" stroke="#000000" stroke-width="2" points="144.5001,-62 141,-52 137.5001,-62 144.5001,-62"/>
<text text-anchor="middle" x="158" y="-92.8" font-family="Times,serif" font-size="14.00" fill="#000000">[0%]</text>
</g>
<!-- fn_23_basic_block_0 -->
<g id="node6" class="node">
<title>fn_23_basic_block_0</title>
<polygon fill="#ffffff" stroke="#000000" points="402,-1136 338.6562,-1118 402,-1100 465.3438,-1118 402,-1136"/>
<polyline fill="none" stroke="#000000" points="350.1992,-1121.2801 350.1992,-1114.7199 "/>
<polyline fill="none" stroke="#000000" points="390.457,-1103.2801 413.543,-1103.2801 "/>
<polyline fill="none" stroke="#000000" points="453.8008,-1114.7199 453.8008,-1121.2801 "/>
<polyline fill="none" stroke="#000000" points="413.543,-1132.7199 390.457,-1132.7199 "/>
<text text-anchor="middle" x="402" y="-1114.3" font-family="Times,serif" font-size="14.00" fill="#000000">ENTRY</text>
</g>
<!-- fn_23_basic_block_1 -->
<g id="node7" class="node">
<title>fn_23_basic_block_1</title>
<polygon fill="#ffffff" stroke="#000000" points="402,-548.5 353.0684,-530.5 402,-512.5 450.9316,-530.5 402,-548.5"/>
<polyline fill="none" stroke="#000000" points="364.3305,-534.6429 364.3305,-526.3571 "/>
<polyline fill="none" stroke="#000000" points="390.7378,-516.6429 413.2622,-516.6429 "/>
<polyline fill="none" stroke="#000000" points="439.6695,-526.3571 439.6695,-534.6429 "/>
<polyline fill="none" stroke="#000000" points="413.2622,-544.3571 390.7378,-544.3571 "/>
<text text-anchor="middle" x="402" y="-526.8" font-family="Times,serif" font-size="14.00" fill="#000000">EXIT</text>
</g>
<!-- fn_23_basic_block_0&#45;&gt;fn_23_basic_block_1 -->
<!-- fn_23_basic_block_2 -->
<g id="node8" class="node">
<title>fn_23_basic_block_2</title>
<polygon fill="#d3d3d3" stroke="#000000" points="290,-700.5 290,-976.5 514,-976.5 514,-700.5 290,-700.5"/>
<text text-anchor="middle" x="402" y="-961.3" font-family="Times,serif" font-size="14.00" fill="#000000">FREQ:10000</text>
<polyline fill="none" stroke="#000000" points="290,-953.5 514,-953.5 "/>
<text text-anchor="start" x="298" y="-938.3" font-family="Times,serif" font-size="14.00" fill="#000000">&lt;bb 2&gt;:</text>
<polyline fill="none" stroke="#000000" points="290,-930.5 514,-930.5 "/>
<text text-anchor="start" x="298" y="-915.3" font-family="Times,serif" font-size="14.00" fill="#000000">_6 = randw[0];</text>
<polyline fill="none" stroke="#000000" points="290,-907.5 514,-907.5 "/>
<text text-anchor="start" x="298" y="-892.3" font-family="Times,serif" font-size="14.00" fill="#000000">_7 = _6 * 254754;</text>
<polyline fill="none" stroke="#000000" points="290,-884.5 514,-884.5 "/>
<text text-anchor="start" x="298" y="-869.3" font-family="Times,serif" font-size="14.00" fill="#000000">_8 = randw[1];</text>
<polyline fill="none" stroke="#000000" points="290,-861.5 514,-861.5 "/>
<text text-anchor="start" x="298" y="-846.3" font-family="Times,serif" font-size="14.00" fill="#000000">_9 = _8 * 529562;</text>
<polyline fill="none" stroke="#000000" points="290,-838.5 514,-838.5 "/>
<text text-anchor="start" x="298" y="-823.3" font-family="Times,serif" font-size="14.00" fill="#000000">_10 = _7 + _9;</text>
<polyline fill="none" stroke="#000000" points="290,-815.5 514,-815.5 "/>
<text text-anchor="start" x="298" y="-800.3" font-family="Times,serif" font-size="14.00" fill="#000000">interm_11 = _10 % 999563;</text>
<polyline fill="none" stroke="#000000" points="290,-792.5 514,-792.5 "/>
<text text-anchor="start" x="298" y="-777.3" font-family="Times,serif" font-size="14.00" fill="#000000">randw[1] = _6;</text>
<polyline fill="none" stroke="#000000" points="290,-769.5 514,-769.5 "/>
<text text-anchor="start" x="298" y="-754.3" font-family="Times,serif" font-size="14.00" fill="#000000">randw[0] = interm_11;</text>
<polyline fill="none" stroke="#000000" points="290,-746.5 514,-746.5 "/>
<text text-anchor="start" x="298" y="-731.3" font-family="Times,serif" font-size="14.00" fill="#000000">_5 = interm_11 % num_4(D);</text>
<polyline fill="none" stroke="#000000" points="290,-723.5 514,-723.5 "/>
<text text-anchor="start" x="298" y="-708.3" font-family="Times,serif" font-size="14.00" fill="#000000">return _5;</text>
</g>
<!-- fn_23_basic_block_0&#45;&gt;fn_23_basic_block_2 -->
<g id="edge7" class="edge">
<title>fn_23_basic_block_0:s&#45;&gt;fn_23_basic_block_2:n</title>
<path fill="none" stroke="#0000ff" stroke-width="2" d="M402,-1100C402,-1048.6489 402,-1033.3288 402,-986.6223"/>
<polygon fill="#0000ff" stroke="#0000ff" stroke-width="2" points="405.5001,-986.5 402,-976.5 398.5001,-986.5 405.5001,-986.5"/>
<text text-anchor="middle" x="419" y="-1051.8" font-family="Times,serif" font-size="14.00" fill="#000000">[0%]</text>
</g>
<!-- fn_23_basic_block_2&#45;&gt;fn_23_basic_block_1 -->
<g id="edge8" class="edge">
<title>fn_23_basic_block_2:s&#45;&gt;fn_23_basic_block_1:n</title>
<path fill="none" stroke="#000000" stroke-width="2" d="M402,-700.5C402,-636.5069 402,-617.9777 402,-558.7797"/>
<polygon fill="#000000" stroke="#000000" stroke-width="2" points="405.5001,-558.5 402,-548.5 398.5001,-558.5 405.5001,-558.5"/>
<text text-anchor="middle" x="419" y="-617.8" font-family="Times,serif" font-size="14.00" fill="#000000">[0%]</text>
</g>
<!-- fn_24_basic_block_0 -->
<g id="node9" class="node">
<title>fn_24_basic_block_0</title>
<polygon fill="#ffffff" stroke="#000000" points="703,-1136 639.6562,-1118 703,-1100 766.3438,-1118 703,-1136"/>
<polyline fill="none" stroke="#000000" points="651.1992,-1121.2801 651.1992,-1114.7199 "/>
<polyline fill="none" stroke="#000000" points="691.457,-1103.2801 714.543,-1103.2801 "/>
<polyline fill="none" stroke="#000000" points="754.8008,-1114.7199 754.8008,-1121.2801 "/>
<polyline fill="none" stroke="#000000" points="714.543,-1132.7199 691.457,-1132.7199 "/>
<text text-anchor="middle" x="703" y="-1114.3" font-family="Times,serif" font-size="14.00" fill="#000000">ENTRY</text>
</g>
<!-- fn_24_basic_block_1 -->
<g id="node10" class="node">
<title>fn_24_basic_block_1</title>
<polygon fill="#ffffff" stroke="#000000" points="703,-52 654.0684,-34 703,-16 751.9316,-34 703,-52"/>
<polyline fill="none" stroke="#000000" points="665.3305,-38.1429 665.3305,-29.8571 "/>
<polyline fill="none" stroke="#000000" points="691.7378,-20.1429 714.2622,-20.1429 "/>
<polyline fill="none" stroke="#000000" points="740.6695,-29.8571 740.6695,-38.1429 "/>
<polyline fill="none" stroke="#000000" points="714.2622,-47.8571 691.7378,-47.8571 "/>
<text text-anchor="middle" x="703" y="-30.3" font-family="Times,serif" font-size="14.00" fill="#000000">EXIT</text>
</g>
<!-- fn_24_basic_block_0&#45;&gt;fn_24_basic_block_1 -->
<!-- fn_24_basic_block_2 -->
<g id="node11" class="node">
<title>fn_24_basic_block_2</title>
<polygon fill="#d3d3d3" stroke="#000000" points="590.5,-666.5 590.5,-1010.5 815.5,-1010.5 815.5,-666.5 590.5,-666.5"/>
<text text-anchor="middle" x="703" y="-995.3" font-family="Times,serif" font-size="14.00" fill="#000000">FREQ:10000</text>
<polyline fill="none" stroke="#000000" points="590.5,-987.5 815.5,-987.5 "/>
<text text-anchor="start" x="598.5" y="-972.3" font-family="Times,serif" font-size="14.00" fill="#000000">&lt;bb 2&gt;:</text>
<polyline fill="none" stroke="#000000" points="590.5,-964.5 815.5,-964.5 "/>
<text text-anchor="start" x="598.5" y="-949.3" font-family="Times,serif" font-size="14.00" fill="#000000">num.0_1 = (int) num_3(D);</text>
<polyline fill="none" stroke="#000000" points="590.5,-941.5 815.5,-941.5 "/>
<text text-anchor="start" x="598.5" y="-926.3" font-family="Times,serif" font-size="14.00" fill="#000000">_9 = randw[0];</text>
<polyline fill="none" stroke="#000000" points="590.5,-918.5 815.5,-918.5 "/>
<text text-anchor="start" x="598.5" y="-903.3" font-family="Times,serif" font-size="14.00" fill="#000000">_10 = _9 * 254754;</text>
<polyline fill="none" stroke="#000000" points="590.5,-895.5 815.5,-895.5 "/>
<text text-anchor="start" x="598.5" y="-880.3" font-family="Times,serif" font-size="14.00" fill="#000000">_11 = randw[1];</text>
<polyline fill="none" stroke="#000000" points="590.5,-872.5 815.5,-872.5 "/>
<text text-anchor="start" x="598.5" y="-857.3" font-family="Times,serif" font-size="14.00" fill="#000000">_12 = _11 * 529562;</text>
<polyline fill="none" stroke="#000000" points="590.5,-849.5 815.5,-849.5 "/>
<text text-anchor="start" x="598.5" y="-834.3" font-family="Times,serif" font-size="14.00" fill="#000000">_13 = _10 + _12;</text>
<polyline fill="none" stroke="#000000" points="590.5,-826.5 815.5,-826.5 "/>
<text text-anchor="start" x="598.5" y="-811.3" font-family="Times,serif" font-size="14.00" fill="#000000">interm_14 = _13 % 999563;</text>
<polyline fill="none" stroke="#000000" points="590.5,-803.5 815.5,-803.5 "/>
<text text-anchor="start" x="598.5" y="-788.3" font-family="Times,serif" font-size="14.00" fill="#000000">randw[1] = _9;</text>
<polyline fill="none" stroke="#000000" points="590.5,-780.5 815.5,-780.5 "/>
<text text-anchor="start" x="598.5" y="-765.3" font-family="Times,serif" font-size="14.00" fill="#000000">randw[0] = interm_14;</text>
<polyline fill="none" stroke="#000000" points="590.5,-757.5 815.5,-757.5 "/>
<text text-anchor="start" x="598.5" y="-742.3" font-family="Times,serif" font-size="14.00" fill="#000000">_15 = interm_14 % num.0_1;</text>
<polyline fill="none" stroke="#000000" points="590.5,-734.5 815.5,-734.5 "/>
<text text-anchor="start" x="598.5" y="-719.3" font-family="Times,serif" font-size="14.00" fill="#000000">if (_15 &lt; 0)</text>
<text text-anchor="start" x="598.5" y="-704.3" font-family="Times,serif" font-size="14.00" fill="#000000"> &#160;goto &lt;bb 3&gt;; [0.00%]</text>
<text text-anchor="start" x="598.5" y="-689.3" font-family="Times,serif" font-size="14.00" fill="#000000">else</text>
<text text-anchor="start" x="598.5" y="-674.3" font-family="Times,serif" font-size="14.00" fill="#000000"> &#160;goto &lt;bb 4&gt;; [0.00%]</text>
</g>
<!-- fn_24_basic_block_0&#45;&gt;fn_24_basic_block_2 -->
<g id="edge10" class="edge">
<title>fn_24_basic_block_0:s&#45;&gt;fn_24_basic_block_2:n</title>
<path fill="none" stroke="#0000ff" stroke-width="2" d="M703,-1100C703,-1063.796 703,-1052.3055 703,-1020.5422"/>
<polygon fill="#0000ff" stroke="#0000ff" stroke-width="2" points="706.5001,-1020.5 703,-1010.5 699.5001,-1020.5 706.5001,-1020.5"/>
<text text-anchor="middle" x="720" y="-1051.8" font-family="Times,serif" font-size="14.00" fill="#000000">[0%]</text>
</g>
<!-- fn_24_basic_block_3 -->
<g id="node12" class="node">
<title>fn_24_basic_block_3</title>
<polygon fill="#d3d3d3" stroke="#000000" points="640.5,-496 640.5,-565 765.5,-565 765.5,-496 640.5,-496"/>
<text text-anchor="middle" x="703" y="-549.8" font-family="Times,serif" font-size="14.00" fill="#000000">FREQ:0</text>
<polyline fill="none" stroke="#000000" points="640.5,-542 765.5,-542 "/>
<text text-anchor="start" x="648.5" y="-526.8" font-family="Times,serif" font-size="14.00" fill="#000000">&lt;bb 3&gt;:</text>
<polyline fill="none" stroke="#000000" points="640.5,-519 765.5,-519 "/>
<text text-anchor="start" x="648.5" y="-503.8" font-family="Times,serif" font-size="14.00" fill="#000000">temp_7 = &#45;_15;</text>
</g>
<!-- fn_24_basic_block_2&#45;&gt;fn_24_basic_block_3 -->
<g id="edge11" class="edge">
<title>fn_24_basic_block_2:s&#45;&gt;fn_24_basic_block_3:n</title>
<path fill="none" stroke="#000000" stroke-width="2" d="M703,-666.5C703,-625.2934 703,-612.4566 703,-575.9044"/>
<polygon fill="#000000" stroke="#000000" stroke-width="2" points="706.5001,-575.5 703,-565.5 699.5001,-575.5 706.5001,-575.5"/>
<text text-anchor="middle" x="720" y="-617.8" font-family="Times,serif" font-size="14.00" fill="#000000">[0%]</text>
</g>
<!-- fn_24_basic_block_4 -->
<g id="node13" class="node">
<title>fn_24_basic_block_4</title>
<polygon fill="#d3d3d3" stroke="#000000" points="557.5,-210.5 557.5,-325.5 848.5,-325.5 848.5,-210.5 557.5,-210.5"/>
<text text-anchor="middle" x="703" y="-310.3" font-family="Times,serif" font-size="14.00" fill="#000000">FREQ:0</text>
<polyline fill="none" stroke="#000000" points="557.5,-302.5 848.5,-302.5 "/>
<text text-anchor="start" x="565.5" y="-287.3" font-family="Times,serif" font-size="14.00" fill="#000000">&lt;bb 4&gt;:</text>
<polyline fill="none" stroke="#000000" points="557.5,-279.5 848.5,-279.5 "/>
<text text-anchor="start" x="565.5" y="-264.3" font-family="Times,serif" font-size="14.00" fill="#000000"># temp_2 = PHI &lt;_15(2), temp_7(3)&gt;</text>
<polyline fill="none" stroke="#000000" points="557.5,-256.5 848.5,-256.5 "/>
<text text-anchor="start" x="565.5" y="-241.3" font-family="Times,serif" font-size="14.00" fill="#000000">_8 = (u32) temp_2;</text>
<polyline fill="none" stroke="#000000" points="557.5,-233.5 848.5,-233.5 "/>
<text text-anchor="start" x="565.5" y="-218.3" font-family="Times,serif" font-size="14.00" fill="#000000">return _8;</text>
</g>
<!-- fn_24_basic_block_2&#45;&gt;fn_24_basic_block_4 -->
<g id="edge12" class="edge">
<title>fn_24_basic_block_2:s&#45;&gt;fn_24_basic_block_4:n</title>
<path fill="none" stroke="#000000" stroke-width="2" d="M703,-666.5C703,-618.1678 802,-669.8322 802,-621.5 802,-621.5 802,-621.5 802,-439.5 802,-376.2231 713.532,-390.9702 703.8559,-336.2271"/>
<polygon fill="#000000" stroke="#000000" stroke-width="2" points="707.3218,-335.6733 703,-326 700.3462,-336.2571 707.3218,-335.6733"/>
<text text-anchor="middle" x="819" y="-526.8" font-family="Times,serif" font-size="14.00" fill="#000000">[0%]</text>
</g>
<!-- fn_24_basic_block_3&#45;&gt;fn_24_basic_block_4 -->
<g id="edge13" class="edge">
<title>fn_24_basic_block_3:s&#45;&gt;fn_24_basic_block_4:n</title>
<path fill="none" stroke="#0000ff" stroke-width="2" d="M703,-495.5C703,-423.6979 703,-403.2231 703,-336.233"/>
<polygon fill="#0000ff" stroke="#0000ff" stroke-width="2" points="706.5001,-336 703,-326 699.5001,-336 706.5001,-336"/>
<text text-anchor="middle" x="720" y="-435.8" font-family="Times,serif" font-size="14.00" fill="#000000">[0%]</text>
</g>
<!-- fn_24_basic_block_4&#45;&gt;fn_24_basic_block_1 -->
<g id="edge14" class="edge">
<title>fn_24_basic_block_4:s&#45;&gt;fn_24_basic_block_1:n</title>
<path fill="none" stroke="#000000" stroke-width="2" d="M703,-210C703,-143.3438 703,-124.141 703,-62.3043"/>
<polygon fill="#000000" stroke="#000000" stroke-width="2" points="706.5001,-62 703,-52 699.5001,-62 706.5001,-62"/>
<text text-anchor="middle" x="720" y="-92.8" font-family="Times,serif" font-size="14.00" fill="#000000">[0%]</text>
</g>
</g>
</svg>
