<?xml version="1.0" encoding="UTF-8" standalone="no"?>
<!DOCTYPE svg PUBLIC "-//W3C//DTD SVG 1.1//EN"
 "http://www.w3.org/Graphics/SVG/1.1/DTD/svg11.dtd">
<!-- Generated by graphviz version 2.40.1 (20161225.0304)
 -->
<!-- Title: misc.c.128t.bswap Pages: 1 -->
<svg width="815pt" height="1184pt"
 viewBox="0.00 0.00 815.00 1184.00" xmlns="http://www.w3.org/2000/svg" xmlns:xlink="http://www.w3.org/1999/xlink">
<g id="graph0" class="graph" transform="scale(1 1) rotate(0) translate(4 1180)">
<title>misc.c.128t.bswap</title>
<polygon fill="#ffffff" stroke="transparent" points="-4,4 -4,-1180 811,-1180 811,4 -4,4"/>
<g id="clust1" class="cluster">
<title>cluster_randwc</title>
<polygon fill="none" stroke="#000000" stroke-dasharray="5,2" points="8,-504.5 8,-1168 260,-1168 260,-504.5 8,-504.5"/>
<text text-anchor="middle" x="134" y="-1152.8" font-family="Times,serif" font-size="14.00" fill="#000000">randwc ()</text>
</g>
<g id="clust2" class="cluster">
<title>cluster_abs_randwc</title>
<polygon fill="none" stroke="#000000" stroke-dasharray="5,2" points="268,-504.5 268,-1168 542,-1168 542,-504.5 268,-504.5"/>
<text text-anchor="middle" x="405" y="-1152.8" font-family="Times,serif" font-size="14.00" fill="#000000">abs_randwc ()</text>
</g>
<g id="clust3" class="cluster">
<title>cluster_randnum</title>
<polygon fill="none" stroke="#000000" stroke-dasharray="5,2" points="550,-8 550,-1168 799,-1168 799,-8 550,-8"/>
<text text-anchor="middle" x="674.5" y="-1152.8" font-family="Times,serif" font-size="14.00" fill="#000000">randnum ()</text>
</g>
<!-- fn_23_basic_block_0 -->
<g id="node1" class="node">
<title>fn_23_basic_block_0</title>
<polygon fill="#ffffff" stroke="#000000" points="144,-1137 80.6562,-1119 144,-1101 207.3438,-1119 144,-1137"/>
<polyline fill="none" stroke="#000000" points="92.1992,-1122.2801 92.1992,-1115.7199 "/>
<polyline fill="none" stroke="#000000" points="132.457,-1104.2801 155.543,-1104.2801 "/>
<polyline fill="none" stroke="#000000" points="195.8008,-1115.7199 195.8008,-1122.2801 "/>
<polyline fill="none" stroke="#000000" points="155.543,-1133.7199 132.457,-1133.7199 "/>
<text text-anchor="middle" x="144" y="-1115.3" font-family="Times,serif" font-size="14.00" fill="#000000">ENTRY</text>
</g>
<!-- fn_23_basic_block_1 -->
<g id="node2" class="node">
<title>fn_23_basic_block_1</title>
<polygon fill="#ffffff" stroke="#000000" points="144,-548.5 95.0684,-530.5 144,-512.5 192.9316,-530.5 144,-548.5"/>
<polyline fill="none" stroke="#000000" points="106.3305,-534.6429 106.3305,-526.3571 "/>
<polyline fill="none" stroke="#000000" points="132.7378,-516.6429 155.2622,-516.6429 "/>
<polyline fill="none" stroke="#000000" points="181.6695,-526.3571 181.6695,-534.6429 "/>
<polyline fill="none" stroke="#000000" points="155.2622,-544.3571 132.7378,-544.3571 "/>
<text text-anchor="middle" x="144" y="-526.8" font-family="Times,serif" font-size="14.00" fill="#000000">EXIT</text>
</g>
<!-- fn_23_basic_block_0&#45;&gt;fn_23_basic_block_1 -->
<!-- fn_23_basic_block_2 -->
<g id="node3" class="node">
<title>fn_23_basic_block_2</title>
<polygon fill="#d3d3d3" stroke="#000000" points="36.5,-701 36.5,-977 251.5,-977 251.5,-701 36.5,-701"/>
<text text-anchor="middle" x="144" y="-961.8" font-family="Times,serif" font-size="14.00" fill="#000000">FREQ:10000</text>
<polyline fill="none" stroke="#000000" points="36.5,-954 251.5,-954 "/>
<text text-anchor="start" x="44.5" y="-938.8" font-family="Times,serif" font-size="14.00" fill="#000000">&lt;bb 2&gt;:</text>
<polyline fill="none" stroke="#000000" points="36.5,-931 251.5,-931 "/>
<text text-anchor="start" x="44.5" y="-915.8" font-family="Times,serif" font-size="14.00" fill="#000000">_4 = randw[0];</text>
<polyline fill="none" stroke="#000000" points="36.5,-908 251.5,-908 "/>
<text text-anchor="start" x="44.5" y="-892.8" font-family="Times,serif" font-size="14.00" fill="#000000">_5 = _4 * 254754;</text>
<polyline fill="none" stroke="#000000" points="36.5,-885 251.5,-885 "/>
<text text-anchor="start" x="44.5" y="-869.8" font-family="Times,serif" font-size="14.00" fill="#000000">_6 = randw[1];</text>
<polyline fill="none" stroke="#000000" points="36.5,-862 251.5,-862 "/>
<text text-anchor="start" x="44.5" y="-846.8" font-family="Times,serif" font-size="14.00" fill="#000000">_7 = _6 * 529562;</text>
<polyline fill="none" stroke="#000000" points="36.5,-839 251.5,-839 "/>
<text text-anchor="start" x="44.5" y="-823.8" font-family="Times,serif" font-size="14.00" fill="#000000">_8 = _5 + _7;</text>
<polyline fill="none" stroke="#000000" points="36.5,-816 251.5,-816 "/>
<text text-anchor="start" x="44.5" y="-800.8" font-family="Times,serif" font-size="14.00" fill="#000000">interm_9 = _8 % 999563;</text>
<polyline fill="none" stroke="#000000" points="36.5,-793 251.5,-793 "/>
<text text-anchor="start" x="44.5" y="-777.8" font-family="Times,serif" font-size="14.00" fill="#000000">randw[1] = _4;</text>
<polyline fill="none" stroke="#000000" points="36.5,-770 251.5,-770 "/>
<text text-anchor="start" x="44.5" y="-754.8" font-family="Times,serif" font-size="14.00" fill="#000000">randw[0] = interm_9;</text>
<polyline fill="none" stroke="#000000" points="36.5,-747 251.5,-747 "/>
<text text-anchor="start" x="44.5" y="-731.8" font-family="Times,serif" font-size="14.00" fill="#000000">_3 = interm_9 % num_2(D);</text>
<polyline fill="none" stroke="#000000" points="36.5,-724 251.5,-724 "/>
<text text-anchor="start" x="44.5" y="-708.8" font-family="Times,serif" font-size="14.00" fill="#000000">return _3;</text>
</g>
<!-- fn_23_basic_block_0&#45;&gt;fn_23_basic_block_2 -->
<g id="edge1" class="edge">
<title>fn_23_basic_block_0:s&#45;&gt;fn_23_basic_block_2:n</title>
<path fill="none" stroke="#0000ff" stroke-width="2" d="M144,-1101C144,-1049.441 144,-1034.0589 144,-987.1633"/>
<polygon fill="#0000ff" stroke="#0000ff" stroke-width="2" points="147.5001,-987 144,-977 140.5001,-987 147.5001,-987"/>
<text text-anchor="middle" x="170" y="-1052.8" font-family="Times,serif" font-size="14.00" fill="#000000">[100%]</text>
</g>
<!-- fn_23_basic_block_2&#45;&gt;fn_23_basic_block_1 -->
<g id="edge2" class="edge">
<title>fn_23_basic_block_2:s&#45;&gt;fn_23_basic_block_1:n</title>
<path fill="none" stroke="#000000" stroke-width="2" d="M144,-701C144,-636.7964 144,-618.2063 144,-558.8135"/>
<polygon fill="#000000" stroke="#000000" stroke-width="2" points="147.5001,-558.5 144,-548.5 140.5001,-558.5 147.5001,-558.5"/>
<text text-anchor="middle" x="170" y="-617.8" font-family="Times,serif" font-size="14.00" fill="#000000">[100%]</text>
</g>
<!-- fn_24_basic_block_0 -->
<g id="node4" class="node">
<title>fn_24_basic_block_0</title>
<polygon fill="#ffffff" stroke="#000000" points="415,-1137 351.6562,-1119 415,-1101 478.3438,-1119 415,-1137"/>
<polyline fill="none" stroke="#000000" points="363.1992,-1122.2801 363.1992,-1115.7199 "/>
<polyline fill="none" stroke="#000000" points="403.457,-1104.2801 426.543,-1104.2801 "/>
<polyline fill="none" stroke="#000000" points="466.8008,-1115.7199 466.8008,-1122.2801 "/>
<polyline fill="none" stroke="#000000" points="426.543,-1133.7199 403.457,-1133.7199 "/>
<text text-anchor="middle" x="415" y="-1115.3" font-family="Times,serif" font-size="14.00" fill="#000000">ENTRY</text>
</g>
<!-- fn_24_basic_block_1 -->
<g id="node5" class="node">
<title>fn_24_basic_block_1</title>
<polygon fill="#ffffff" stroke="#000000" points="415,-548.5 366.0684,-530.5 415,-512.5 463.9316,-530.5 415,-548.5"/>
<polyline fill="none" stroke="#000000" points="377.3305,-534.6429 377.3305,-526.3571 "/>
<polyline fill="none" stroke="#000000" points="403.7378,-516.6429 426.2622,-516.6429 "/>
<polyline fill="none" stroke="#000000" points="452.6695,-526.3571 452.6695,-534.6429 "/>
<polyline fill="none" stroke="#000000" points="426.2622,-544.3571 403.7378,-544.3571 "/>
<text text-anchor="middle" x="415" y="-526.8" font-family="Times,serif" font-size="14.00" fill="#000000">EXIT</text>
</g>
<!-- fn_24_basic_block_0&#45;&gt;fn_24_basic_block_1 -->
<!-- fn_24_basic_block_2 -->
<g id="node6" class="node">
<title>fn_24_basic_block_2</title>
<polygon fill="#d3d3d3" stroke="#000000" points="296,-666.5 296,-1011.5 534,-1011.5 534,-666.5 296,-666.5"/>
<text text-anchor="middle" x="415" y="-996.3" font-family="Times,serif" font-size="14.00" fill="#000000">FREQ:10000</text>
<polyline fill="none" stroke="#000000" points="296,-988.5 534,-988.5 "/>
<text text-anchor="start" x="304" y="-973.3" font-family="Times,serif" font-size="14.00" fill="#000000">&lt;bb 2&gt;:</text>
<polyline fill="none" stroke="#000000" points="296,-965.5 534,-965.5 "/>
<text text-anchor="start" x="304" y="-950.3" font-family="Times,serif" font-size="14.00" fill="#000000">num.0_1 = (int) num_3(D);</text>
<polyline fill="none" stroke="#000000" points="296,-942.5 534,-942.5 "/>
<text text-anchor="start" x="304" y="-927.3" font-family="Times,serif" font-size="14.00" fill="#000000">_7 = randw[0];</text>
<polyline fill="none" stroke="#000000" points="296,-919.5 534,-919.5 "/>
<text text-anchor="start" x="304" y="-904.3" font-family="Times,serif" font-size="14.00" fill="#000000">_8 = _7 * 254754;</text>
<polyline fill="none" stroke="#000000" points="296,-896.5 534,-896.5 "/>
<text text-anchor="start" x="304" y="-881.3" font-family="Times,serif" font-size="14.00" fill="#000000">_9 = randw[1];</text>
<polyline fill="none" stroke="#000000" points="296,-873.5 534,-873.5 "/>
<text text-anchor="start" x="304" y="-858.3" font-family="Times,serif" font-size="14.00" fill="#000000">_10 = _9 * 529562;</text>
<polyline fill="none" stroke="#000000" points="296,-850.5 534,-850.5 "/>
<text text-anchor="start" x="304" y="-835.3" font-family="Times,serif" font-size="14.00" fill="#000000">_11 = _8 + _10;</text>
<polyline fill="none" stroke="#000000" points="296,-827.5 534,-827.5 "/>
<text text-anchor="start" x="304" y="-812.3" font-family="Times,serif" font-size="14.00" fill="#000000">interm_12 = _11 % 999563;</text>
<polyline fill="none" stroke="#000000" points="296,-804.5 534,-804.5 "/>
<text text-anchor="start" x="304" y="-789.3" font-family="Times,serif" font-size="14.00" fill="#000000">randw[1] = _7;</text>
<polyline fill="none" stroke="#000000" points="296,-781.5 534,-781.5 "/>
<text text-anchor="start" x="304" y="-766.3" font-family="Times,serif" font-size="14.00" fill="#000000">randw[0] = interm_12;</text>
<polyline fill="none" stroke="#000000" points="296,-758.5 534,-758.5 "/>
<text text-anchor="start" x="304" y="-743.3" font-family="Times,serif" font-size="14.00" fill="#000000">_13 = interm_12 % num.0_1;</text>
<polyline fill="none" stroke="#000000" points="296,-735.5 534,-735.5 "/>
<text text-anchor="start" x="304" y="-720.3" font-family="Times,serif" font-size="14.00" fill="#000000">temp_16 = ABS_EXPR &lt;_13&gt;;</text>
<polyline fill="none" stroke="#000000" points="296,-712.5 534,-712.5 "/>
<text text-anchor="start" x="304" y="-697.3" font-family="Times,serif" font-size="14.00" fill="#000000">_6 = (u32) temp_16;</text>
<polyline fill="none" stroke="#000000" points="296,-689.5 534,-689.5 "/>
<text text-anchor="start" x="304" y="-674.3" font-family="Times,serif" font-size="14.00" fill="#000000">return _6;</text>
</g>
<!-- fn_24_basic_block_0&#45;&gt;fn_24_basic_block_2 -->
<g id="edge4" class="edge">
<title>fn_24_basic_block_0:s&#45;&gt;fn_24_basic_block_2:n</title>
<path fill="none" stroke="#0000ff" stroke-width="2" d="M415,-1101C415,-1065.1528 415,-1053.6705 415,-1022.3917"/>
<polygon fill="#0000ff" stroke="#0000ff" stroke-width="2" points="418.5001,-1022 415,-1012 411.5001,-1022 418.5001,-1022"/>
<text text-anchor="middle" x="441" y="-1052.8" font-family="Times,serif" font-size="14.00" fill="#000000">[100%]</text>
</g>
<!-- fn_24_basic_block_2&#45;&gt;fn_24_basic_block_1 -->
<g id="edge5" class="edge">
<title>fn_24_basic_block_2:s&#45;&gt;fn_24_basic_block_1:n</title>
<path fill="none" stroke="#000000" stroke-width="2" d="M415,-666C415,-617.3477 415,-602.6902 415,-558.6856"/>
<polygon fill="#000000" stroke="#000000" stroke-width="2" points="418.5001,-558.5 415,-548.5 411.5001,-558.5 418.5001,-558.5"/>
<text text-anchor="middle" x="441" y="-617.8" font-family="Times,serif" font-size="14.00" fill="#000000">[100%]</text>
</g>
<!-- fn_25_basic_block_0 -->
<g id="node7" class="node">
<title>fn_25_basic_block_0</title>
<polygon fill="#ffffff" stroke="#000000" points="674,-1137 610.6562,-1119 674,-1101 737.3438,-1119 674,-1137"/>
<polyline fill="none" stroke="#000000" points="622.1992,-1122.2801 622.1992,-1115.7199 "/>
<polyline fill="none" stroke="#000000" points="662.457,-1104.2801 685.543,-1104.2801 "/>
<polyline fill="none" stroke="#000000" points="725.8008,-1115.7199 725.8008,-1122.2801 "/>
<polyline fill="none" stroke="#000000" points="685.543,-1133.7199 662.457,-1133.7199 "/>
<text text-anchor="middle" x="674" y="-1115.3" font-family="Times,serif" font-size="14.00" fill="#000000">ENTRY</text>
</g>
<!-- fn_25_basic_block_1 -->
<g id="node8" class="node">
<title>fn_25_basic_block_1</title>
<polygon fill="#ffffff" stroke="#000000" points="683,-52 634.0684,-34 683,-16 731.9316,-34 683,-52"/>
<polyline fill="none" stroke="#000000" points="645.3305,-38.1429 645.3305,-29.8571 "/>
<polyline fill="none" stroke="#000000" points="671.7378,-20.1429 694.2622,-20.1429 "/>
<polyline fill="none" stroke="#000000" points="720.6695,-29.8571 720.6695,-38.1429 "/>
<polyline fill="none" stroke="#000000" points="694.2622,-47.8571 671.7378,-47.8571 "/>
<text text-anchor="middle" x="683" y="-30.3" font-family="Times,serif" font-size="14.00" fill="#000000">EXIT</text>
</g>
<!-- fn_25_basic_block_0&#45;&gt;fn_25_basic_block_1 -->
<!-- fn_25_basic_block_2 -->
<g id="node9" class="node">
<title>fn_25_basic_block_2</title>
<polygon fill="#d3d3d3" stroke="#000000" points="578.5,-782 578.5,-896 769.5,-896 769.5,-782 578.5,-782"/>
<text text-anchor="middle" x="674" y="-880.8" font-family="Times,serif" font-size="14.00" fill="#000000">FREQ:10000</text>
<polyline fill="none" stroke="#000000" points="578.5,-873 769.5,-873 "/>
<text text-anchor="start" x="586.5" y="-857.8" font-family="Times,serif" font-size="14.00" fill="#000000">&lt;bb 2&gt;:</text>
<polyline fill="none" stroke="#000000" points="578.5,-850 769.5,-850 "/>
<text text-anchor="start" x="586.5" y="-834.8" font-family="Times,serif" font-size="14.00" fill="#000000">if (lngval_7(D) != 0)</text>
<text text-anchor="start" x="586.5" y="-819.8" font-family="Times,serif" font-size="14.00" fill="#000000"> &#160;goto &lt;bb 3&gt;; [54.00%]</text>
<text text-anchor="start" x="586.5" y="-804.8" font-family="Times,serif" font-size="14.00" fill="#000000">else</text>
<text text-anchor="start" x="586.5" y="-789.8" font-family="Times,serif" font-size="14.00" fill="#000000"> &#160;goto &lt;bb 4&gt;; [46.00%]</text>
</g>
<!-- fn_25_basic_block_0&#45;&gt;fn_25_basic_block_2 -->
<g id="edge7" class="edge">
<title>fn_25_basic_block_0:s&#45;&gt;fn_25_basic_block_2:n</title>
<path fill="none" stroke="#0000ff" stroke-width="2" d="M674,-1101C674,-1013.3589 674,-988.9453 674,-906.1203"/>
<polygon fill="#0000ff" stroke="#0000ff" stroke-width="2" points="677.5001,-906 674,-896 670.5001,-906 677.5001,-906"/>
<text text-anchor="middle" x="700" y="-1052.8" font-family="Times,serif" font-size="14.00" fill="#000000">[100%]</text>
</g>
<!-- fn_25_basic_block_3 -->
<g id="node10" class="node">
<title>fn_25_basic_block_3</title>
<polygon fill="#d3d3d3" stroke="#000000" points="578,-484.5 578,-576.5 712,-576.5 712,-484.5 578,-484.5"/>
<text text-anchor="middle" x="645" y="-561.3" font-family="Times,serif" font-size="14.00" fill="#000000">FREQ:5400</text>
<polyline fill="none" stroke="#000000" points="578,-553.5 712,-553.5 "/>
<text text-anchor="start" x="586" y="-538.3" font-family="Times,serif" font-size="14.00" fill="#000000">&lt;bb 3&gt;:</text>
<polyline fill="none" stroke="#000000" points="578,-530.5 712,-530.5 "/>
<text text-anchor="start" x="586" y="-515.3" font-family="Times,serif" font-size="14.00" fill="#000000">randw[0] = 13;</text>
<polyline fill="none" stroke="#000000" points="578,-507.5 712,-507.5 "/>
<text text-anchor="start" x="586" y="-492.3" font-family="Times,serif" font-size="14.00" fill="#000000">randw[1] = 117;</text>
</g>
<!-- fn_25_basic_block_2&#45;&gt;fn_25_basic_block_3 -->
<g id="edge8" class="edge">
<title>fn_25_basic_block_2:s&#45;&gt;fn_25_basic_block_3:n</title>
<path fill="none" stroke="#000000" stroke-width="2" d="M674,-782C674,-693.2747 647.1669,-670.443 645.123,-586.7369"/>
<polygon fill="#000000" stroke="#000000" stroke-width="2" points="648.62,-586.4572 645,-576.5 641.6205,-586.5414 648.62,-586.4572"/>
<text text-anchor="middle" x="669.5" y="-617.8" font-family="Times,serif" font-size="14.00" fill="#000000">[54%]</text>
</g>
<!-- fn_25_basic_block_4 -->
<g id="node11" class="node">
<title>fn_25_basic_block_4</title>
<polygon fill="#d3d3d3" stroke="#000000" points="578.5,-141.5 578.5,-394.5 787.5,-394.5 787.5,-141.5 578.5,-141.5"/>
<text text-anchor="middle" x="683" y="-379.3" font-family="Times,serif" font-size="14.00" fill="#000000">FREQ:10000</text>
<polyline fill="none" stroke="#000000" points="578.5,-371.5 787.5,-371.5 "/>
<text text-anchor="start" x="586.5" y="-356.3" font-family="Times,serif" font-size="14.00" fill="#000000">&lt;bb 4&gt;:</text>
<polyline fill="none" stroke="#000000" points="578.5,-348.5 787.5,-348.5 "/>
<text text-anchor="start" x="586.5" y="-333.3" font-family="Times,serif" font-size="14.00" fill="#000000">_1 = randw[0];</text>
<polyline fill="none" stroke="#000000" points="578.5,-325.5 787.5,-325.5 "/>
<text text-anchor="start" x="586.5" y="-310.3" font-family="Times,serif" font-size="14.00" fill="#000000">_2 = _1 * 254754;</text>
<polyline fill="none" stroke="#000000" points="578.5,-302.5 787.5,-302.5 "/>
<text text-anchor="start" x="586.5" y="-287.3" font-family="Times,serif" font-size="14.00" fill="#000000">_3 = randw[1];</text>
<polyline fill="none" stroke="#000000" points="578.5,-279.5 787.5,-279.5 "/>
<text text-anchor="start" x="586.5" y="-264.3" font-family="Times,serif" font-size="14.00" fill="#000000">_4 = _3 * 529562;</text>
<polyline fill="none" stroke="#000000" points="578.5,-256.5 787.5,-256.5 "/>
<text text-anchor="start" x="586.5" y="-241.3" font-family="Times,serif" font-size="14.00" fill="#000000">_5 = _2 + _4;</text>
<polyline fill="none" stroke="#000000" points="578.5,-233.5 787.5,-233.5 "/>
<text text-anchor="start" x="586.5" y="-218.3" font-family="Times,serif" font-size="14.00" fill="#000000">interm_11 = _5 % 999563;</text>
<polyline fill="none" stroke="#000000" points="578.5,-210.5 787.5,-210.5 "/>
<text text-anchor="start" x="586.5" y="-195.3" font-family="Times,serif" font-size="14.00" fill="#000000">randw[1] = _1;</text>
<polyline fill="none" stroke="#000000" points="578.5,-187.5 787.5,-187.5 "/>
<text text-anchor="start" x="586.5" y="-172.3" font-family="Times,serif" font-size="14.00" fill="#000000">randw[0] = interm_11;</text>
<polyline fill="none" stroke="#000000" points="578.5,-164.5 787.5,-164.5 "/>
<text text-anchor="start" x="586.5" y="-149.3" font-family="Times,serif" font-size="14.00" fill="#000000">return interm_11;</text>
</g>
<!-- fn_25_basic_block_2&#45;&gt;fn_25_basic_block_4 -->
<g id="edge9" class="edge">
<title>fn_25_basic_block_2:s&#45;&gt;fn_25_basic_block_4:n</title>
<path fill="none" stroke="#000000" stroke-width="2" d="M674,-782C674,-703.4499 748,-700.0501 748,-621.5 748,-621.5 748,-621.5 748,-439.5 748,-408.4556 696.8924,-425.0051 685.3134,-404.7437"/>
<polygon fill="#000000" stroke="#000000" stroke-width="2" points="688.7154,-403.921 683,-395 681.9048,-405.5381 688.7154,-403.921"/>
<text text-anchor="middle" x="769.5" y="-526.8" font-family="Times,serif" font-size="14.00" fill="#000000">[46%]</text>
</g>
<!-- fn_25_basic_block_3&#45;&gt;fn_25_basic_block_4 -->
<g id="edge10" class="edge">
<title>fn_25_basic_block_3:s&#45;&gt;fn_25_basic_block_4:n</title>
<path fill="none" stroke="#0000ff" stroke-width="2" d="M645,-484.5C645,-444.9991 676.7494,-439.0389 682.2063,-405.3028"/>
<polygon fill="#0000ff" stroke="#0000ff" stroke-width="2" points="685.7215,-405.2393 683,-395 678.7422,-404.7016 685.7215,-405.2393"/>
<text text-anchor="middle" x="695" y="-435.8" font-family="Times,serif" font-size="14.00" fill="#000000">[100%]</text>
</g>
<!-- fn_25_basic_block_4&#45;&gt;fn_25_basic_block_1 -->
<g id="edge11" class="edge">
<title>fn_25_basic_block_4:s&#45;&gt;fn_25_basic_block_1:n</title>
<path fill="none" stroke="#000000" stroke-width="2" d="M683,-141C683,-105.1528 683,-93.6705 683,-62.3917"/>
<polygon fill="#000000" stroke="#000000" stroke-width="2" points="686.5001,-62 683,-52 679.5001,-62 686.5001,-62"/>
<text text-anchor="middle" x="709" y="-92.8" font-family="Times,serif" font-size="14.00" fill="#000000">[100%]</text>
</g>
</g>
</svg>
