<?xml version="1.0" encoding="UTF-8" standalone="no"?>
<!DOCTYPE svg PUBLIC "-//W3C//DTD SVG 1.1//EN"
 "http://www.w3.org/Graphics/SVG/1.1/DTD/svg11.dtd">
<!-- Generated by graphviz version 2.40.1 (20161225.0304)
 -->
<!-- Title: nbench0.c.167t.no_loop Pages: 1 -->
<svg width="623pt" height="815pt"
 viewBox="0.00 0.00 623.00 815.00" xmlns="http://www.w3.org/2000/svg" xmlns:xlink="http://www.w3.org/1999/xlink">
<g id="graph0" class="graph" transform="scale(1 1) rotate(0) translate(4 811)">
<title>nbench0.c.167t.no_loop</title>
<polygon fill="#ffffff" stroke="transparent" points="-4,4 -4,-811 619,-811 619,4 -4,4"/>
<g id="clust1" class="cluster">
<title>cluster_output_string</title>
<polygon fill="none" stroke="#000000" stroke-dasharray="5,2" points="8,-8 8,-799 607,-799 607,-8 8,-8"/>
<text text-anchor="middle" x="307.5" y="-783.8" font-family="Times,serif" font-size="14.00" fill="#000000">output_string ()</text>
</g>
<!-- fn_64_basic_block_0 -->
<g id="node1" class="node">
<title>fn_64_basic_block_0</title>
<polygon fill="#ffffff" stroke="#000000" points="171,-768 107.6562,-750 171,-732 234.3438,-750 171,-768"/>
<polyline fill="none" stroke="#000000" points="119.1992,-753.2801 119.1992,-746.7199 "/>
<polyline fill="none" stroke="#000000" points="159.457,-735.2801 182.543,-735.2801 "/>
<polyline fill="none" stroke="#000000" points="222.8008,-746.7199 222.8008,-753.2801 "/>
<polyline fill="none" stroke="#000000" points="182.543,-764.7199 159.457,-764.7199 "/>
<text text-anchor="middle" x="171" y="-746.3" font-family="Times,serif" font-size="14.00" fill="#000000">ENTRY</text>
</g>
<!-- fn_64_basic_block_1 -->
<g id="node2" class="node">
<title>fn_64_basic_block_1</title>
<polygon fill="#ffffff" stroke="#000000" points="132,-52 83.0684,-34 132,-16 180.9316,-34 132,-52"/>
<polyline fill="none" stroke="#000000" points="94.3305,-38.1429 94.3305,-29.8571 "/>
<polyline fill="none" stroke="#000000" points="120.7378,-20.1429 143.2622,-20.1429 "/>
<polyline fill="none" stroke="#000000" points="169.6695,-29.8571 169.6695,-38.1429 "/>
<polyline fill="none" stroke="#000000" points="143.2622,-47.8571 120.7378,-47.8571 "/>
<text text-anchor="middle" x="132" y="-30.3" font-family="Times,serif" font-size="14.00" fill="#000000">EXIT</text>
</g>
<!-- fn_64_basic_block_0&#45;&gt;fn_64_basic_block_1 -->
<!-- fn_64_basic_block_2 -->
<g id="node3" class="node">
<title>fn_64_basic_block_2</title>
<polygon fill="#d3d3d3" stroke="#000000" points="36.5,-482.5 36.5,-642.5 305.5,-642.5 305.5,-482.5 36.5,-482.5"/>
<text text-anchor="middle" x="171" y="-627.3" font-family="Times,serif" font-size="14.00" fill="#000000">FREQ:10000</text>
<polyline fill="none" stroke="#000000" points="36.5,-619.5 305.5,-619.5 "/>
<text text-anchor="start" x="44.5" y="-604.3" font-family="Times,serif" font-size="14.00" fill="#000000">&lt;bb 2&gt;:</text>
<polyline fill="none" stroke="#000000" points="36.5,-596.5 305.5,-596.5 "/>
<text text-anchor="start" x="44.5" y="-581.3" font-family="Times,serif" font-size="14.00" fill="#000000">__printf_chk (1, &quot;%s&quot;, buffer_3(D));</text>
<polyline fill="none" stroke="#000000" points="36.5,-573.5 305.5,-573.5 "/>
<text text-anchor="start" x="44.5" y="-558.3" font-family="Times,serif" font-size="14.00" fill="#000000">write_to_file.30_1 = write_to_file;</text>
<polyline fill="none" stroke="#000000" points="36.5,-550.5 305.5,-550.5 "/>
<text text-anchor="start" x="44.5" y="-535.3" font-family="Times,serif" font-size="14.00" fill="#000000">if (write_to_file.30_1 != 0)</text>
<text text-anchor="start" x="44.5" y="-520.3" font-family="Times,serif" font-size="14.00" fill="#000000"> &#160;goto &lt;bb 3&gt;; [36.64%]</text>
<text text-anchor="start" x="44.5" y="-505.3" font-family="Times,serif" font-size="14.00" fill="#000000">else</text>
<text text-anchor="start" x="44.5" y="-490.3" font-family="Times,serif" font-size="14.00" fill="#000000"> &#160;goto &lt;bb 5&gt;; [63.36%]</text>
</g>
<!-- fn_64_basic_block_0&#45;&gt;fn_64_basic_block_2 -->
<g id="edge1" class="edge">
<title>fn_64_basic_block_0:s&#45;&gt;fn_64_basic_block_2:n</title>
<path fill="none" stroke="#0000ff" stroke-width="2" d="M171,-732C171,-695.796 171,-684.3055 171,-652.5422"/>
<polygon fill="#0000ff" stroke="#0000ff" stroke-width="2" points="174.5001,-652.5 171,-642.5 167.5001,-652.5 174.5001,-652.5"/>
<text text-anchor="middle" x="197" y="-683.8" font-family="Times,serif" font-size="14.00" fill="#000000">[100%]</text>
</g>
<!-- fn_64_basic_block_5 -->
<g id="node4" class="node">
<title>fn_64_basic_block_5</title>
<polygon fill="#d3d3d3" stroke="#000000" points="36.5,-316 36.5,-377 227.5,-377 227.5,-316 36.5,-316"/>
<text text-anchor="middle" x="132" y="-361.8" font-family="Times,serif" font-size="14.00" fill="#000000">FREQ:6336</text>
<polyline fill="none" stroke="#000000" points="36.5,-354 227.5,-354 "/>
<text text-anchor="start" x="44.5" y="-338.8" font-family="Times,serif" font-size="14.00" fill="#000000">&lt;bb 5&gt;:</text>
<text text-anchor="start" x="44.5" y="-323.8" font-family="Times,serif" font-size="14.00" fill="#000000">goto &lt;bb 4&gt;; [100.00%]</text>
</g>
<!-- fn_64_basic_block_2&#45;&gt;fn_64_basic_block_5 -->
<g id="edge3" class="edge">
<title>fn_64_basic_block_2:s&#45;&gt;fn_64_basic_block_5:n</title>
<path fill="none" stroke="#000000" stroke-width="2" d="M171,-482.5C171,-436.3158 137.433,-428.2991 132.5816,-387.6312"/>
<polygon fill="#000000" stroke="#000000" stroke-width="2" points="136.0674,-387.2829 132,-377.5 129.0789,-387.6842 136.0674,-387.2829"/>
<text text-anchor="middle" x="181.5" y="-433.8" font-family="Times,serif" font-size="14.00" fill="#000000">[63%]</text>
</g>
<!-- fn_64_basic_block_3 -->
<g id="node5" class="node">
<title>fn_64_basic_block_3</title>
<polygon fill="#d3d3d3" stroke="#000000" points="245.5,-300.5 245.5,-392.5 598.5,-392.5 598.5,-300.5 245.5,-300.5"/>
<text text-anchor="middle" x="422" y="-377.3" font-family="Times,serif" font-size="14.00" fill="#000000">FREQ:3664</text>
<polyline fill="none" stroke="#000000" points="245.5,-369.5 598.5,-369.5 "/>
<text text-anchor="start" x="253.5" y="-354.3" font-family="Times,serif" font-size="14.00" fill="#000000">&lt;bb 3&gt;:</text>
<polyline fill="none" stroke="#000000" points="245.5,-346.5 598.5,-346.5 "/>
<text text-anchor="start" x="253.5" y="-331.3" font-family="Times,serif" font-size="14.00" fill="#000000">global_ofile.31_7 = global_ofile;</text>
<polyline fill="none" stroke="#000000" points="245.5,-323.5 598.5,-323.5 "/>
<text text-anchor="start" x="253.5" y="-308.3" font-family="Times,serif" font-size="14.00" fill="#000000">__builtin_fputs (buffer_3(D), global_ofile.31_7);</text>
</g>
<!-- fn_64_basic_block_2&#45;&gt;fn_64_basic_block_3 -->
<g id="edge2" class="edge">
<title>fn_64_basic_block_2:s&#45;&gt;fn_64_basic_block_3:n</title>
<path fill="none" stroke="#000000" stroke-width="2" d="M171,-482.5C171,-426.8327 392.5256,-448.6244 419.351,-402.3369"/>
<polygon fill="#000000" stroke="#000000" stroke-width="2" points="422.7792,-403.0661 422,-392.5 416.02,-401.2459 422.7792,-403.0661"/>
<text text-anchor="middle" x="370.5" y="-433.8" font-family="Times,serif" font-size="14.00" fill="#000000">[36%]</text>
</g>
<!-- fn_64_basic_block_4 -->
<g id="node6" class="node">
<title>fn_64_basic_block_4</title>
<polygon fill="#d3d3d3" stroke="#000000" points="77.5,-141.5 77.5,-210.5 186.5,-210.5 186.5,-141.5 77.5,-141.5"/>
<text text-anchor="middle" x="132" y="-195.3" font-family="Times,serif" font-size="14.00" fill="#000000">FREQ:10000</text>
<polyline fill="none" stroke="#000000" points="77.5,-187.5 186.5,-187.5 "/>
<text text-anchor="start" x="85.5" y="-172.3" font-family="Times,serif" font-size="14.00" fill="#000000">&lt;bb 4&gt;:</text>
<polyline fill="none" stroke="#000000" points="77.5,-164.5 186.5,-164.5 "/>
<text text-anchor="start" x="85.5" y="-149.3" font-family="Times,serif" font-size="14.00" fill="#000000">return;</text>
</g>
<!-- fn_64_basic_block_5&#45;&gt;fn_64_basic_block_4 -->
<g id="edge4" class="edge">
<title>fn_64_basic_block_5:s&#45;&gt;fn_64_basic_block_4:n</title>
<path fill="none" stroke="#0000ff" stroke-width="2" d="M132,-315.5C132,-272.684 132,-259.4713 132,-221.2808"/>
<polygon fill="#0000ff" stroke="#0000ff" stroke-width="2" points="135.5001,-221 132,-211 128.5001,-221 135.5001,-221"/>
<text text-anchor="middle" x="158" y="-251.8" font-family="Times,serif" font-size="14.00" fill="#000000">[100%]</text>
</g>
<!-- fn_64_basic_block_3&#45;&gt;fn_64_basic_block_4 -->
<g id="edge5" class="edge">
<title>fn_64_basic_block_3:s&#45;&gt;fn_64_basic_block_4:n</title>
<path fill="none" stroke="#0000ff" stroke-width="2" d="M422,-300.5C422,-236.6129 161.7795,-273.9705 134.3343,-220.7616"/>
<polygon fill="#0000ff" stroke="#0000ff" stroke-width="2" points="137.7299,-219.9117 132,-211 130.9218,-221.5398 137.7299,-219.9117"/>
<text text-anchor="middle" x="377" y="-251.8" font-family="Times,serif" font-size="14.00" fill="#000000">[100%]</text>
</g>
<!-- fn_64_basic_block_4&#45;&gt;fn_64_basic_block_1 -->
<g id="edge6" class="edge">
<title>fn_64_basic_block_4:s&#45;&gt;fn_64_basic_block_1:n</title>
<path fill="none" stroke="#000000" stroke-width="2" d="M132,-141C132,-105.1528 132,-93.6705 132,-62.3917"/>
<polygon fill="#000000" stroke="#000000" stroke-width="2" points="135.5001,-62 132,-52 128.5001,-62 135.5001,-62"/>
<text text-anchor="middle" x="158" y="-92.8" font-family="Times,serif" font-size="14.00" fill="#000000">[100%]</text>
</g>
</g>
</svg>
