<?xml version="1.0" encoding="UTF-8" standalone="no"?>
<!DOCTYPE svg PUBLIC "-//W3C//DTD SVG 1.1//EN"
 "http://www.w3.org/Graphics/SVG/1.1/DTD/svg11.dtd">
<!-- Generated by graphviz version 2.40.1 (20161225.0304)
 -->
<!-- Title: pointer.c.011t.cfg Pages: 1 -->
<svg width="674pt" height="429pt"
 viewBox="0.00 0.00 674.00 429.00" xmlns="http://www.w3.org/2000/svg" xmlns:xlink="http://www.w3.org/1999/xlink">
<g id="graph0" class="graph" transform="scale(1 1) rotate(0) translate(4 425)">
<title>pointer.c.011t.cfg</title>
<polygon fill="#ffffff" stroke="transparent" points="-4,4 -4,-425 670,-425 670,4 -4,4"/>
<g id="clust1" class="cluster">
<title>cluster_main</title>
<polygon fill="none" stroke="#000000" stroke-dasharray="5,2" points="8,-8 8,-413 176,-413 176,-8 8,-8"/>
<text text-anchor="middle" x="92" y="-397.8" font-family="Times,serif" font-size="14.00" fill="#000000">main ()</text>
</g>
<g id="clust2" class="cluster">
<title>cluster_printf</title>
<polygon fill="none" stroke="#000000" stroke-dasharray="5,2" points="184,-8 184,-413 658,-413 658,-8 184,-8"/>
<text text-anchor="middle" x="421" y="-397.8" font-family="Times,serif" font-size="14.00" fill="#000000">printf ()</text>
</g>
<!-- fn_23_basic_block_0 -->
<g id="node1" class="node">
<title>fn_23_basic_block_0</title>
<polygon fill="#ffffff" stroke="#000000" points="102,-382 38.6562,-364 102,-346 165.3438,-364 102,-382"/>
<polyline fill="none" stroke="#000000" points="50.1992,-367.2801 50.1992,-360.7199 "/>
<polyline fill="none" stroke="#000000" points="90.457,-349.2801 113.543,-349.2801 "/>
<polyline fill="none" stroke="#000000" points="153.8008,-360.7199 153.8008,-367.2801 "/>
<polyline fill="none" stroke="#000000" points="113.543,-378.7199 90.457,-378.7199 "/>
<text text-anchor="middle" x="102" y="-360.3" font-family="Times,serif" font-size="14.00" fill="#000000">ENTRY</text>
</g>
<!-- fn_23_basic_block_1 -->
<g id="node2" class="node">
<title>fn_23_basic_block_1</title>
<polygon fill="#ffffff" stroke="#000000" points="102,-52 53.0684,-34 102,-16 150.9316,-34 102,-52"/>
<polyline fill="none" stroke="#000000" points="64.3305,-38.1429 64.3305,-29.8571 "/>
<polyline fill="none" stroke="#000000" points="90.7378,-20.1429 113.2622,-20.1429 "/>
<polyline fill="none" stroke="#000000" points="139.6695,-29.8571 139.6695,-38.1429 "/>
<polyline fill="none" stroke="#000000" points="113.2622,-47.8571 90.7378,-47.8571 "/>
<text text-anchor="middle" x="102" y="-30.3" font-family="Times,serif" font-size="14.00" fill="#000000">EXIT</text>
</g>
<!-- fn_23_basic_block_0&#45;&gt;fn_23_basic_block_1 -->
<!-- fn_23_basic_block_2 -->
<g id="node3" class="node">
<title>fn_23_basic_block_2</title>
<polygon fill="#d3d3d3" stroke="#000000" points="36.5,-141.5 36.5,-256.5 167.5,-256.5 167.5,-141.5 36.5,-141.5"/>
<text text-anchor="middle" x="102" y="-241.3" font-family="Times,serif" font-size="14.00" fill="#000000">FREQ:0</text>
<polyline fill="none" stroke="#000000" points="36.5,-233.5 167.5,-233.5 "/>
<text text-anchor="start" x="44.5" y="-218.3" font-family="Times,serif" font-size="14.00" fill="#000000">&lt;bb 2&gt;:</text>
<polyline fill="none" stroke="#000000" points="36.5,-210.5 167.5,-210.5 "/>
<text text-anchor="start" x="44.5" y="-195.3" font-family="Times,serif" font-size="14.00" fill="#000000">printf (&quot;%d&quot;, 8);</text>
<polyline fill="none" stroke="#000000" points="36.5,-187.5 167.5,-187.5 "/>
<text text-anchor="start" x="44.5" y="-172.3" font-family="Times,serif" font-size="14.00" fill="#000000">D.2447 = 0;</text>
<polyline fill="none" stroke="#000000" points="36.5,-164.5 167.5,-164.5 "/>
<text text-anchor="start" x="44.5" y="-149.3" font-family="Times,serif" font-size="14.00" fill="#000000">return D.2447;</text>
</g>
<!-- fn_23_basic_block_0&#45;&gt;fn_23_basic_block_2 -->
<g id="edge1" class="edge">
<title>fn_23_basic_block_0:s&#45;&gt;fn_23_basic_block_2:n</title>
<path fill="none" stroke="#0000ff" stroke-width="2" d="M102,-346C102,-310.1528 102,-298.6705 102,-267.3917"/>
<polygon fill="#0000ff" stroke="#0000ff" stroke-width="2" points="105.5001,-267 102,-257 98.5001,-267 105.5001,-267"/>
<text text-anchor="middle" x="119" y="-297.8" font-family="Times,serif" font-size="14.00" fill="#000000">[0%]</text>
</g>
<!-- fn_23_basic_block_2&#45;&gt;fn_23_basic_block_1 -->
<g id="edge2" class="edge">
<title>fn_23_basic_block_2:s&#45;&gt;fn_23_basic_block_1:n</title>
<path fill="none" stroke="#000000" stroke-width="2" d="M102,-141C102,-105.1528 102,-93.6705 102,-62.3917"/>
<polygon fill="#000000" stroke="#000000" stroke-width="2" points="105.5001,-62 102,-52 98.5001,-62 105.5001,-62"/>
<text text-anchor="middle" x="119" y="-92.8" font-family="Times,serif" font-size="14.00" fill="#000000">[0%]</text>
</g>
<!-- fn_15_basic_block_0 -->
<g id="node4" class="node">
<title>fn_15_basic_block_0</title>
<polygon fill="#ffffff" stroke="#000000" points="431,-382 367.6562,-364 431,-346 494.3438,-364 431,-382"/>
<polyline fill="none" stroke="#000000" points="379.1992,-367.2801 379.1992,-360.7199 "/>
<polyline fill="none" stroke="#000000" points="419.457,-349.2801 442.543,-349.2801 "/>
<polyline fill="none" stroke="#000000" points="482.8008,-360.7199 482.8008,-367.2801 "/>
<polyline fill="none" stroke="#000000" points="442.543,-378.7199 419.457,-378.7199 "/>
<text text-anchor="middle" x="431" y="-360.3" font-family="Times,serif" font-size="14.00" fill="#000000">ENTRY</text>
</g>
<!-- fn_15_basic_block_1 -->
<g id="node5" class="node">
<title>fn_15_basic_block_1</title>
<polygon fill="#ffffff" stroke="#000000" points="431,-52 382.0684,-34 431,-16 479.9316,-34 431,-52"/>
<polyline fill="none" stroke="#000000" points="393.3305,-38.1429 393.3305,-29.8571 "/>
<polyline fill="none" stroke="#000000" points="419.7378,-20.1429 442.2622,-20.1429 "/>
<polyline fill="none" stroke="#000000" points="468.6695,-29.8571 468.6695,-38.1429 "/>
<polyline fill="none" stroke="#000000" points="442.2622,-47.8571 419.7378,-47.8571 "/>
<text text-anchor="middle" x="431" y="-30.3" font-family="Times,serif" font-size="14.00" fill="#000000">EXIT</text>
</g>
<!-- fn_15_basic_block_0&#45;&gt;fn_15_basic_block_1 -->
<!-- fn_15_basic_block_2 -->
<g id="node6" class="node">
<title>fn_15_basic_block_2</title>
<polygon fill="#d3d3d3" stroke="#000000" points="212,-153 212,-245 650,-245 650,-153 212,-153"/>
<text text-anchor="middle" x="431" y="-229.8" font-family="Times,serif" font-size="14.00" fill="#000000">FREQ:0</text>
<polyline fill="none" stroke="#000000" points="212,-222 650,-222 "/>
<text text-anchor="start" x="220" y="-206.8" font-family="Times,serif" font-size="14.00" fill="#000000">&lt;bb 2&gt;:</text>
<polyline fill="none" stroke="#000000" points="212,-199 650,-199 "/>
<text text-anchor="start" x="220" y="-183.8" font-family="Times,serif" font-size="14.00" fill="#000000">D.2449 = __printf_chk (1, __fmt, __builtin_va_arg_pack ());</text>
<polyline fill="none" stroke="#000000" points="212,-176 650,-176 "/>
<text text-anchor="start" x="220" y="-160.8" font-family="Times,serif" font-size="14.00" fill="#000000">return D.2449;</text>
</g>
<!-- fn_15_basic_block_0&#45;&gt;fn_15_basic_block_2 -->
<g id="edge4" class="edge">
<title>fn_15_basic_block_0:s&#45;&gt;fn_15_basic_block_2:n</title>
<path fill="none" stroke="#0000ff" stroke-width="2" d="M431,-346C431,-304.7934 431,-291.9566 431,-255.4044"/>
<polygon fill="#0000ff" stroke="#0000ff" stroke-width="2" points="434.5001,-255 431,-245 427.5001,-255 434.5001,-255"/>
<text text-anchor="middle" x="448" y="-297.8" font-family="Times,serif" font-size="14.00" fill="#000000">[0%]</text>
</g>
<!-- fn_15_basic_block_2&#45;&gt;fn_15_basic_block_1 -->
<g id="edge5" class="edge">
<title>fn_15_basic_block_2:s&#45;&gt;fn_15_basic_block_1:n</title>
<path fill="none" stroke="#000000" stroke-width="2" d="M431,-153C431,-111.7934 431,-98.9566 431,-62.4044"/>
<polygon fill="#000000" stroke="#000000" stroke-width="2" points="434.5001,-62 431,-52 427.5001,-62 434.5001,-62"/>
<text text-anchor="middle" x="448" y="-92.8" font-family="Times,serif" font-size="14.00" fill="#000000">[0%]</text>
</g>
</g>
</svg>
